<?xml version='1.0' encoding='UTF-8' standalone='no'?>
<!-- Created with Fritzing (http://www.fritzing.org/) -->
<svg xmlns="http://www.w3.org/2000/svg"  y="0in" version="1.2" width="3.93701in" viewBox="0 0 283.465 141.732" height="1.9685in" xmlns:svg="http://www.w3.org/2000/svg" baseProfile="tiny" x="0in">
 <g transform="matrix(-1, 0, 0, 1, 283.465, 0)">
  <g partID="313442">
   <g id="silkscreen0">
    <rect y="0.288" width="282.889" stroke="black" height="141.156" fill="none" x="0.288" stroke-width="0.576"/>
   </g>
  </g>
  <g partID="313440">
   <g id="board">
    <rect fill-opacity="0.5" y="0.288" width="282.889" stroke="black" id="boardoutline" height="141.156" fill="none" x="0.288" stroke-width="0.5"/>
   </g>
  </g>
  <g partID="313442">
   <g id="silkscreen0">
    <rect y="0.288" width="282.889" stroke="black" height="141.156" fill="none" x="0.288" stroke-width="0.576"/>
   </g>
  </g>
  <g partID="931540">
   <g transform="translate(84.5074,51.7834)">
    <g id="copper0">
     <circle cx="4.43465" cy="4.43465" stroke="white" id="nonconn0" fill="white" r="2.83465" stroke-width="0.72"/>
    </g>
   </g>
  </g>
  <g partID="859370">
   <g transform="translate(40.2387,36.4442)">
    <g transform="matrix(0.911029,0.412342,-0.412342,0.911029,0,0)">
     <g id="copper0">
      <g id="copper1">
       <!-- <rect width="55" x="10" y="15.5" fill="none" height="55" stroke="rgb(255, 191, 0)" stroke-width="20" />  -->
       <circle cx="2.7" cy="3.096" stroke="white" id="connector0pin" fill="white" r="1.98" stroke-width="2.16"/>
       <circle cx="31.5" cy="3.096" stroke="white" id="connector1pin" fill="white" r="1.98" stroke-width="2.16"/>
      </g>
     </g>
    </g>
   </g>
  </g>
  <g partID="939580">
   <g transform="translate(164.542,97.2581)">
    <g transform="matrix(0,1,-1,0,0,0)">
     <g id="copper0">
      <circle cx="5.04" cy="5.04" stroke="white" id="connector0pin" fill="white" r="2.088" stroke-width="2.16"/>
      <circle cx="5.04" cy="12.24" stroke="white" id="connector1pin" fill="white" r="2.088" stroke-width="2.16"/>
     </g>
    </g>
   </g>
  </g>
  <g partID="426140">
   <g transform="translate(7.94904,115.625)">
    <g id="copper0">
     <circle cx="7.55273" cy="7.55273" stroke="white" id="nonconn0" fill="white" r="5.95276" stroke-width="0.72"/>
    </g>
   </g>
  </g>
  <g partID="426130">
   <g transform="translate(263.549,115.625)">
    <g id="copper0">
     <circle cx="7.55273" cy="7.55273" stroke="white" id="nonconn0" fill="white" r="5.95276" stroke-width="0.72"/>
    </g>
   </g>
  </g>
  <g partID="426110">
   <g transform="translate(7.94904,5.46532)">
    <g id="copper0">
     <circle cx="7.55273" cy="7.55273" stroke="white" id="nonconn0" fill="white" r="5.95276" stroke-width="0.72"/>
    </g>
   </g>
  </g>
  <g partID="426080">
   <g transform="translate(263.549,5.46531)">
    <g id="copper0">
     <circle cx="7.55273" cy="7.55273" stroke="white" id="nonconn0" fill="white" r="5.95276" stroke-width="0.72"/>
    </g>
   </g>
  </g>
  <g partID="939520">
   <g transform="translate(50.7818,100.138)">
    <g transform="matrix(0,-1,1,0,0,0)">
     <g id="copper0">
      <circle cx="5.04" cy="5.04" stroke="white" id="connector0pin" fill="white" r="2.088" stroke-width="2.16"/>
      <circle cx="5.04" cy="12.24" stroke="white" id="connector1pin" fill="white" r="2.088" stroke-width="2.16"/>
      <circle cx="5.04" cy="19.44" stroke="white" id="connector2pin" fill="white" r="2.088" stroke-width="2.16"/>
      <circle cx="5.04" cy="26.64" stroke="white" id="connector3pin" fill="white" r="2.088" stroke-width="2.16"/>
      <circle cx="5.04" cy="33.84" stroke="white" id="connector4pin" fill="white" r="2.088" stroke-width="2.16"/>
      <circle cx="5.04" cy="41.04" stroke="white" id="connector5pin" fill="white" r="2.088" stroke-width="2.16"/>
      <circle cx="5.04" cy="48.24" stroke="white" id="connector6pin" fill="white" r="2.088" stroke-width="2.16"/>
      <circle cx="5.04" cy="55.44" stroke="white" id="connector7pin" fill="white" r="2.088" stroke-width="2.16"/>
      <circle cx="5.04" cy="62.64" stroke="white" id="connector8pin" fill="white" r="2.088" stroke-width="2.16"/>
      <circle cx="5.04" cy="69.84" stroke="white" id="connector9pin" fill="white" r="2.088" stroke-width="2.16"/>
     </g>
    </g>
   </g>
  </g>
  <g partID="939620">
   <g transform="translate(173.182,52.6181)">
    <g id="copper0">
     <circle cx="5.04" cy="5.04" stroke="white" id="connector0pin" fill="white" r="2.088" stroke-width="2.16"/>
     <circle cx="5.04" cy="12.24" stroke="white" id="connector1pin" fill="white" r="2.088" stroke-width="2.16"/>
    </g>
   </g>
  </g>
  <g partID="324610">
   <g transform="translate(254.758,77.9981)">
    <g transform="matrix(2.22045e-16,1,-1,2.22045e-16,0,0)">
     <g id="copper0">
      <g id="copper1">
       <!-- <rect width="55" x="10" y="15.5" fill="none" height="55" stroke="rgb(255, 191, 0)" stroke-width="20" />  -->
       <circle cx="2.7" cy="3.096" stroke="white" id="connector0pin" fill="white" r="1.98" stroke-width="2.16"/>
       <circle cx="31.5" cy="3.096" stroke="white" id="connector1pin" fill="white" r="1.98" stroke-width="2.16"/>
      </g>
     </g>
    </g>
   </g>
  </g>
  <g partID="345230">
   <g transform="translate(151.582,90.0581)">
    <g transform="matrix(0,-1,1,0,0,0)">
     <g id="copper0">
      <circle cx="5.04" cy="5.04" stroke="white" id="connector0pin" fill="white" r="2.088" stroke-width="2.16"/>
      <circle cx="5.04" cy="12.24" stroke="white" id="connector1pin" fill="white" r="2.088" stroke-width="2.16"/>
     </g>
    </g>
   </g>
  </g>
  <g partID="885350">
   <g transform="translate(117.922,130.918)">
    <g transform="matrix(-2.22045e-16,-1,1,-2.22045e-16,0,0)">
     <g id="copper0">
      <g id="copper1">
       <!-- <rect width="55" x="10" y="10" fill="none" height="55" stroke="rgb(255, 191, 0)" stroke-width="20" /> -->
       <circle cx="2.7" cy="2.7" stroke="white" id="connector0pin" fill="white" r="1.98" stroke-width="2.16"/>
       <circle cx="24.3" cy="2.7" stroke="white" id="connector1pin" fill="white" r="1.98" stroke-width="2.16"/>
      </g>
     </g>
    </g>
   </g>
  </g>
  <g partID="885330">
   <g transform="translate(110.326,135.238)">
    <g transform="matrix(-2.22045e-16,-1,1,-2.22045e-16,0,0)">
     <g id="copper0">
      <g id="copper1">
       <!-- <rect width="55" x="10" y="15.5" fill="none" height="55" stroke="rgb(255, 191, 0)" stroke-width="20" />  -->
       <circle cx="2.7" cy="3.096" stroke="white" id="connector0pin" fill="white" r="1.98" stroke-width="2.16"/>
       <circle cx="31.5" cy="3.096" stroke="white" id="connector1pin" fill="white" r="1.98" stroke-width="2.16"/>
      </g>
     </g>
    </g>
   </g>
  </g>
  <g partID="885310">
   <g transform="translate(103.522,130.918)">
    <g transform="matrix(-2.22045e-16,-1,1,-2.22045e-16,0,0)">
     <g id="copper0">
      <g id="copper1">
       <!-- <rect width="55" x="10" y="10" fill="none" height="55" stroke="rgb(255, 191, 0)" stroke-width="20" /> -->
       <circle cx="2.7" cy="2.7" stroke="white" id="connector0pin" fill="white" r="1.98" stroke-width="2.16"/>
       <circle cx="24.3" cy="2.7" stroke="white" id="connector1pin" fill="white" r="1.98" stroke-width="2.16"/>
      </g>
     </g>
    </g>
   </g>
  </g>
  <g partID="885290">
   <g transform="translate(95.9258,135.238)">
    <g transform="matrix(-2.22045e-16,-1,1,-2.22045e-16,0,0)">
     <g id="copper0">
      <g id="copper1">
       <!-- <rect width="55" x="10" y="15.5" fill="none" height="55" stroke="rgb(255, 191, 0)" stroke-width="20" />  -->
       <circle cx="2.7" cy="3.096" stroke="white" id="connector0pin" fill="white" r="1.98" stroke-width="2.16"/>
       <circle cx="31.5" cy="3.096" stroke="white" id="connector1pin" fill="white" r="1.98" stroke-width="2.16"/>
      </g>
     </g>
    </g>
   </g>
  </g>
  <g partID="885270">
   <g transform="translate(89.1218,130.918)">
    <g transform="matrix(-2.22045e-16,-1,1,-2.22045e-16,0,0)">
     <g id="copper0">
      <g id="copper1">
       <!-- <rect width="55" x="10" y="10" fill="none" height="55" stroke="rgb(255, 191, 0)" stroke-width="20" /> -->
       <circle cx="2.7" cy="2.7" stroke="white" id="connector0pin" fill="white" r="1.98" stroke-width="2.16"/>
       <circle cx="24.3" cy="2.7" stroke="white" id="connector1pin" fill="white" r="1.98" stroke-width="2.16"/>
      </g>
     </g>
    </g>
   </g>
  </g>
  <g partID="885250">
   <g transform="translate(81.5258,135.238)">
    <g transform="matrix(-2.22045e-16,-1,1,-2.22045e-16,0,0)">
     <g id="copper0">
      <g id="copper1">
       <!-- <rect width="55" x="10" y="15.5" fill="none" height="55" stroke="rgb(255, 191, 0)" stroke-width="20" />  -->
       <circle cx="2.7" cy="3.096" stroke="white" id="connector0pin" fill="white" r="1.98" stroke-width="2.16"/>
       <circle cx="31.5" cy="3.096" stroke="white" id="connector1pin" fill="white" r="1.98" stroke-width="2.16"/>
      </g>
     </g>
    </g>
   </g>
  </g>
  <g partID="885230">
   <g transform="translate(74.7218,130.918)">
    <g transform="matrix(-2.22045e-16,-1,1,-2.22045e-16,0,0)">
     <g id="copper0">
      <g id="copper1">
       <!-- <rect width="55" x="10" y="10" fill="none" height="55" stroke="rgb(255, 191, 0)" stroke-width="20" /> -->
       <circle cx="2.7" cy="2.7" stroke="white" id="connector0pin" fill="white" r="1.98" stroke-width="2.16"/>
       <circle cx="24.3" cy="2.7" stroke="white" id="connector1pin" fill="white" r="1.98" stroke-width="2.16"/>
      </g>
     </g>
    </g>
   </g>
  </g>
  <g partID="885210">
   <g transform="translate(67.1258,135.238)">
    <g transform="matrix(-2.22045e-16,-1,1,-2.22045e-16,0,0)">
     <g id="copper0">
      <g id="copper1">
       <!-- <rect width="55" x="10" y="15.5" fill="none" height="55" stroke="rgb(255, 191, 0)" stroke-width="20" />  -->
       <circle cx="2.7" cy="3.096" stroke="white" id="connector0pin" fill="white" r="1.98" stroke-width="2.16"/>
       <circle cx="31.5" cy="3.096" stroke="white" id="connector1pin" fill="white" r="1.98" stroke-width="2.16"/>
      </g>
     </g>
    </g>
   </g>
  </g>
  <g partID="881460">
   <g transform="translate(60.3218,130.918)">
    <g transform="matrix(-2.22045e-16,-1,1,-2.22045e-16,0,0)">
     <g id="copper0">
      <g id="copper1">
       <!-- <rect width="55" x="10" y="10" fill="none" height="55" stroke="rgb(255, 191, 0)" stroke-width="20" /> -->
       <circle cx="2.7" cy="2.7" stroke="white" id="connector0pin" fill="white" r="1.98" stroke-width="2.16"/>
       <circle cx="24.3" cy="2.7" stroke="white" id="connector1pin" fill="white" r="1.98" stroke-width="2.16"/>
      </g>
     </g>
    </g>
   </g>
  </g>
  <g partID="879330">
   <g transform="translate(52.7258,135.238)">
    <g transform="matrix(-2.22045e-16,-1,1,-2.22045e-16,0,0)">
     <g id="copper0">
      <g id="copper1">
       <!-- <rect width="55" x="10" y="15.5" fill="none" height="55" stroke="rgb(255, 191, 0)" stroke-width="20" />  -->
       <circle cx="2.7" cy="3.096" stroke="white" id="connector0pin" fill="white" r="1.98" stroke-width="2.16"/>
       <circle cx="31.5" cy="3.096" stroke="white" id="connector1pin" fill="white" r="1.98" stroke-width="2.16"/>
      </g>
     </g>
    </g>
   </g>
  </g>
  <g partID="307920">
   <g transform="translate(121.742,45.3063)">
    <g transform="matrix(0.962591,0.270958,-0.270958,0.962591,0,0)">
     <g id="copper0">
      <g id="copper1">
       <!-- <rect width="55" x="10" y="15.5" fill="none" height="55" stroke="rgb(255, 191, 0)" stroke-width="20" />  -->
       <circle cx="2.7" cy="3.096" stroke="white" id="connector0pin" fill="white" r="1.98" stroke-width="2.16"/>
       <circle cx="31.5" cy="3.096" stroke="white" id="connector1pin" fill="white" r="1.98" stroke-width="2.16"/>
      </g>
     </g>
    </g>
   </g>
  </g>
  <g partID="307900">
   <g transform="translate(201.442,30.9461)">
    <g transform="matrix(1,-1.11022e-16,1.11022e-16,1,0,0)">
     <g id="copper0">
      <g id="copper1">
       <!-- <rect width="55" x="10" y="23.5" fill="none" height="55" stroke="rgb(255, 191, 0)" stroke-width="20" /> -->
       <circle cx="2.7" cy="3.672" stroke="white" id="connector0pin" fill="white" r="1.98" stroke-width="2.16"/>
       <circle cx="38.7" cy="3.672" stroke="white" id="connector1pin" fill="white" r="1.98" stroke-width="2.16"/>
      </g>
     </g>
    </g>
   </g>
  </g>
  <g partID="307880">
   <g transform="translate(240.358,72.2381)">
    <g transform="matrix(0,1,-1,0,0,0)">
     <g id="copper0">
      <g id="copper1">
       <!-- <rect width="55" x="10" y="15.5" fill="none" height="55" stroke="rgb(255, 191, 0)" stroke-width="20" />  -->
       <circle cx="2.7" cy="3.096" stroke="white" id="connector0pin" fill="white" r="1.98" stroke-width="2.16"/>
       <circle cx="31.5" cy="3.096" stroke="white" id="connector1pin" fill="white" r="1.98" stroke-width="2.16"/>
      </g>
     </g>
    </g>
   </g>
  </g>
  <g partID="307860">
   <g transform="translate(233.158,77.9981)">
    <g transform="matrix(0,1,-1,0,0,0)">
     <g id="copper0">
      <g id="copper1">
       <!-- <rect width="55" x="10" y="15.5" fill="none" height="55" stroke="rgb(255, 191, 0)" stroke-width="20" />  -->
       <circle cx="2.7" cy="3.096" stroke="white" id="connector0pin" fill="white" r="1.98" stroke-width="2.16"/>
       <circle cx="31.5" cy="3.096" stroke="white" id="connector1pin" fill="white" r="1.98" stroke-width="2.16"/>
      </g>
     </g>
    </g>
   </g>
  </g>
  <g partID="307840">
   <g transform="translate(225.958,72.2381)">
    <g transform="matrix(0,1,-1,0,0,0)">
     <g id="copper0">
      <g id="copper1">
       <!-- <rect width="55" x="10" y="15.5" fill="none" height="55" stroke="rgb(255, 191, 0)" stroke-width="20" />  -->
       <circle cx="2.7" cy="3.096" stroke="white" id="connector0pin" fill="white" r="1.98" stroke-width="2.16"/>
       <circle cx="31.5" cy="3.096" stroke="white" id="connector1pin" fill="white" r="1.98" stroke-width="2.16"/>
      </g>
     </g>
    </g>
   </g>
  </g>
  <g partID="307820">
   <g transform="translate(218.758,77.9981)">
    <g transform="matrix(0,1,-1,0,0,0)">
     <g id="copper0">
      <g id="copper1">
       <!-- <rect width="55" x="10" y="15.5" fill="none" height="55" stroke="rgb(255, 191, 0)" stroke-width="20" />  -->
       <circle cx="2.7" cy="3.096" stroke="white" id="connector0pin" fill="white" r="1.98" stroke-width="2.16"/>
       <circle cx="31.5" cy="3.096" stroke="white" id="connector1pin" fill="white" r="1.98" stroke-width="2.16"/>
      </g>
     </g>
    </g>
   </g>
  </g>
  <g partID="307800">
   <g transform="translate(211.558,72.2381)">
    <g transform="matrix(0,1,-1,0,0,0)">
     <g id="copper0">
      <g id="copper1">
       <!-- <rect width="55" x="10" y="15.5" fill="none" height="55" stroke="rgb(255, 191, 0)" stroke-width="20" />  -->
       <circle cx="2.7" cy="3.096" stroke="white" id="connector0pin" fill="white" r="1.98" stroke-width="2.16"/>
       <circle cx="31.5" cy="3.096" stroke="white" id="connector1pin" fill="white" r="1.98" stroke-width="2.16"/>
      </g>
     </g>
    </g>
   </g>
  </g>
  <g partID="307780">
   <g transform="translate(204.358,77.9981)">
    <g transform="matrix(0,1,-1,0,0,0)">
     <g id="copper0">
      <g id="copper1">
       <!-- <rect width="55" x="10" y="15.5" fill="none" height="55" stroke="rgb(255, 191, 0)" stroke-width="20" />  -->
       <circle cx="2.7" cy="3.096" stroke="white" id="connector0pin" fill="white" r="1.98" stroke-width="2.16"/>
       <circle cx="31.5" cy="3.096" stroke="white" id="connector1pin" fill="white" r="1.98" stroke-width="2.16"/>
      </g>
     </g>
    </g>
   </g>
  </g>
  <g partID="307720">
   <g transform="translate(197.158,72.2381)">
    <g transform="matrix(0,1,-1,0,0,0)">
     <g id="copper0">
      <g id="copper1">
       <!-- <rect width="55" x="10" y="15.5" fill="none" height="55" stroke="rgb(255, 191, 0)" stroke-width="20" />  -->
       <circle cx="2.7" cy="3.096" stroke="white" id="connector0pin" fill="white" r="1.98" stroke-width="2.16"/>
       <circle cx="31.5" cy="3.096" stroke="white" id="connector1pin" fill="white" r="1.98" stroke-width="2.16"/>
      </g>
     </g>
    </g>
   </g>
  </g>
  <g partID="939540">
   <g transform="translate(256.702,115.978)">
    <g transform="matrix(0,1,-1,0,0,0)">
     <g id="copper0">
      <circle cx="5.04" cy="5.04" stroke="white" id="connector0pin" fill="white" r="2.27905" stroke-width="2.16"/>
      <circle cx="5.04" cy="12.24" stroke="white" id="connector1pin" fill="white" r="2.27905" stroke-width="2.16"/>
      <circle cx="5.04" cy="19.44" stroke="white" id="connector2pin" fill="white" r="2.27905" stroke-width="2.16"/>
      <circle cx="5.04" cy="26.64" stroke="white" id="connector3pin" fill="white" r="2.27905" stroke-width="2.16"/>
      <circle cx="5.04" cy="33.84" stroke="white" id="connector4pin" fill="white" r="2.27905" stroke-width="2.16"/>
      <circle cx="5.04" cy="41.04" stroke="white" id="connector5pin" fill="white" r="2.27905" stroke-width="2.16"/>
      <circle cx="5.04" cy="48.24" stroke="white" id="connector6pin" fill="white" r="2.27905" stroke-width="2.16"/>
      <circle cx="5.04" cy="55.44" stroke="white" id="connector7pin" fill="white" r="2.27905" stroke-width="2.16"/>
      <circle cx="5.04" cy="62.64" stroke="white" id="connector8pin" fill="white" r="2.27905" stroke-width="2.16"/>
      <circle cx="5.04" cy="69.84" stroke="white" id="connector9pin" fill="white" r="2.27905" stroke-width="2.16"/>
     </g>
    </g>
   </g>
  </g>
  <g partID="307560">
   <g transform="translate(192.622,70.6181)">
    <g transform="matrix(0,-1,1,0,0,0)">
     <g id="copper0">
      <rect y="2.34" width="3.96" stroke="white" id="square" height="3.96" fill="white" x="2.34" stroke-width="2.16"/>
      <circle cx="4.32" cy="4.32" stroke="white" id="connector0pin" fill="white" r="1.98" stroke-width="2.16"/>
      <circle cx="25.92" cy="4.32" stroke="white" id="connector15pin" fill="white" r="1.98" stroke-width="2.16"/>
      <circle cx="4.32" cy="11.52" stroke="white" id="connector1pin" fill="white" r="1.98" stroke-width="2.16"/>
      <circle cx="25.92" cy="11.52" stroke="white" id="connector14pin" fill="white" r="1.98" stroke-width="2.16"/>
      <circle cx="4.32" cy="18.72" stroke="white" id="connector2pin" fill="white" r="1.98" stroke-width="2.16"/>
      <circle cx="25.92" cy="18.72" stroke="white" id="connector13pin" fill="white" r="1.98" stroke-width="2.16"/>
      <circle cx="4.32" cy="25.92" stroke="white" id="connector3pin" fill="white" r="1.98" stroke-width="2.16"/>
      <circle cx="25.92" cy="25.92" stroke="white" id="connector12pin" fill="white" r="1.98" stroke-width="2.16"/>
      <circle cx="4.32" cy="33.12" stroke="white" id="connector4pin" fill="white" r="1.98" stroke-width="2.16"/>
      <circle cx="25.92" cy="33.12" stroke="white" id="connector11pin" fill="white" r="1.98" stroke-width="2.16"/>
      <circle cx="4.32" cy="40.32" stroke="white" id="connector5pin" fill="white" r="1.98" stroke-width="2.16"/>
      <circle cx="25.92" cy="40.32" stroke="white" id="connector10pin" fill="white" r="1.98" stroke-width="2.16"/>
      <circle cx="4.32" cy="47.52" stroke="white" id="connector6pin" fill="white" r="1.98" stroke-width="2.16"/>
      <circle cx="25.92" cy="47.52" stroke="white" id="connector9pin" fill="white" r="1.98" stroke-width="2.16"/>
      <circle cx="4.32" cy="54.72" stroke="white" id="connector7pin" fill="white" r="1.98" stroke-width="2.16"/>
      <circle cx="25.92" cy="54.72" stroke="white" id="connector8pin" fill="white" r="1.98" stroke-width="2.16"/>
     </g>
    </g>
   </g>
  </g>
  <g partID="419260">
   <g transform="translate(164.542,28.1381)">
    <g transform="matrix(0,1,-1,0,0,0)">
     <g id="copper0">
      <circle cx="3.6" cy="10.8" stroke="white" id="connector16pad" fill="white" r="1.908" stroke-width="1.944"/>
      <rect y="8.892" width="3.814" stroke="white" height="3.816" fill="white" x="1.692" stroke-width="1.944"/>
      <circle cx="3.6" cy="18" stroke="white" id="connector17pad" fill="white" r="1.908" stroke-width="1.944"/>
      <circle cx="3.6" cy="25.2" stroke="white" id="connector18pad" fill="white" r="1.908" stroke-width="1.944"/>
      <circle cx="3.6" cy="32.4" stroke="white" id="connector19pad" fill="white" r="1.908" stroke-width="1.944"/>
      <circle cx="3.6" cy="39.6" stroke="white" id="connector20pad" fill="white" r="1.908" stroke-width="1.944"/>
      <circle cx="3.6" cy="46.8" stroke="white" id="connector21pad" fill="white" r="1.908" stroke-width="1.944"/>
      <circle cx="3.6" cy="54" stroke="white" id="connector22pad" fill="white" r="1.908" stroke-width="1.944"/>
      <circle cx="3.6" cy="61.2" stroke="white" id="connector23pad" fill="white" r="1.908" stroke-width="1.944"/>
      <circle cx="3.6" cy="68.4" stroke="white" id="connector24pad" fill="white" r="1.908" stroke-width="1.944"/>
      <circle cx="3.6" cy="75.6" stroke="white" id="connector25pad" fill="white" r="1.908" stroke-width="1.944"/>
      <circle cx="3.6" cy="82.8" stroke="white" id="connector26pad" fill="white" r="1.908" stroke-width="1.944"/>
      <circle cx="3.6" cy="90" stroke="white" id="connector27pad" fill="white" r="1.908" stroke-width="1.944"/>
      <circle cx="3.6" cy="97.2" stroke="white" id="connector28pad" fill="white" r="1.908" stroke-width="1.944"/>
      <circle cx="3.6" cy="104.4" stroke="white" id="connector29pad" fill="white" r="1.908" stroke-width="1.944"/>
      <circle cx="3.6" cy="111.6" stroke="white" id="connector30pad" fill="white" r="1.908" stroke-width="1.944"/>
      <circle cx="46.8" cy="10.8" stroke="white" id="connector31pad" fill="white" r="1.908" stroke-width="1.944"/>
      <circle cx="46.8" cy="18" stroke="white" id="connector32pad" fill="white" r="1.908" stroke-width="1.944"/>
      <circle cx="46.8" cy="25.2" stroke="white" id="connector33pad" fill="white" r="1.908" stroke-width="1.944"/>
      <circle cx="46.8" cy="32.4" stroke="white" id="connector34pad" fill="white" r="1.908" stroke-width="1.944"/>
      <circle cx="46.8" cy="39.6" stroke="white" id="connector35pad" fill="white" r="1.908" stroke-width="1.944"/>
      <circle cx="46.8" cy="46.8" stroke="white" id="connector36pad" fill="white" r="1.908" stroke-width="1.944"/>
      <circle cx="46.8" cy="54" stroke="white" id="connector37pad" fill="white" r="1.908" stroke-width="1.944"/>
      <circle cx="46.8" cy="61.2" stroke="white" id="connector38pad" fill="white" r="1.908" stroke-width="1.944"/>
      <circle cx="46.8" cy="68.4" stroke="white" id="connector39pad" fill="white" r="1.908" stroke-width="1.944"/>
      <circle cx="46.8" cy="75.6" stroke="white" id="connector40pad" fill="white" r="1.908" stroke-width="1.944"/>
      <circle cx="46.8" cy="82.8" stroke="white" id="connector41pad" fill="white" r="1.908" stroke-width="1.944"/>
      <circle cx="46.8" cy="90" stroke="white" id="connector42pad" fill="white" r="1.908" stroke-width="1.944"/>
      <circle cx="46.8" cy="97.2" stroke="white" id="connector43pad" fill="white" r="1.908" stroke-width="1.944"/>
      <circle cx="46.8" cy="104.4" stroke="white" id="connector44pad" fill="white" r="1.908" stroke-width="1.944"/>
      <circle cx="46.8" cy="111.6" stroke="white" id="connector45pad" fill="white" r="1.908" stroke-width="1.944"/>
     </g>
    </g>
   </g>
  </g>
 </g>
</svg>
