<?xml version='1.0' encoding='UTF-8' standalone='no'?>
<!-- Created with Fritzing (http://www.fritzing.org/) -->
<svg xmlns="http://www.w3.org/2000/svg"  y="0in" baseProfile="tiny" height="1.9685in" x="0in" width="3.93701in" xmlns:svg="http://www.w3.org/2000/svg" viewBox="0 0 283.465 141.732" version="1.2">
 <g partID="313442">
  <g id="silkscreen0">
   <rect y="0.288" height="141.156" stroke-width="0.576" width="282.889" x="0.288" fill="none" stroke="black"/>
  </g>
 </g>
 <g partID="313440">
  <g id="board">
   <rect y="0.288" height="141.156" stroke-width="0.5" width="282.889" x="0.288" fill="none" id="boardoutline" fill-opacity="0.5" stroke="black"/>
  </g>
 </g>
 <g partID="313442">
  <g id="silkscreen0">
   <rect y="0.288" height="141.156" stroke-width="0.576" width="282.889" x="0.288" fill="none" stroke="black"/>
  </g>
 </g>
 <g partID="931540">
  <g transform="translate(84.5074,51.7834)">
   <g id="copper0">
    <circle stroke-width="0.72" fill="white" cy="4.43465" r="2.83465" cx="4.43465" id="nonconn0" stroke="white"/>
   </g>
  </g>
 </g>
 <g partID="859370">
  <g transform="translate(40.2387,36.4442)">
   <g transform="matrix(0.911029,0.412342,-0.412342,0.911029,0,0)">
    <g id="copper0">
     <g id="copper1">
      <!-- <rect width="55" x="10" y="15.5" fill="none" height="55" stroke="rgb(255, 191, 0)" stroke-width="20" />  -->
      <circle stroke-width="2.16" fill="white" cy="3.096" r="1.98" cx="2.7" id="connector0pin" stroke="white"/>
      <circle stroke-width="2.16" fill="white" cy="3.096" r="1.98" cx="31.5" id="connector1pin" stroke="white"/>
     </g>
    </g>
   </g>
  </g>
 </g>
 <g partID="940380">
  <g transform="translate(164.542,97.2581)">
   <g transform="matrix(0,1,-1,0,0,0)">
    <g id="copper0">
     <circle stroke-width="2.16" fill="white" cy="5.04" r="2.088" cx="5.04" id="connector0pin" stroke="white"/>
     <circle stroke-width="2.16" fill="white" cy="12.24" r="2.088" cx="5.04" id="connector1pin" stroke="white"/>
    </g>
   </g>
  </g>
 </g>
 <g partID="426140">
  <g transform="translate(7.94904,115.625)">
   <g id="copper0">
    <circle stroke-width="0.72" fill="white" cy="7.55273" r="5.95276" cx="7.55273" id="nonconn0" stroke="white"/>
   </g>
  </g>
 </g>
 <g partID="426130">
  <g transform="translate(263.549,115.625)">
   <g id="copper0">
    <circle stroke-width="0.72" fill="white" cy="7.55273" r="5.95276" cx="7.55273" id="nonconn0" stroke="white"/>
   </g>
  </g>
 </g>
 <g partID="426110">
  <g transform="translate(7.94904,5.46532)">
   <g id="copper0">
    <circle stroke-width="0.72" fill="white" cy="7.55273" r="5.95276" cx="7.55273" id="nonconn0" stroke="white"/>
   </g>
  </g>
 </g>
 <g partID="426080">
  <g transform="translate(263.549,5.46531)">
   <g id="copper0">
    <circle stroke-width="0.72" fill="white" cy="7.55273" r="5.95276" cx="7.55273" id="nonconn0" stroke="white"/>
   </g>
  </g>
 </g>
 <g partID="940340">
  <g transform="translate(50.7818,100.138)">
   <g transform="matrix(0,-1,1,0,0,0)">
    <g id="copper0">
     <circle stroke-width="2.16" fill="white" cy="5.04" r="2.088" cx="5.04" id="connector0pin" stroke="white"/>
     <circle stroke-width="2.16" fill="white" cy="12.24" r="2.088" cx="5.04" id="connector1pin" stroke="white"/>
     <circle stroke-width="2.16" fill="white" cy="19.44" r="2.088" cx="5.04" id="connector2pin" stroke="white"/>
     <circle stroke-width="2.16" fill="white" cy="26.64" r="2.088" cx="5.04" id="connector3pin" stroke="white"/>
     <circle stroke-width="2.16" fill="white" cy="33.84" r="2.088" cx="5.04" id="connector4pin" stroke="white"/>
     <circle stroke-width="2.16" fill="white" cy="41.04" r="2.088" cx="5.04" id="connector5pin" stroke="white"/>
     <circle stroke-width="2.16" fill="white" cy="48.24" r="2.088" cx="5.04" id="connector6pin" stroke="white"/>
     <circle stroke-width="2.16" fill="white" cy="55.44" r="2.088" cx="5.04" id="connector7pin" stroke="white"/>
     <circle stroke-width="2.16" fill="white" cy="62.64" r="2.088" cx="5.04" id="connector8pin" stroke="white"/>
     <circle stroke-width="2.16" fill="white" cy="69.84" r="2.088" cx="5.04" id="connector9pin" stroke="white"/>
    </g>
   </g>
  </g>
 </g>
 <g partID="940420">
  <g transform="translate(173.182,52.6181)">
   <g id="copper0">
    <circle stroke-width="2.16" fill="white" cy="5.04" r="2.088" cx="5.04" id="connector0pin" stroke="white"/>
    <circle stroke-width="2.16" fill="white" cy="12.24" r="2.088" cx="5.04" id="connector1pin" stroke="white"/>
   </g>
  </g>
 </g>
 <g partID="324610">
  <g transform="translate(254.758,77.9981)">
   <g transform="matrix(2.22045e-16,1,-1,2.22045e-16,0,0)">
    <g id="copper0">
     <g id="copper1">
      <!-- <rect width="55" x="10" y="15.5" fill="none" height="55" stroke="rgb(255, 191, 0)" stroke-width="20" />  -->
      <circle stroke-width="2.16" fill="white" cy="3.096" r="1.98" cx="2.7" id="connector0pin" stroke="white"/>
      <circle stroke-width="2.16" fill="white" cy="3.096" r="1.98" cx="31.5" id="connector1pin" stroke="white"/>
     </g>
    </g>
   </g>
  </g>
 </g>
 <g partID="940400">
  <g transform="translate(151.582,90.0581)">
   <g transform="matrix(0,-1,1,0,0,0)">
    <g id="copper0">
     <circle stroke-width="2.16" fill="white" cy="5.04" r="2.088" cx="5.04" id="connector0pin" stroke="white"/>
     <circle stroke-width="2.16" fill="white" cy="12.24" r="2.088" cx="5.04" id="connector1pin" stroke="white"/>
    </g>
   </g>
  </g>
 </g>
 <g partID="885350">
  <g transform="translate(117.922,130.918)">
   <g transform="matrix(-2.22045e-16,-1,1,-2.22045e-16,0,0)">
    <g id="copper0">
     <g id="copper1">
      <!-- <rect width="55" x="10" y="10" fill="none" height="55" stroke="rgb(255, 191, 0)" stroke-width="20" /> -->
      <circle stroke-width="2.16" fill="white" cy="2.7" r="1.98" cx="2.7" id="connector0pin" stroke="white"/>
      <circle stroke-width="2.16" fill="white" cy="2.7" r="1.98" cx="24.3" id="connector1pin" stroke="white"/>
     </g>
    </g>
   </g>
  </g>
 </g>
 <g partID="885330">
  <g transform="translate(110.326,135.238)">
   <g transform="matrix(-2.22045e-16,-1,1,-2.22045e-16,0,0)">
    <g id="copper0">
     <g id="copper1">
      <!-- <rect width="55" x="10" y="15.5" fill="none" height="55" stroke="rgb(255, 191, 0)" stroke-width="20" />  -->
      <circle stroke-width="2.16" fill="white" cy="3.096" r="1.98" cx="2.7" id="connector0pin" stroke="white"/>
      <circle stroke-width="2.16" fill="white" cy="3.096" r="1.98" cx="31.5" id="connector1pin" stroke="white"/>
     </g>
    </g>
   </g>
  </g>
 </g>
 <g partID="885310">
  <g transform="translate(103.522,130.918)">
   <g transform="matrix(-2.22045e-16,-1,1,-2.22045e-16,0,0)">
    <g id="copper0">
     <g id="copper1">
      <!-- <rect width="55" x="10" y="10" fill="none" height="55" stroke="rgb(255, 191, 0)" stroke-width="20" /> -->
      <circle stroke-width="2.16" fill="white" cy="2.7" r="1.98" cx="2.7" id="connector0pin" stroke="white"/>
      <circle stroke-width="2.16" fill="white" cy="2.7" r="1.98" cx="24.3" id="connector1pin" stroke="white"/>
     </g>
    </g>
   </g>
  </g>
 </g>
 <g partID="885290">
  <g transform="translate(95.9258,135.238)">
   <g transform="matrix(-2.22045e-16,-1,1,-2.22045e-16,0,0)">
    <g id="copper0">
     <g id="copper1">
      <!-- <rect width="55" x="10" y="15.5" fill="none" height="55" stroke="rgb(255, 191, 0)" stroke-width="20" />  -->
      <circle stroke-width="2.16" fill="white" cy="3.096" r="1.98" cx="2.7" id="connector0pin" stroke="white"/>
      <circle stroke-width="2.16" fill="white" cy="3.096" r="1.98" cx="31.5" id="connector1pin" stroke="white"/>
     </g>
    </g>
   </g>
  </g>
 </g>
 <g partID="885270">
  <g transform="translate(89.1218,130.918)">
   <g transform="matrix(-2.22045e-16,-1,1,-2.22045e-16,0,0)">
    <g id="copper0">
     <g id="copper1">
      <!-- <rect width="55" x="10" y="10" fill="none" height="55" stroke="rgb(255, 191, 0)" stroke-width="20" /> -->
      <circle stroke-width="2.16" fill="white" cy="2.7" r="1.98" cx="2.7" id="connector0pin" stroke="white"/>
      <circle stroke-width="2.16" fill="white" cy="2.7" r="1.98" cx="24.3" id="connector1pin" stroke="white"/>
     </g>
    </g>
   </g>
  </g>
 </g>
 <g partID="885250">
  <g transform="translate(81.5258,135.238)">
   <g transform="matrix(-2.22045e-16,-1,1,-2.22045e-16,0,0)">
    <g id="copper0">
     <g id="copper1">
      <!-- <rect width="55" x="10" y="15.5" fill="none" height="55" stroke="rgb(255, 191, 0)" stroke-width="20" />  -->
      <circle stroke-width="2.16" fill="white" cy="3.096" r="1.98" cx="2.7" id="connector0pin" stroke="white"/>
      <circle stroke-width="2.16" fill="white" cy="3.096" r="1.98" cx="31.5" id="connector1pin" stroke="white"/>
     </g>
    </g>
   </g>
  </g>
 </g>
 <g partID="885230">
  <g transform="translate(74.7218,130.918)">
   <g transform="matrix(-2.22045e-16,-1,1,-2.22045e-16,0,0)">
    <g id="copper0">
     <g id="copper1">
      <!-- <rect width="55" x="10" y="10" fill="none" height="55" stroke="rgb(255, 191, 0)" stroke-width="20" /> -->
      <circle stroke-width="2.16" fill="white" cy="2.7" r="1.98" cx="2.7" id="connector0pin" stroke="white"/>
      <circle stroke-width="2.16" fill="white" cy="2.7" r="1.98" cx="24.3" id="connector1pin" stroke="white"/>
     </g>
    </g>
   </g>
  </g>
 </g>
 <g partID="885210">
  <g transform="translate(67.1258,135.238)">
   <g transform="matrix(-2.22045e-16,-1,1,-2.22045e-16,0,0)">
    <g id="copper0">
     <g id="copper1">
      <!-- <rect width="55" x="10" y="15.5" fill="none" height="55" stroke="rgb(255, 191, 0)" stroke-width="20" />  -->
      <circle stroke-width="2.16" fill="white" cy="3.096" r="1.98" cx="2.7" id="connector0pin" stroke="white"/>
      <circle stroke-width="2.16" fill="white" cy="3.096" r="1.98" cx="31.5" id="connector1pin" stroke="white"/>
     </g>
    </g>
   </g>
  </g>
 </g>
 <g partID="881460">
  <g transform="translate(60.3218,130.918)">
   <g transform="matrix(-2.22045e-16,-1,1,-2.22045e-16,0,0)">
    <g id="copper0">
     <g id="copper1">
      <!-- <rect width="55" x="10" y="10" fill="none" height="55" stroke="rgb(255, 191, 0)" stroke-width="20" /> -->
      <circle stroke-width="2.16" fill="white" cy="2.7" r="1.98" cx="2.7" id="connector0pin" stroke="white"/>
      <circle stroke-width="2.16" fill="white" cy="2.7" r="1.98" cx="24.3" id="connector1pin" stroke="white"/>
     </g>
    </g>
   </g>
  </g>
 </g>
 <g partID="879330">
  <g transform="translate(52.7258,135.238)">
   <g transform="matrix(-2.22045e-16,-1,1,-2.22045e-16,0,0)">
    <g id="copper0">
     <g id="copper1">
      <!-- <rect width="55" x="10" y="15.5" fill="none" height="55" stroke="rgb(255, 191, 0)" stroke-width="20" />  -->
      <circle stroke-width="2.16" fill="white" cy="3.096" r="1.98" cx="2.7" id="connector0pin" stroke="white"/>
      <circle stroke-width="2.16" fill="white" cy="3.096" r="1.98" cx="31.5" id="connector1pin" stroke="white"/>
     </g>
    </g>
   </g>
  </g>
 </g>
 <g partID="307920">
  <g transform="translate(121.742,45.3063)">
   <g transform="matrix(0.962591,0.270958,-0.270958,0.962591,0,0)">
    <g id="copper0">
     <g id="copper1">
      <!-- <rect width="55" x="10" y="15.5" fill="none" height="55" stroke="rgb(255, 191, 0)" stroke-width="20" />  -->
      <circle stroke-width="2.16" fill="white" cy="3.096" r="1.98" cx="2.7" id="connector0pin" stroke="white"/>
      <circle stroke-width="2.16" fill="white" cy="3.096" r="1.98" cx="31.5" id="connector1pin" stroke="white"/>
     </g>
    </g>
   </g>
  </g>
 </g>
 <g partID="307900">
  <g transform="translate(201.442,30.9461)">
   <g transform="matrix(1,-1.11022e-16,1.11022e-16,1,0,0)">
    <g id="copper0">
     <g id="copper1">
      <!-- <rect width="55" x="10" y="23.5" fill="none" height="55" stroke="rgb(255, 191, 0)" stroke-width="20" /> -->
      <circle stroke-width="2.16" fill="white" cy="3.672" r="1.98" cx="2.7" id="connector0pin" stroke="white"/>
      <circle stroke-width="2.16" fill="white" cy="3.672" r="1.98" cx="38.7" id="connector1pin" stroke="white"/>
     </g>
    </g>
   </g>
  </g>
 </g>
 <g partID="307880">
  <g transform="translate(240.358,72.2381)">
   <g transform="matrix(0,1,-1,0,0,0)">
    <g id="copper0">
     <g id="copper1">
      <!-- <rect width="55" x="10" y="15.5" fill="none" height="55" stroke="rgb(255, 191, 0)" stroke-width="20" />  -->
      <circle stroke-width="2.16" fill="white" cy="3.096" r="1.98" cx="2.7" id="connector0pin" stroke="white"/>
      <circle stroke-width="2.16" fill="white" cy="3.096" r="1.98" cx="31.5" id="connector1pin" stroke="white"/>
     </g>
    </g>
   </g>
  </g>
 </g>
 <g partID="307860">
  <g transform="translate(233.158,77.9981)">
   <g transform="matrix(0,1,-1,0,0,0)">
    <g id="copper0">
     <g id="copper1">
      <!-- <rect width="55" x="10" y="15.5" fill="none" height="55" stroke="rgb(255, 191, 0)" stroke-width="20" />  -->
      <circle stroke-width="2.16" fill="white" cy="3.096" r="1.98" cx="2.7" id="connector0pin" stroke="white"/>
      <circle stroke-width="2.16" fill="white" cy="3.096" r="1.98" cx="31.5" id="connector1pin" stroke="white"/>
     </g>
    </g>
   </g>
  </g>
 </g>
 <g partID="307840">
  <g transform="translate(225.958,72.2381)">
   <g transform="matrix(0,1,-1,0,0,0)">
    <g id="copper0">
     <g id="copper1">
      <!-- <rect width="55" x="10" y="15.5" fill="none" height="55" stroke="rgb(255, 191, 0)" stroke-width="20" />  -->
      <circle stroke-width="2.16" fill="white" cy="3.096" r="1.98" cx="2.7" id="connector0pin" stroke="white"/>
      <circle stroke-width="2.16" fill="white" cy="3.096" r="1.98" cx="31.5" id="connector1pin" stroke="white"/>
     </g>
    </g>
   </g>
  </g>
 </g>
 <g partID="307820">
  <g transform="translate(218.758,77.9981)">
   <g transform="matrix(0,1,-1,0,0,0)">
    <g id="copper0">
     <g id="copper1">
      <!-- <rect width="55" x="10" y="15.5" fill="none" height="55" stroke="rgb(255, 191, 0)" stroke-width="20" />  -->
      <circle stroke-width="2.16" fill="white" cy="3.096" r="1.98" cx="2.7" id="connector0pin" stroke="white"/>
      <circle stroke-width="2.16" fill="white" cy="3.096" r="1.98" cx="31.5" id="connector1pin" stroke="white"/>
     </g>
    </g>
   </g>
  </g>
 </g>
 <g partID="307800">
  <g transform="translate(211.558,72.2381)">
   <g transform="matrix(0,1,-1,0,0,0)">
    <g id="copper0">
     <g id="copper1">
      <!-- <rect width="55" x="10" y="15.5" fill="none" height="55" stroke="rgb(255, 191, 0)" stroke-width="20" />  -->
      <circle stroke-width="2.16" fill="white" cy="3.096" r="1.98" cx="2.7" id="connector0pin" stroke="white"/>
      <circle stroke-width="2.16" fill="white" cy="3.096" r="1.98" cx="31.5" id="connector1pin" stroke="white"/>
     </g>
    </g>
   </g>
  </g>
 </g>
 <g partID="307780">
  <g transform="translate(204.358,77.9981)">
   <g transform="matrix(0,1,-1,0,0,0)">
    <g id="copper0">
     <g id="copper1">
      <!-- <rect width="55" x="10" y="15.5" fill="none" height="55" stroke="rgb(255, 191, 0)" stroke-width="20" />  -->
      <circle stroke-width="2.16" fill="white" cy="3.096" r="1.98" cx="2.7" id="connector0pin" stroke="white"/>
      <circle stroke-width="2.16" fill="white" cy="3.096" r="1.98" cx="31.5" id="connector1pin" stroke="white"/>
     </g>
    </g>
   </g>
  </g>
 </g>
 <g partID="307720">
  <g transform="translate(197.158,72.2381)">
   <g transform="matrix(0,1,-1,0,0,0)">
    <g id="copper0">
     <g id="copper1">
      <!-- <rect width="55" x="10" y="15.5" fill="none" height="55" stroke="rgb(255, 191, 0)" stroke-width="20" />  -->
      <circle stroke-width="2.16" fill="white" cy="3.096" r="1.98" cx="2.7" id="connector0pin" stroke="white"/>
      <circle stroke-width="2.16" fill="white" cy="3.096" r="1.98" cx="31.5" id="connector1pin" stroke="white"/>
     </g>
    </g>
   </g>
  </g>
 </g>
 <g partID="940360">
  <g transform="translate(256.702,115.978)">
   <g transform="matrix(0,1,-1,0,0,0)">
    <g id="copper0">
     <circle stroke-width="2.16" fill="white" cy="5.04" r="2.27905" cx="5.04" id="connector0pin" stroke="white"/>
     <circle stroke-width="2.16" fill="white" cy="12.24" r="2.27905" cx="5.04" id="connector1pin" stroke="white"/>
     <circle stroke-width="2.16" fill="white" cy="19.44" r="2.27905" cx="5.04" id="connector2pin" stroke="white"/>
     <circle stroke-width="2.16" fill="white" cy="26.64" r="2.27905" cx="5.04" id="connector3pin" stroke="white"/>
     <circle stroke-width="2.16" fill="white" cy="33.84" r="2.27905" cx="5.04" id="connector4pin" stroke="white"/>
     <circle stroke-width="2.16" fill="white" cy="41.04" r="2.27905" cx="5.04" id="connector5pin" stroke="white"/>
     <circle stroke-width="2.16" fill="white" cy="48.24" r="2.27905" cx="5.04" id="connector6pin" stroke="white"/>
     <circle stroke-width="2.16" fill="white" cy="55.44" r="2.27905" cx="5.04" id="connector7pin" stroke="white"/>
     <circle stroke-width="2.16" fill="white" cy="62.64" r="2.27905" cx="5.04" id="connector8pin" stroke="white"/>
     <circle stroke-width="2.16" fill="white" cy="69.84" r="2.27905" cx="5.04" id="connector9pin" stroke="white"/>
    </g>
   </g>
  </g>
 </g>
 <g partID="307560">
  <g transform="translate(192.622,70.6181)">
   <g transform="matrix(0,-1,1,0,0,0)">
    <g id="copper0">
     <rect y="2.34" height="3.96" stroke-width="2.16" width="3.96" x="2.34" fill="white" id="square" stroke="white"/>
     <circle stroke-width="2.16" fill="white" cy="4.32" r="1.98" cx="4.32" id="connector0pin" stroke="white"/>
     <circle stroke-width="2.16" fill="white" cy="4.32" r="1.98" cx="25.92" id="connector15pin" stroke="white"/>
     <circle stroke-width="2.16" fill="white" cy="11.52" r="1.98" cx="4.32" id="connector1pin" stroke="white"/>
     <circle stroke-width="2.16" fill="white" cy="11.52" r="1.98" cx="25.92" id="connector14pin" stroke="white"/>
     <circle stroke-width="2.16" fill="white" cy="18.72" r="1.98" cx="4.32" id="connector2pin" stroke="white"/>
     <circle stroke-width="2.16" fill="white" cy="18.72" r="1.98" cx="25.92" id="connector13pin" stroke="white"/>
     <circle stroke-width="2.16" fill="white" cy="25.92" r="1.98" cx="4.32" id="connector3pin" stroke="white"/>
     <circle stroke-width="2.16" fill="white" cy="25.92" r="1.98" cx="25.92" id="connector12pin" stroke="white"/>
     <circle stroke-width="2.16" fill="white" cy="33.12" r="1.98" cx="4.32" id="connector4pin" stroke="white"/>
     <circle stroke-width="2.16" fill="white" cy="33.12" r="1.98" cx="25.92" id="connector11pin" stroke="white"/>
     <circle stroke-width="2.16" fill="white" cy="40.32" r="1.98" cx="4.32" id="connector5pin" stroke="white"/>
     <circle stroke-width="2.16" fill="white" cy="40.32" r="1.98" cx="25.92" id="connector10pin" stroke="white"/>
     <circle stroke-width="2.16" fill="white" cy="47.52" r="1.98" cx="4.32" id="connector6pin" stroke="white"/>
     <circle stroke-width="2.16" fill="white" cy="47.52" r="1.98" cx="25.92" id="connector9pin" stroke="white"/>
     <circle stroke-width="2.16" fill="white" cy="54.72" r="1.98" cx="4.32" id="connector7pin" stroke="white"/>
     <circle stroke-width="2.16" fill="white" cy="54.72" r="1.98" cx="25.92" id="connector8pin" stroke="white"/>
    </g>
   </g>
  </g>
 </g>
 <g partID="419260">
  <g transform="translate(164.542,28.1381)">
   <g transform="matrix(0,1,-1,0,0,0)">
    <g id="copper0">
     <circle stroke-width="1.944" fill="white" cy="10.8" r="1.908" id="connector16pad" cx="3.6" stroke="white"/>
     <rect y="8.892" height="3.816" x="1.692" stroke-width="1.944" width="3.814" fill="white" stroke="white"/>
     <circle stroke-width="1.944" fill="white" cy="18" r="1.908" id="connector17pad" cx="3.6" stroke="white"/>
     <circle stroke-width="1.944" fill="white" cy="25.2" r="1.908" id="connector18pad" cx="3.6" stroke="white"/>
     <circle stroke-width="1.944" fill="white" cy="32.4" r="1.908" id="connector19pad" cx="3.6" stroke="white"/>
     <circle stroke-width="1.944" fill="white" cy="39.6" r="1.908" id="connector20pad" cx="3.6" stroke="white"/>
     <circle stroke-width="1.944" fill="white" cy="46.8" r="1.908" id="connector21pad" cx="3.6" stroke="white"/>
     <circle stroke-width="1.944" fill="white" cy="54" r="1.908" id="connector22pad" cx="3.6" stroke="white"/>
     <circle stroke-width="1.944" fill="white" cy="61.2" r="1.908" id="connector23pad" cx="3.6" stroke="white"/>
     <circle stroke-width="1.944" fill="white" cy="68.4" r="1.908" id="connector24pad" cx="3.6" stroke="white"/>
     <circle stroke-width="1.944" fill="white" cy="75.6" r="1.908" id="connector25pad" cx="3.6" stroke="white"/>
     <circle stroke-width="1.944" fill="white" cy="82.8" r="1.908" id="connector26pad" cx="3.6" stroke="white"/>
     <circle stroke-width="1.944" fill="white" cy="90" r="1.908" id="connector27pad" cx="3.6" stroke="white"/>
     <circle stroke-width="1.944" fill="white" cy="97.2" r="1.908" id="connector28pad" cx="3.6" stroke="white"/>
     <circle stroke-width="1.944" fill="white" cy="104.4" r="1.908" id="connector29pad" cx="3.6" stroke="white"/>
     <circle stroke-width="1.944" fill="white" cy="111.6" r="1.908" id="connector30pad" cx="3.6" stroke="white"/>
     <circle stroke-width="1.944" fill="white" cy="10.8" r="1.908" id="connector31pad" cx="46.8" stroke="white"/>
     <circle stroke-width="1.944" fill="white" cy="18" r="1.908" id="connector32pad" cx="46.8" stroke="white"/>
     <circle stroke-width="1.944" fill="white" cy="25.2" r="1.908" id="connector33pad" cx="46.8" stroke="white"/>
     <circle stroke-width="1.944" fill="white" cy="32.4" r="1.908" id="connector34pad" cx="46.8" stroke="white"/>
     <circle stroke-width="1.944" fill="white" cy="39.6" r="1.908" id="connector35pad" cx="46.8" stroke="white"/>
     <circle stroke-width="1.944" fill="white" cy="46.8" r="1.908" id="connector36pad" cx="46.8" stroke="white"/>
     <circle stroke-width="1.944" fill="white" cy="54" r="1.908" id="connector37pad" cx="46.8" stroke="white"/>
     <circle stroke-width="1.944" fill="white" cy="61.2" r="1.908" id="connector38pad" cx="46.8" stroke="white"/>
     <circle stroke-width="1.944" fill="white" cy="68.4" r="1.908" id="connector39pad" cx="46.8" stroke="white"/>
     <circle stroke-width="1.944" fill="white" cy="75.6" r="1.908" id="connector40pad" cx="46.8" stroke="white"/>
     <circle stroke-width="1.944" fill="white" cy="82.8" r="1.908" id="connector41pad" cx="46.8" stroke="white"/>
     <circle stroke-width="1.944" fill="white" cy="90" r="1.908" id="connector42pad" cx="46.8" stroke="white"/>
     <circle stroke-width="1.944" fill="white" cy="97.2" r="1.908" id="connector43pad" cx="46.8" stroke="white"/>
     <circle stroke-width="1.944" fill="white" cy="104.4" r="1.908" id="connector44pad" cx="46.8" stroke="white"/>
     <circle stroke-width="1.944" fill="white" cy="111.6" r="1.908" id="connector45pad" cx="46.8" stroke="white"/>
    </g>
   </g>
  </g>
 </g>
</svg>
