<?xml version="1.0" encoding="UTF-8" standalone="no"?>
<!-- Created with Inkscape (http://www.inkscape.org/) -->

<svg
   width="420mm"
   height="620mm"
   viewBox="0 0 420 620"
   version="1.1"
   id="svg5"
   inkscape:version="1.1.1 (3bf5ae0d25, 2021-09-20)"
   sodipodi:docname="neurorreabilitador2000_adelante.svg"
   inkscape:export-filename="/home/fede/programas repo git/neurorrehabilitador2000/inkscape/png/dismetria_estrella.png"
   inkscape:export-xdpi="96"
   inkscape:export-ydpi="96"
   xmlns:inkscape="http://www.inkscape.org/namespaces/inkscape"
   xmlns:sodipodi="http://sodipodi.sourceforge.net/DTD/sodipodi-0.dtd"
   xmlns="http://www.w3.org/2000/svg"
   xmlns:svg="http://www.w3.org/2000/svg">
  <sodipodi:namedview
     id="namedview7"
     pagecolor="#ffffff"
     bordercolor="#666666"
     borderopacity="1.0"
     inkscape:pageshadow="2"
     inkscape:pageopacity="0.0"
     inkscape:pagecheckerboard="0"
     inkscape:document-units="mm"
     showgrid="false"
     inkscape:zoom="0.127"
     inkscape:cx="-397.6378"
     inkscape:cy="921.25984"
     inkscape:window-width="1366"
     inkscape:window-height="699"
     inkscape:window-x="0"
     inkscape:window-y="32"
     inkscape:window-maximized="1"
     inkscape:current-layer="layer1"
     showguides="true"
     inkscape:guide-bbox="true">
    <inkscape:grid
       type="xygrid"
       id="grid894" />
  </sodipodi:namedview>
  <defs
     id="defs2">
    <linearGradient
       id="linearGradient3518"
       inkscape:swatch="solid">
      <stop
         style="stop-color:#000000;stop-opacity:1;"
         offset="0"
         id="stop3516" />
    </linearGradient>
  </defs>
  <g
     inkscape:label="Capa 1"
     inkscape:groupmode="layer"
     id="layer1">
    <g
       id="g907"
       transform="translate(15.150448,112.68391)">
      <g
         id="g13897"
         transform="matrix(0.88093263,0,0,0.88093263,-78.949438,297.96016)">
        <path
           id="path264"
           style="fill:#ffffff;stroke:#000000;stroke-width:1;stroke-miterlimit:4;stroke-dasharray:none"
           d="m 184.73104,176.95871 a 37.974998,37.974998 0 0 1 -37.975,37.975 37.974998,37.974998 0 0 1 -37.975,-37.975 37.974998,37.974998 0 0 1 37.975,-37.97499 37.974998,37.974998 0 0 1 37.975,37.97499 z" />
        <path
           id="path266"
           style="fill:#ffffff;stroke:#000000;stroke-width:1;stroke-miterlimit:4;stroke-dasharray:none"
           d="m 178.06696,176.95871 a 31.310925,31.310925 0 0 1 -31.31092,31.31093 31.310925,31.310925 0 0 1 -31.31093,-31.31093 31.310925,31.310925 0 0 1 31.31093,-31.31092 31.310925,31.310925 0 0 1 31.31092,31.31092 z" />
        <g
           aria-label="+"
           transform="matrix(0.972268,0,0,1.028523,45.870307,39.644608)"
           id="g270"
           style="font-size:74.9327px;line-height:1.25;letter-spacing:0px;word-spacing:0px;stroke-width:1.87331">
          <text
             xml:space="preserve"
             style="font-style:normal;font-variant:normal;font-weight:normal;font-stretch:normal;font-size:21.3706px;line-height:1.25;font-family:Impact;-inkscape-font-specification:'Impact, Normal';font-variant-ligatures:normal;font-variant-caps:normal;font-variant-numeric:normal;font-variant-east-asian:normal;letter-spacing:0px;word-spacing:0px;fill:#000000;fill-opacity:1;stroke:none;stroke-width:1.00085"
             x="75.497711"
             y="145.63591"
             id="text5025"
             transform="scale(1.028523,0.972268)"><tspan
               sodipodi:role="line"
               id="tspan5023"
               style="font-style:normal;font-variant:normal;font-weight:normal;font-stretch:normal;font-size:21.3706px;font-family:Impact;-inkscape-font-specification:'Impact, Normal';font-variant-ligatures:normal;font-variant-caps:normal;font-variant-numeric:normal;font-variant-east-asian:normal;stroke-width:1.00085"
               x="75.497711"
               y="145.63591">Inicio</tspan></text>
        </g>
      </g>
      <path
         id="path274"
         style="stroke:#000000"
         d="m 52.832746,405.8263 a 2.5,2.5 0 0 1 -2.5,2.5 2.5,2.5 0 0 1 -2.5,-2.5 2.5,2.5 0 0 1 2.5,-2.5 2.5,2.5 0 0 1 2.5,2.5 z" />
    </g>
    <g
       id="g1107"
       transform="translate(0,-20.251731)">
      <g
         id="g3047"
         transform="translate(-31.05076,19.403202)">
        <g
           id="g1529"
           transform="translate(54.093075,24.353123)">
          <path
             id="circle1521"
             style="fill:#ffffff;stroke:#000000;stroke-dasharray:3, 1"
             d="m 137.64725,137.16461 a 37.974998,37.974998 0 0 1 -37.975001,37.975 37.974998,37.974998 0 0 1 -37.974999,-37.975 37.974998,37.974998 0 0 1 37.974999,-37.974997 37.974998,37.974998 0 0 1 37.975001,37.974997 z" />
          <path
             id="circle1523"
             style="fill:#ffffff;stroke:#000000;stroke-width:0.835515;stroke-dasharray:2.50655, 0.835515"
             d="M 130.98317,137.16461 A 31.310925,31.310925 0 0 1 99.672249,168.47554 31.310925,31.310925 0 0 1 68.361324,137.16461 31.310925,31.310925 0 0 1 99.672249,105.85369 31.310925,31.310925 0 0 1 130.98317,137.16461 Z" />
          <g
             aria-label="+"
             transform="scale(0.972268,1.028523)"
             id="text1527"
             style="font-size:74.9327px;line-height:1.25;letter-spacing:0px;word-spacing:0px;stroke-width:1.87331">
            <path
               d="m 105.58861,109.87111 v 20.37965 h 20.37965 v 6.22 H 105.58861 V 156.8504 H 99.44179 V 136.47076 H 79.062144 v -6.22 H 99.44179 v -20.37965 z"
               id="path98" />
          </g>
        </g>
        <path
           id="circle1531"
           style="stroke:#000000"
           d="m 156.26533,108.06698 a 2.5,2.5 0 0 1 -2.5,2.5 2.5,2.5 0 0 1 -2.5,-2.5 2.5,2.5 0 0 1 2.5,-2.5 2.5,2.5 0 0 1 2.5,2.5 z" />
      </g>
      <g
         id="g3039"
         transform="translate(-63.329929,19.403202)">
        <g
           id="g1543"
           transform="translate(262.15698,24.353123)">
          <path
             id="circle1535"
             style="fill:#ffffff;stroke:#000000;stroke-dasharray:3, 1"
             d="m 137.64725,137.16461 a 37.974998,37.974998 0 0 1 -37.975001,37.975 37.974998,37.974998 0 0 1 -37.974999,-37.975 37.974998,37.974998 0 0 1 37.974999,-37.974997 37.974998,37.974998 0 0 1 37.975001,37.974997 z" />
          <path
             id="circle1537"
             style="fill:#ffffff;stroke:#000000;stroke-width:0.835515;stroke-dasharray:2.50655, 0.835515"
             d="M 130.98317,137.16461 A 31.310925,31.310925 0 0 1 99.672249,168.47554 31.310925,31.310925 0 0 1 68.361324,137.16461 31.310925,31.310925 0 0 1 99.672249,105.85369 31.310925,31.310925 0 0 1 130.98317,137.16461 Z" />
          <g
             aria-label="+"
             transform="scale(0.972268,1.028523)"
             id="text1541"
             style="font-size:74.9327px;line-height:1.25;letter-spacing:0px;word-spacing:0px;stroke-width:1.87331">
            <path
               d="m 105.58861,109.87111 v 20.37965 h 20.37965 v 6.22 H 105.58861 V 156.8504 H 99.44179 V 136.47076 H 79.062144 v -6.22 H 99.44179 v -20.37965 z"
               id="path104" />
          </g>
        </g>
        <path
           id="circle1545"
           style="stroke:#000000"
           d="m 364.32923,108.06698 a 2.5,2.5 0 0 1 -2.5,2.5 2.5,2.5 0 0 1 -2.5,-2.5 2.5,2.5 0 0 1 2.5,-2.5 2.5,2.5 0 0 1 2.5,2.5 z" />
      </g>
      <g
         id="g3015"
         transform="translate(-47.454928,45.861537)">
        <g
           id="g865"
           transform="translate(156.45779,300.33147)">
          <path
             id="path857"
             style="fill:#ffffff;stroke:#000000;stroke-dasharray:3, 1"
             d="m 137.64725,137.16461 a 37.974998,37.974998 0 0 1 -37.975001,37.975 37.974998,37.974998 0 0 1 -37.974999,-37.975 37.974998,37.974998 0 0 1 37.974999,-37.974997 37.974998,37.974998 0 0 1 37.975001,37.974997 z" />
          <path
             id="path859"
             style="fill:#ffffff;stroke:#000000;stroke-width:0.835515;stroke-dasharray:2.50655, 0.835515"
             d="M 130.98317,137.16461 A 31.310925,31.310925 0 0 1 99.672249,168.47554 31.310925,31.310925 0 0 1 68.361324,137.16461 31.310925,31.310925 0 0 1 99.672249,105.85369 31.310925,31.310925 0 0 1 130.98317,137.16461 Z" />
          <g
             aria-label="+"
             transform="scale(0.972268,1.028523)"
             id="g863"
             style="font-size:74.9327px;line-height:1.25;letter-spacing:0px;word-spacing:0px;stroke-width:1.87331">
            <path
               d="m 105.58861,109.87111 v 20.37965 h 20.37965 v 6.22 H 105.58861 V 156.8504 H 99.44179 V 136.47076 H 79.062144 v -6.22 H 99.44179 v -20.37965 z"
               id="path861" />
          </g>
        </g>
        <path
           id="path867"
           style="stroke:#000000"
           d="m 258.63004,384.04533 a 2.5,2.5 0 0 1 -2.5,2.5 2.5,2.5 0 0 1 -2.5,-2.5 2.5,2.5 0 0 1 2.5,-2.5 2.5,2.5 0 0 1 2.5,2.5 z" />
      </g>
      <g
         id="g3031"
         transform="translate(-42.163266,19.403202)">
        <g
           id="g879"
           transform="translate(310.15683,140.23502)">
          <path
             id="path871"
             style="fill:#ffffff;stroke:#000000;stroke-dasharray:3, 1"
             d="m 137.64725,137.16461 a 37.974998,37.974998 0 0 1 -37.975001,37.975 37.974998,37.974998 0 0 1 -37.974999,-37.975 37.974998,37.974998 0 0 1 37.974999,-37.974997 37.974998,37.974998 0 0 1 37.975001,37.974997 z" />
          <path
             id="path873"
             style="fill:#ffffff;stroke:#000000;stroke-width:0.835515;stroke-dasharray:2.50655, 0.835515"
             d="M 130.98317,137.16461 A 31.310925,31.310925 0 0 1 99.672249,168.47554 31.310925,31.310925 0 0 1 68.361324,137.16461 31.310925,31.310925 0 0 1 99.672249,105.85369 31.310925,31.310925 0 0 1 130.98317,137.16461 Z" />
          <g
             aria-label="+"
             transform="scale(0.972268,1.028523)"
             id="g877"
             style="font-size:74.9327px;line-height:1.25;letter-spacing:0px;word-spacing:0px;stroke-width:1.87331">
            <path
               d="m 105.58861,109.87111 v 20.37965 h 20.37965 v 6.22 H 105.58861 V 156.8504 H 99.44179 V 136.47076 H 79.062144 v -6.22 H 99.44179 v -20.37965 z"
               id="path875" />
          </g>
        </g>
        <path
           id="path881"
           style="stroke:#000000"
           d="m 412.32908,223.94888 a 2.5,2.5 0 0 1 -2.5,2.5 2.5,2.5 0 0 1 -2.5,-2.5 2.5,2.5 0 0 1 2.5,-2.5 2.5,2.5 0 0 1 2.5,2.5 z" />
      </g>
      <g
         id="g3023"
         transform="translate(-63.329929,19.403202)">
        <g
           id="g893"
           transform="translate(262.15698,252.33162)">
          <path
             id="path885"
             style="fill:#ffffff;stroke:#000000;stroke-dasharray:3, 1"
             d="m 137.64725,137.16461 a 37.974998,37.974998 0 0 1 -37.975001,37.975 37.974998,37.974998 0 0 1 -37.974999,-37.975 37.974998,37.974998 0 0 1 37.974999,-37.974997 37.974998,37.974998 0 0 1 37.975001,37.974997 z" />
          <path
             id="path887"
             style="fill:#ffffff;stroke:#000000;stroke-width:0.835515;stroke-dasharray:2.50655, 0.835515"
             d="M 130.98317,137.16461 A 31.310925,31.310925 0 0 1 99.672249,168.47554 31.310925,31.310925 0 0 1 68.361324,137.16461 31.310925,31.310925 0 0 1 99.672249,105.85369 31.310925,31.310925 0 0 1 130.98317,137.16461 Z" />
          <g
             aria-label="+"
             transform="scale(0.972268,1.028523)"
             id="g891"
             style="font-size:74.9327px;line-height:1.25;letter-spacing:0px;word-spacing:0px;stroke-width:1.87331">
            <path
               d="m 105.58861,109.87111 v 20.37965 h 20.37965 v 6.22 H 105.58861 V 156.8504 H 99.44179 V 136.47076 H 79.062144 v -6.22 H 99.44179 v -20.37965 z"
               id="path889" />
          </g>
        </g>
        <path
           id="path895"
           style="stroke:#000000"
           d="m 364.32923,336.04548 a 2.5,2.5 0 0 1 -2.5,2.5 2.5,2.5 0 0 1 -2.5,-2.5 2.5,2.5 0 0 1 2.5,-2.5 2.5,2.5 0 0 1 2.5,2.5 z" />
      </g>
      <g
         id="g2999"
         transform="translate(-47.454928,20.953113)">
        <g
           id="g882"
           transform="translate(0.11686437,140.23502)">
          <path
             id="path874"
             style="fill:#ffffff;stroke:#000000;stroke-dasharray:3, 1"
             d="m 137.64725,137.16461 a 37.974998,37.974998 0 0 1 -37.975001,37.975 37.974998,37.974998 0 0 1 -37.974999,-37.975 37.974998,37.974998 0 0 1 37.974999,-37.974997 37.974998,37.974998 0 0 1 37.975001,37.974997 z" />
          <path
             id="path876"
             style="fill:#ffffff;stroke:#000000;stroke-width:0.835515;stroke-dasharray:2.50655, 0.835515"
             d="M 130.98317,137.16461 A 31.310925,31.310925 0 0 1 99.672249,168.47554 31.310925,31.310925 0 0 1 68.361324,137.16461 31.310925,31.310925 0 0 1 99.672249,105.85369 31.310925,31.310925 0 0 1 130.98317,137.16461 Z" />
          <g
             aria-label="+"
             transform="scale(0.972268,1.028523)"
             id="g880"
             style="font-size:74.9327px;line-height:1.25;letter-spacing:0px;word-spacing:0px;stroke-width:1.87331">
            <path
               d="m 105.58861,109.87111 v 20.37965 h 20.37965 v 6.22 H 105.58861 V 156.8504 H 99.44179 V 136.47076 H 79.062144 v -6.22 H 99.44179 v -20.37965 z"
               id="path878" />
          </g>
        </g>
        <path
           id="path884"
           style="stroke:#000000"
           d="m 102.28911,223.94888 a 2.5,2.5 0 0 1 -2.499996,2.5 2.5,2.5 0 0 1 -2.5,-2.5 2.5,2.5 0 0 1 2.5,-2.5 2.5,2.5 0 0 1 2.499996,2.5 z" />
      </g>
      <g
         id="g3055"
         transform="translate(-47.454928,-7.0551313)">
        <g
           id="g896"
           transform="translate(156.45779,-26.00456)">
          <path
             id="path888"
             style="fill:#ffffff;stroke:#000000;stroke-dasharray:3, 1"
             d="m 137.64725,137.16461 a 37.974998,37.974998 0 0 1 -37.975001,37.975 37.974998,37.974998 0 0 1 -37.974999,-37.975 37.974998,37.974998 0 0 1 37.974999,-37.974997 37.974998,37.974998 0 0 1 37.975001,37.974997 z" />
          <path
             id="path890"
             style="fill:#ffffff;stroke:#000000;stroke-width:0.835515;stroke-dasharray:2.50655, 0.835515"
             d="M 130.98317,137.16461 A 31.310925,31.310925 0 0 1 99.672249,168.47554 31.310925,31.310925 0 0 1 68.361324,137.16461 31.310925,31.310925 0 0 1 99.672249,105.85369 31.310925,31.310925 0 0 1 130.98317,137.16461 Z" />
          <g
             aria-label="+"
             transform="scale(0.972268,1.028523)"
             id="g894"
             style="font-size:74.9327px;line-height:1.25;letter-spacing:0px;word-spacing:0px;stroke-width:1.87331">
            <path
               d="m 105.58861,109.87111 v 20.37965 h 20.37965 v 6.22 H 105.58861 V 156.8504 H 99.44179 V 136.47076 H 79.062144 v -6.22 H 99.44179 v -20.37965 z"
               id="path892" />
          </g>
        </g>
        <path
           id="path898"
           style="stroke:#000000"
           d="m 258.63004,57.7093 a 2.5,2.5 0 0 1 -2.5,2.5 2.5,2.5 0 0 1 -2.5,-2.5 2.5,2.5 0 0 1 2.5,-2.5 2.5,2.5 0 0 1 2.5,2.5 z" />
      </g>
      <g
         id="g3007"
         transform="translate(-31.05076,19.403202)">
        <g
           id="g926"
           transform="translate(54.093075,252.33162)">
          <path
             id="path918"
             style="fill:#ffffff;stroke:#000000;stroke-dasharray:3, 1"
             d="m 137.64725,137.16461 a 37.974998,37.974998 0 0 1 -37.975001,37.975 37.974998,37.974998 0 0 1 -37.974999,-37.975 37.974998,37.974998 0 0 1 37.974999,-37.974997 37.974998,37.974998 0 0 1 37.975001,37.974997 z" />
          <path
             id="path920"
             style="fill:#ffffff;stroke:#000000;stroke-width:0.835515;stroke-dasharray:2.50655, 0.835515"
             d="M 130.98317,137.16461 A 31.310925,31.310925 0 0 1 99.672249,168.47554 31.310925,31.310925 0 0 1 68.361324,137.16461 31.310925,31.310925 0 0 1 99.672249,105.85369 31.310925,31.310925 0 0 1 130.98317,137.16461 Z" />
          <g
             aria-label="+"
             transform="scale(0.972268,1.028523)"
             id="g924"
             style="font-size:74.9327px;line-height:1.25;letter-spacing:0px;word-spacing:0px;stroke-width:1.87331">
            <path
               d="m 105.58861,109.87111 v 20.37965 h 20.37965 v 6.22 H 105.58861 V 156.8504 H 99.44179 V 136.47076 H 79.062144 v -6.22 H 99.44179 v -20.37965 z"
               id="path922" />
          </g>
        </g>
        <path
           id="path928"
           style="stroke:#000000"
           d="m 156.26533,336.04548 a 2.5,2.5 0 0 1 -2.5,2.5 2.5,2.5 0 0 1 -2.5,-2.5 2.5,2.5 0 0 1 2.5,-2.5 2.5,2.5 0 0 1 2.5,2.5 z" />
      </g>
      <g
         id="g2991"
         transform="translate(-47.454928,19.403202)">
        <g
           id="g851"
           transform="translate(156.45779,140.23502)">
          <path
             id="path843"
             style="fill:#ffffff;stroke:#000000;stroke-dasharray:3, 1"
             d="m 137.64725,137.16461 a 37.974998,37.974998 0 0 1 -37.975001,37.975 37.974998,37.974998 0 0 1 -37.974999,-37.975 37.974998,37.974998 0 0 1 37.974999,-37.974997 37.974998,37.974998 0 0 1 37.975001,37.974997 z" />
          <path
             id="path845"
             style="fill:#ffffff;stroke:#000000;stroke-width:0.835515;stroke-dasharray:2.50655, 0.835515"
             d="M 130.98317,137.16461 A 31.310925,31.310925 0 0 1 99.672249,168.47554 31.310925,31.310925 0 0 1 68.361324,137.16461 31.310925,31.310925 0 0 1 99.672249,105.85369 31.310925,31.310925 0 0 1 130.98317,137.16461 Z" />
          <g
             aria-label="+"
             transform="scale(0.972268,1.028523)"
             id="g849"
             style="font-size:74.9327px;line-height:1.25;letter-spacing:0px;word-spacing:0px;stroke-width:1.87331">
            <path
               d="m 105.58861,109.87111 v 20.37965 h 20.37965 v 6.22 H 105.58861 V 156.8504 H 99.44179 V 136.47076 H 79.062144 v -6.22 H 99.44179 v -20.37965 z"
               id="path847" />
          </g>
        </g>
        <path
           id="path853"
           style="stroke:#000000"
           d="m 258.63004,223.94888 a 2.5,2.5 0 0 1 -2.5,2.5 2.5,2.5 0 0 1 -2.5,-2.5 2.5,2.5 0 0 1 2.5,-2.5 2.5,2.5 0 0 1 2.5,2.5 z" />
      </g>
    </g>
  </g>
</svg>
