<?xml version="1.0" encoding="UTF-8" standalone="no"?>
<!-- Created with Inkscape (http://www.inkscape.org/) -->

<svg
   width="297mm"
   height="210mm"
   viewBox="0 0 297 210"
   version="1.1"
   id="svg5"
   inkscape:version="1.1.1 (3bf5ae0d25, 2021-09-20)"
   sodipodi:docname="anr-botones-a.svg"
   inkscape:export-filename="/home/fede/programas repo git/neurorrehabilitador2000/inkscape/png/dismetria_estrella.png"
   inkscape:export-xdpi="96"
   inkscape:export-ydpi="96"
   xmlns:inkscape="http://www.inkscape.org/namespaces/inkscape"
   xmlns:sodipodi="http://sodipodi.sourceforge.net/DTD/sodipodi-0.dtd"
   xmlns="http://www.w3.org/2000/svg"
   xmlns:svg="http://www.w3.org/2000/svg">
  <sodipodi:namedview
     id="namedview7"
     pagecolor="#ffffff"
     bordercolor="#666666"
     borderopacity="1.0"
     inkscape:pageshadow="2"
     inkscape:pageopacity="0.0"
     inkscape:pagecheckerboard="0"
     inkscape:document-units="mm"
     showgrid="false"
     inkscape:zoom="0.35921024"
     inkscape:cx="803.15082"
     inkscape:cy="540.07369"
     inkscape:window-width="1366"
     inkscape:window-height="699"
     inkscape:window-x="0"
     inkscape:window-y="32"
     inkscape:window-maximized="1"
     inkscape:current-layer="layer1"
     showguides="true"
     inkscape:guide-bbox="true">
    <inkscape:grid
       type="xygrid"
       id="grid894" />
  </sodipodi:namedview>
  <defs
     id="defs2">
    <linearGradient
       id="linearGradient3518"
       inkscape:swatch="solid">
      <stop
         style="stop-color:#000000;stop-opacity:1;"
         offset="0"
         id="stop3516" />
    </linearGradient>
  </defs>
  <g
     inkscape:label="Capa 1"
     inkscape:groupmode="layer"
     id="layer1">
    <g
       id="g1529"
       transform="translate(-49.341506,0.24633981)">
      <g
         id="g1419"
         transform="translate(54.24662,-14.415647)">
        <path
           id="path959"
           style="fill:#ffffff;stroke:#000000;stroke-dasharray:3, 1"
           d="M 88.72838,86.860155 A 37.974998,37.974998 0 0 1 50.753379,124.83516 37.974998,37.974998 0 0 1 12.77838,86.860155 37.974998,37.974998 0 0 1 50.753379,48.885158 37.974998,37.974998 0 0 1 88.72838,86.860155 Z" />
        <path
           id="path969"
           style="stroke:#000000"
           d="m 53.25338,33.409405 a 2.5,2.5 0 0 1 -2.5,2.5 2.5,2.5 0 0 1 -2.5,-2.5 2.5,2.5 0 0 1 2.5,-2.5 2.5,2.5 0 0 1 2.5,2.5 z" />
      </g>
      <rect
         style="fill:none;stroke:#000000;stroke-width:0.110893"
         id="rect1443"
         width="87.197472"
         height="112.45535"
         x="61.401264"
         y="7.2289596"
         ry="2.7329249" />
    </g>
    <g
       id="g1539"
       transform="translate(37.855969,0.24633981)">
      <g
         id="g1535"
         transform="translate(54.24662,-14.415647)">
        <path
           id="path1531"
           style="fill:#ffffff;stroke:#000000;stroke-dasharray:3, 1"
           d="M 88.72838,86.860155 A 37.974998,37.974998 0 0 1 50.753379,124.83516 37.974998,37.974998 0 0 1 12.77838,86.860155 37.974998,37.974998 0 0 1 50.753379,48.885158 37.974998,37.974998 0 0 1 88.72838,86.860155 Z" />
        <path
           id="path1533"
           style="stroke:#000000"
           d="m 53.25338,33.409405 a 2.5,2.5 0 0 1 -2.5,2.5 2.5,2.5 0 0 1 -2.5,-2.5 2.5,2.5 0 0 1 2.5,-2.5 2.5,2.5 0 0 1 2.5,2.5 z" />
      </g>
      <rect
         style="fill:none;stroke:#000000;stroke-width:0.110893"
         id="rect1537"
         width="87.197472"
         height="112.45535"
         x="61.401264"
         y="7.2289596"
         ry="2.7329249" />
    </g>
    <g
       id="g1549"
       transform="translate(125.05345,0.24633981)">
      <g
         id="g1545"
         transform="translate(54.24662,-14.415647)">
        <path
           id="path1541"
           style="fill:#ffffff;stroke:#000000;stroke-dasharray:3, 1"
           d="M 88.72838,86.860155 A 37.974998,37.974998 0 0 1 50.753379,124.83516 37.974998,37.974998 0 0 1 12.77838,86.860155 37.974998,37.974998 0 0 1 50.753379,48.885158 37.974998,37.974998 0 0 1 88.72838,86.860155 Z" />
        <path
           id="path1543"
           style="stroke:#000000"
           d="m 53.25338,33.409405 a 2.5,2.5 0 0 1 -2.5,2.5 2.5,2.5 0 0 1 -2.5,-2.5 2.5,2.5 0 0 1 2.5,-2.5 2.5,2.5 0 0 1 2.5,2.5 z" />
      </g>
      <rect
         style="fill:none;stroke:#000000;stroke-width:0.110893"
         id="rect1547"
         width="87.197472"
         height="112.45535"
         x="61.401264"
         y="7.2289596"
         ry="2.7329249" />
    </g>
    <g
       id="g2547"
       transform="translate(23.984893)">
      <g
         id="g2536">
        <g
           id="g1565"
           transform="rotate(-90,102.34896,111.93381)">
          <path
             id="path1561"
             style="fill:#ffffff;stroke:#000000;stroke-dasharray:3, 1"
             d="M 88.72838,86.860155 A 37.974998,37.974998 0 0 1 50.753379,124.83516 37.974998,37.974998 0 0 1 12.77838,86.860155 37.974998,37.974998 0 0 1 50.753379,48.885158 37.974998,37.974998 0 0 1 88.72838,86.860155 Z" />
          <path
             id="path1563"
             style="stroke:#000000"
             d="m 53.25338,33.409405 a 2.5,2.5 0 0 1 -2.5,2.5 2.5,2.5 0 0 1 -2.5,-2.5 2.5,2.5 0 0 1 2.5,-2.5 2.5,2.5 0 0 1 2.5,2.5 z" />
        </g>
        <rect
           style="fill:none;stroke:#000000;stroke-width:0.110893"
           id="rect1567"
           width="87.197472"
           height="112.45535"
           x="-207.12813"
           y="12.059754"
           ry="2.7329249"
           transform="rotate(-90)" />
        <g
           id="g1575"
           transform="rotate(-90,158.57664,55.706134)">
          <path
             id="path1571"
             style="fill:#ffffff;stroke:#000000;stroke-dasharray:3, 1"
             d="M 88.72838,86.860155 A 37.974998,37.974998 0 0 1 50.753379,124.83516 37.974998,37.974998 0 0 1 12.77838,86.860155 37.974998,37.974998 0 0 1 50.753379,48.885158 37.974998,37.974998 0 0 1 88.72838,86.860155 Z" />
          <path
             id="path1573"
             style="stroke:#000000"
             d="m 53.25338,33.409405 a 2.5,2.5 0 0 1 -2.5,2.5 2.5,2.5 0 0 1 -2.5,-2.5 2.5,2.5 0 0 1 2.5,-2.5 2.5,2.5 0 0 1 2.5,2.5 z" />
        </g>
        <rect
           style="fill:none;stroke:#000000;stroke-width:0.110893"
           id="rect1577"
           width="87.197472"
           height="112.45535"
           x="-207.12813"
           y="124.51511"
           ry="2.7329249"
           transform="rotate(-90)" />
      </g>
    </g>
  </g>
</svg>
