<?xml version="1.0" encoding="UTF-8" standalone="no"?>
<!-- Created with Inkscape (http://www.inkscape.org/) -->

<svg
   width="210mm"
   height="297mm"
   viewBox="0 0 210 297"
   version="1.1"
   id="svg5"
   inkscape:version="1.1.1 (3bf5ae0d25, 2021-09-20)"
   sodipodi:docname="anr2000-b.svg"
   inkscape:export-filename="/home/fede/programas repo git/neurorrehabilitador2000/inkscape/png/dismetria_estrella.png"
   inkscape:export-xdpi="96"
   inkscape:export-ydpi="96"
   xmlns:inkscape="http://www.inkscape.org/namespaces/inkscape"
   xmlns:sodipodi="http://sodipodi.sourceforge.net/DTD/sodipodi-0.dtd"
   xmlns="http://www.w3.org/2000/svg"
   xmlns:svg="http://www.w3.org/2000/svg">
  <sodipodi:namedview
     id="namedview7"
     pagecolor="#ffffff"
     bordercolor="#666666"
     borderopacity="1.0"
     inkscape:pageshadow="2"
     inkscape:pageopacity="0.0"
     inkscape:pagecheckerboard="0"
     inkscape:document-units="mm"
     showgrid="false"
     inkscape:zoom="0.35921024"
     inkscape:cx="519.19455"
     inkscape:cy="428.71828"
     inkscape:window-width="1366"
     inkscape:window-height="699"
     inkscape:window-x="0"
     inkscape:window-y="32"
     inkscape:window-maximized="1"
     inkscape:current-layer="layer1"
     showguides="true"
     inkscape:guide-bbox="true">
    <inkscape:grid
       type="xygrid"
       id="grid894" />
  </sodipodi:namedview>
  <defs
     id="defs2">
    <linearGradient
       id="linearGradient3518"
       inkscape:swatch="solid">
      <stop
         style="stop-color:#000000;stop-opacity:1;"
         offset="0"
         id="stop3516" />
    </linearGradient>
  </defs>
  <g
     inkscape:label="Capa 1"
     inkscape:groupmode="layer"
     id="layer1">
    <g
       id="g1757"
       transform="translate(-37.855968,-95.329879)">
      <g
         id="g1565"
         transform="translate(92.102589,98.286043)">
        <path
           id="path1561"
           style="fill:#ffffff;stroke:#000000;stroke-dasharray:3, 1"
           d="M 88.72838,86.860155 A 37.974998,37.974998 0 0 1 50.753379,124.83516 37.974998,37.974998 0 0 1 12.77838,86.860155 37.974998,37.974998 0 0 1 50.753379,48.885158 37.974998,37.974998 0 0 1 88.72838,86.860155 Z" />
        <path
           id="path1563"
           style="stroke:#000000"
           d="m 53.25338,33.409405 a 2.5,2.5 0 0 1 -2.5,2.5 2.5,2.5 0 0 1 -2.5,-2.5 2.5,2.5 0 0 1 2.5,-2.5 2.5,2.5 0 0 1 2.5,2.5 z" />
      </g>
      <rect
         style="fill:none;stroke:#000000;stroke-width:0.110893"
         id="rect1567"
         width="87.197472"
         height="112.45535"
         x="99.257233"
         y="119.93065"
         ry="2.7329249" />
    </g>
    <g
       id="g2234"
       transform="translate(-166.03856,114.65596)">
      <g
         id="g1245"
         transform="translate(206.82954,-170.1175)">
        <path
           id="path973"
           style="fill:#ffffff;stroke:#000000;stroke-width:0.880933;stroke-miterlimit:4;stroke-dasharray:none"
           d="M 97.662436,249.02023 A 33.453415,33.453415 0 0 1 64.209019,282.47365 33.453415,33.453415 0 0 1 30.755603,249.02023 33.453415,33.453415 0 0 1 64.209019,215.56682 33.453415,33.453415 0 0 1 97.662436,249.02023 Z" />
        <path
           id="path985"
           style="stroke:#000000"
           d="m 66.709019,200.99767 a 2.5,2.5 0 0 1 -2.5,2.5 2.5,2.5 0 0 1 -2.5,-2.5 2.5,2.5 0 0 1 2.5,-2.5 2.5,2.5 0 0 1 2.5,2.5 z" />
      </g>
      <rect
         style="fill:none;stroke:#000000;stroke-width:0.102424"
         id="rect2142"
         width="87.197472"
         height="95.935997"
         x="227.43982"
         y="22.400158"
         ry="2.3314664" />
    </g>
  </g>
</svg>
