<?xml version='1.0' encoding='UTF-8' standalone='no'?>
<!-- Created with Fritzing (http://www.fritzing.org/) -->
<svg xmlns="http://www.w3.org/2000/svg" viewBox="0 0 283.465 141.732" baseProfile="tiny"  version="1.2" width="3.93701in" height="1.9685in" x="0in" xmlns:svg="http://www.w3.org/2000/svg" y="0in">
 <g transform="matrix(-1, 0, 0, 1, 283.465, 0)">
  <g partID="313442">
   <g id="silkscreen0">
    <rect fill="none" stroke="black" width="282.889" stroke-width="0.576" height="141.156" x="0.288" y="0.288"/>
   </g>
  </g>
  <g partID="313440">
   <g id="board">
    <rect id="boardoutline" fill="none" stroke="black" fill-opacity="0.5" width="282.889" stroke-width="0.5" height="141.156" x="0.288" y="0.288"/>
   </g>
  </g>
  <g partID="313442">
   <g id="silkscreen0">
    <rect fill="none" stroke="black" width="282.889" stroke-width="0.576" height="141.156" x="0.288" y="0.288"/>
   </g>
  </g>
  <g partID="931540">
   <g transform="translate(84.5074,51.7834)">
    <g id="copper0">
     <circle id="nonconn0" fill="white" r="2.83465" stroke="white" cy="4.43465" stroke-width="0.72" cx="4.43465"/>
    </g>
   </g>
  </g>
  <g partID="859370">
   <g transform="translate(40.2387,36.4442)">
    <g transform="matrix(0.911029,0.412342,-0.412342,0.911029,0,0)">
     <g id="copper0">
      <g id="copper1">
       <!-- <rect width="55" x="10" y="15.5" fill="none" height="55" stroke="rgb(255, 191, 0)" stroke-width="20" />  -->
       <circle id="connector0pin" fill="white" r="1.98" stroke="white" cy="3.096" stroke-width="2.16" cx="2.7"/>
       <circle id="connector1pin" fill="white" r="1.98" stroke="white" cy="3.096" stroke-width="2.16" cx="31.5"/>
      </g>
     </g>
    </g>
   </g>
  </g>
  <g partID="939580">
   <g transform="translate(164.542,97.2581)">
    <g transform="matrix(0,1,-1,0,0,0)">
     <g id="copper0">
      <circle id="connector0pin" fill="white" r="2.088" stroke="white" cy="5.04" stroke-width="2.16" cx="5.04"/>
      <circle id="connector1pin" fill="white" r="2.088" stroke="white" cy="12.24" stroke-width="2.16" cx="5.04"/>
     </g>
    </g>
   </g>
  </g>
  <g partID="426140">
   <g transform="translate(7.94904,115.625)">
    <g id="copper0">
     <circle id="nonconn0" fill="white" r="5.95276" stroke="white" cy="7.55273" stroke-width="0.72" cx="7.55273"/>
    </g>
   </g>
  </g>
  <g partID="426130">
   <g transform="translate(263.549,115.625)">
    <g id="copper0">
     <circle id="nonconn0" fill="white" r="5.95276" stroke="white" cy="7.55273" stroke-width="0.72" cx="7.55273"/>
    </g>
   </g>
  </g>
  <g partID="426110">
   <g transform="translate(7.94904,5.46532)">
    <g id="copper0">
     <circle id="nonconn0" fill="white" r="5.95276" stroke="white" cy="7.55273" stroke-width="0.72" cx="7.55273"/>
    </g>
   </g>
  </g>
  <g partID="426080">
   <g transform="translate(263.549,5.46531)">
    <g id="copper0">
     <circle id="nonconn0" fill="white" r="5.95276" stroke="white" cy="7.55273" stroke-width="0.72" cx="7.55273"/>
    </g>
   </g>
  </g>
  <g partID="939520">
   <g transform="translate(50.7818,100.138)">
    <g transform="matrix(0,-1,1,0,0,0)">
     <g id="copper0">
      <circle id="connector0pin" fill="white" r="2.088" stroke="white" cy="5.04" stroke-width="2.16" cx="5.04"/>
      <circle id="connector1pin" fill="white" r="2.088" stroke="white" cy="12.24" stroke-width="2.16" cx="5.04"/>
      <circle id="connector2pin" fill="white" r="2.088" stroke="white" cy="19.44" stroke-width="2.16" cx="5.04"/>
      <circle id="connector3pin" fill="white" r="2.088" stroke="white" cy="26.64" stroke-width="2.16" cx="5.04"/>
      <circle id="connector4pin" fill="white" r="2.088" stroke="white" cy="33.84" stroke-width="2.16" cx="5.04"/>
      <circle id="connector5pin" fill="white" r="2.088" stroke="white" cy="41.04" stroke-width="2.16" cx="5.04"/>
      <circle id="connector6pin" fill="white" r="2.088" stroke="white" cy="48.24" stroke-width="2.16" cx="5.04"/>
      <circle id="connector7pin" fill="white" r="2.088" stroke="white" cy="55.44" stroke-width="2.16" cx="5.04"/>
      <circle id="connector8pin" fill="white" r="2.088" stroke="white" cy="62.64" stroke-width="2.16" cx="5.04"/>
      <circle id="connector9pin" fill="white" r="2.088" stroke="white" cy="69.84" stroke-width="2.16" cx="5.04"/>
     </g>
    </g>
   </g>
  </g>
  <g partID="939620">
   <g transform="translate(173.182,52.6181)">
    <g id="copper0">
     <circle id="connector0pin" fill="white" r="2.088" stroke="white" cy="5.04" stroke-width="2.16" cx="5.04"/>
     <circle id="connector1pin" fill="white" r="2.088" stroke="white" cy="12.24" stroke-width="2.16" cx="5.04"/>
    </g>
   </g>
  </g>
  <g partID="324610">
   <g transform="translate(254.758,77.9981)">
    <g transform="matrix(2.22045e-16,1,-1,2.22045e-16,0,0)">
     <g id="copper0">
      <g id="copper1">
       <!-- <rect width="55" x="10" y="15.5" fill="none" height="55" stroke="rgb(255, 191, 0)" stroke-width="20" />  -->
       <circle id="connector0pin" fill="white" r="1.98" stroke="white" cy="3.096" stroke-width="2.16" cx="2.7"/>
       <circle id="connector1pin" fill="white" r="1.98" stroke="white" cy="3.096" stroke-width="2.16" cx="31.5"/>
      </g>
     </g>
    </g>
   </g>
  </g>
  <g partID="345230">
   <g transform="translate(151.582,90.0581)">
    <g transform="matrix(0,-1,1,0,0,0)">
     <g id="copper0">
      <circle id="connector0pin" fill="white" r="2.088" stroke="white" cy="5.04" stroke-width="2.16" cx="5.04"/>
      <circle id="connector1pin" fill="white" r="2.088" stroke="white" cy="12.24" stroke-width="2.16" cx="5.04"/>
     </g>
    </g>
   </g>
  </g>
  <g partID="885350">
   <g transform="translate(117.922,130.918)">
    <g transform="matrix(-2.22045e-16,-1,1,-2.22045e-16,0,0)">
     <g id="copper0">
      <g id="copper1">
       <!-- <rect width="55" x="10" y="10" fill="none" height="55" stroke="rgb(255, 191, 0)" stroke-width="20" /> -->
       <circle id="connector0pin" fill="white" r="1.98" stroke="white" cy="2.7" stroke-width="2.16" cx="2.7"/>
       <circle id="connector1pin" fill="white" r="1.98" stroke="white" cy="2.7" stroke-width="2.16" cx="24.3"/>
      </g>
     </g>
    </g>
   </g>
  </g>
  <g partID="885330">
   <g transform="translate(110.326,135.238)">
    <g transform="matrix(-2.22045e-16,-1,1,-2.22045e-16,0,0)">
     <g id="copper0">
      <g id="copper1">
       <!-- <rect width="55" x="10" y="15.5" fill="none" height="55" stroke="rgb(255, 191, 0)" stroke-width="20" />  -->
       <circle id="connector0pin" fill="white" r="1.98" stroke="white" cy="3.096" stroke-width="2.16" cx="2.7"/>
       <circle id="connector1pin" fill="white" r="1.98" stroke="white" cy="3.096" stroke-width="2.16" cx="31.5"/>
      </g>
     </g>
    </g>
   </g>
  </g>
  <g partID="885310">
   <g transform="translate(103.522,130.918)">
    <g transform="matrix(-2.22045e-16,-1,1,-2.22045e-16,0,0)">
     <g id="copper0">
      <g id="copper1">
       <!-- <rect width="55" x="10" y="10" fill="none" height="55" stroke="rgb(255, 191, 0)" stroke-width="20" /> -->
       <circle id="connector0pin" fill="white" r="1.98" stroke="white" cy="2.7" stroke-width="2.16" cx="2.7"/>
       <circle id="connector1pin" fill="white" r="1.98" stroke="white" cy="2.7" stroke-width="2.16" cx="24.3"/>
      </g>
     </g>
    </g>
   </g>
  </g>
  <g partID="885290">
   <g transform="translate(95.9258,135.238)">
    <g transform="matrix(-2.22045e-16,-1,1,-2.22045e-16,0,0)">
     <g id="copper0">
      <g id="copper1">
       <!-- <rect width="55" x="10" y="15.5" fill="none" height="55" stroke="rgb(255, 191, 0)" stroke-width="20" />  -->
       <circle id="connector0pin" fill="white" r="1.98" stroke="white" cy="3.096" stroke-width="2.16" cx="2.7"/>
       <circle id="connector1pin" fill="white" r="1.98" stroke="white" cy="3.096" stroke-width="2.16" cx="31.5"/>
      </g>
     </g>
    </g>
   </g>
  </g>
  <g partID="885270">
   <g transform="translate(89.1218,130.918)">
    <g transform="matrix(-2.22045e-16,-1,1,-2.22045e-16,0,0)">
     <g id="copper0">
      <g id="copper1">
       <!-- <rect width="55" x="10" y="10" fill="none" height="55" stroke="rgb(255, 191, 0)" stroke-width="20" /> -->
       <circle id="connector0pin" fill="white" r="1.98" stroke="white" cy="2.7" stroke-width="2.16" cx="2.7"/>
       <circle id="connector1pin" fill="white" r="1.98" stroke="white" cy="2.7" stroke-width="2.16" cx="24.3"/>
      </g>
     </g>
    </g>
   </g>
  </g>
  <g partID="885250">
   <g transform="translate(81.5258,135.238)">
    <g transform="matrix(-2.22045e-16,-1,1,-2.22045e-16,0,0)">
     <g id="copper0">
      <g id="copper1">
       <!-- <rect width="55" x="10" y="15.5" fill="none" height="55" stroke="rgb(255, 191, 0)" stroke-width="20" />  -->
       <circle id="connector0pin" fill="white" r="1.98" stroke="white" cy="3.096" stroke-width="2.16" cx="2.7"/>
       <circle id="connector1pin" fill="white" r="1.98" stroke="white" cy="3.096" stroke-width="2.16" cx="31.5"/>
      </g>
     </g>
    </g>
   </g>
  </g>
  <g partID="885230">
   <g transform="translate(74.7218,130.918)">
    <g transform="matrix(-2.22045e-16,-1,1,-2.22045e-16,0,0)">
     <g id="copper0">
      <g id="copper1">
       <!-- <rect width="55" x="10" y="10" fill="none" height="55" stroke="rgb(255, 191, 0)" stroke-width="20" /> -->
       <circle id="connector0pin" fill="white" r="1.98" stroke="white" cy="2.7" stroke-width="2.16" cx="2.7"/>
       <circle id="connector1pin" fill="white" r="1.98" stroke="white" cy="2.7" stroke-width="2.16" cx="24.3"/>
      </g>
     </g>
    </g>
   </g>
  </g>
  <g partID="885210">
   <g transform="translate(67.1258,135.238)">
    <g transform="matrix(-2.22045e-16,-1,1,-2.22045e-16,0,0)">
     <g id="copper0">
      <g id="copper1">
       <!-- <rect width="55" x="10" y="15.5" fill="none" height="55" stroke="rgb(255, 191, 0)" stroke-width="20" />  -->
       <circle id="connector0pin" fill="white" r="1.98" stroke="white" cy="3.096" stroke-width="2.16" cx="2.7"/>
       <circle id="connector1pin" fill="white" r="1.98" stroke="white" cy="3.096" stroke-width="2.16" cx="31.5"/>
      </g>
     </g>
    </g>
   </g>
  </g>
  <g partID="881460">
   <g transform="translate(60.3218,130.918)">
    <g transform="matrix(-2.22045e-16,-1,1,-2.22045e-16,0,0)">
     <g id="copper0">
      <g id="copper1">
       <!-- <rect width="55" x="10" y="10" fill="none" height="55" stroke="rgb(255, 191, 0)" stroke-width="20" /> -->
       <circle id="connector0pin" fill="white" r="1.98" stroke="white" cy="2.7" stroke-width="2.16" cx="2.7"/>
       <circle id="connector1pin" fill="white" r="1.98" stroke="white" cy="2.7" stroke-width="2.16" cx="24.3"/>
      </g>
     </g>
    </g>
   </g>
  </g>
  <g partID="879330">
   <g transform="translate(52.7258,135.238)">
    <g transform="matrix(-2.22045e-16,-1,1,-2.22045e-16,0,0)">
     <g id="copper0">
      <g id="copper1">
       <!-- <rect width="55" x="10" y="15.5" fill="none" height="55" stroke="rgb(255, 191, 0)" stroke-width="20" />  -->
       <circle id="connector0pin" fill="white" r="1.98" stroke="white" cy="3.096" stroke-width="2.16" cx="2.7"/>
       <circle id="connector1pin" fill="white" r="1.98" stroke="white" cy="3.096" stroke-width="2.16" cx="31.5"/>
      </g>
     </g>
    </g>
   </g>
  </g>
  <g partID="307920">
   <g transform="translate(121.742,45.3063)">
    <g transform="matrix(0.962591,0.270958,-0.270958,0.962591,0,0)">
     <g id="copper0">
      <g id="copper1">
       <!-- <rect width="55" x="10" y="15.5" fill="none" height="55" stroke="rgb(255, 191, 0)" stroke-width="20" />  -->
       <circle id="connector0pin" fill="white" r="1.98" stroke="white" cy="3.096" stroke-width="2.16" cx="2.7"/>
       <circle id="connector1pin" fill="white" r="1.98" stroke="white" cy="3.096" stroke-width="2.16" cx="31.5"/>
      </g>
     </g>
    </g>
   </g>
  </g>
  <g partID="307900">
   <g transform="translate(201.442,30.9461)">
    <g transform="matrix(1,-1.11022e-16,1.11022e-16,1,0,0)">
     <g id="copper0">
      <g id="copper1">
       <!-- <rect width="55" x="10" y="23.5" fill="none" height="55" stroke="rgb(255, 191, 0)" stroke-width="20" /> -->
       <circle id="connector0pin" fill="white" r="1.98" stroke="white" cy="3.672" stroke-width="2.16" cx="2.7"/>
       <circle id="connector1pin" fill="white" r="1.98" stroke="white" cy="3.672" stroke-width="2.16" cx="38.7"/>
      </g>
     </g>
    </g>
   </g>
  </g>
  <g partID="307880">
   <g transform="translate(240.358,72.2381)">
    <g transform="matrix(0,1,-1,0,0,0)">
     <g id="copper0">
      <g id="copper1">
       <!-- <rect width="55" x="10" y="15.5" fill="none" height="55" stroke="rgb(255, 191, 0)" stroke-width="20" />  -->
       <circle id="connector0pin" fill="white" r="1.98" stroke="white" cy="3.096" stroke-width="2.16" cx="2.7"/>
       <circle id="connector1pin" fill="white" r="1.98" stroke="white" cy="3.096" stroke-width="2.16" cx="31.5"/>
      </g>
     </g>
    </g>
   </g>
  </g>
  <g partID="307860">
   <g transform="translate(233.158,77.9981)">
    <g transform="matrix(0,1,-1,0,0,0)">
     <g id="copper0">
      <g id="copper1">
       <!-- <rect width="55" x="10" y="15.5" fill="none" height="55" stroke="rgb(255, 191, 0)" stroke-width="20" />  -->
       <circle id="connector0pin" fill="white" r="1.98" stroke="white" cy="3.096" stroke-width="2.16" cx="2.7"/>
       <circle id="connector1pin" fill="white" r="1.98" stroke="white" cy="3.096" stroke-width="2.16" cx="31.5"/>
      </g>
     </g>
    </g>
   </g>
  </g>
  <g partID="307840">
   <g transform="translate(225.958,72.2381)">
    <g transform="matrix(0,1,-1,0,0,0)">
     <g id="copper0">
      <g id="copper1">
       <!-- <rect width="55" x="10" y="15.5" fill="none" height="55" stroke="rgb(255, 191, 0)" stroke-width="20" />  -->
       <circle id="connector0pin" fill="white" r="1.98" stroke="white" cy="3.096" stroke-width="2.16" cx="2.7"/>
       <circle id="connector1pin" fill="white" r="1.98" stroke="white" cy="3.096" stroke-width="2.16" cx="31.5"/>
      </g>
     </g>
    </g>
   </g>
  </g>
  <g partID="307820">
   <g transform="translate(218.758,77.9981)">
    <g transform="matrix(0,1,-1,0,0,0)">
     <g id="copper0">
      <g id="copper1">
       <!-- <rect width="55" x="10" y="15.5" fill="none" height="55" stroke="rgb(255, 191, 0)" stroke-width="20" />  -->
       <circle id="connector0pin" fill="white" r="1.98" stroke="white" cy="3.096" stroke-width="2.16" cx="2.7"/>
       <circle id="connector1pin" fill="white" r="1.98" stroke="white" cy="3.096" stroke-width="2.16" cx="31.5"/>
      </g>
     </g>
    </g>
   </g>
  </g>
  <g partID="307800">
   <g transform="translate(211.558,72.2381)">
    <g transform="matrix(0,1,-1,0,0,0)">
     <g id="copper0">
      <g id="copper1">
       <!-- <rect width="55" x="10" y="15.5" fill="none" height="55" stroke="rgb(255, 191, 0)" stroke-width="20" />  -->
       <circle id="connector0pin" fill="white" r="1.98" stroke="white" cy="3.096" stroke-width="2.16" cx="2.7"/>
       <circle id="connector1pin" fill="white" r="1.98" stroke="white" cy="3.096" stroke-width="2.16" cx="31.5"/>
      </g>
     </g>
    </g>
   </g>
  </g>
  <g partID="307780">
   <g transform="translate(204.358,77.9981)">
    <g transform="matrix(0,1,-1,0,0,0)">
     <g id="copper0">
      <g id="copper1">
       <!-- <rect width="55" x="10" y="15.5" fill="none" height="55" stroke="rgb(255, 191, 0)" stroke-width="20" />  -->
       <circle id="connector0pin" fill="white" r="1.98" stroke="white" cy="3.096" stroke-width="2.16" cx="2.7"/>
       <circle id="connector1pin" fill="white" r="1.98" stroke="white" cy="3.096" stroke-width="2.16" cx="31.5"/>
      </g>
     </g>
    </g>
   </g>
  </g>
  <g partID="307720">
   <g transform="translate(197.158,72.2381)">
    <g transform="matrix(0,1,-1,0,0,0)">
     <g id="copper0">
      <g id="copper1">
       <!-- <rect width="55" x="10" y="15.5" fill="none" height="55" stroke="rgb(255, 191, 0)" stroke-width="20" />  -->
       <circle id="connector0pin" fill="white" r="1.98" stroke="white" cy="3.096" stroke-width="2.16" cx="2.7"/>
       <circle id="connector1pin" fill="white" r="1.98" stroke="white" cy="3.096" stroke-width="2.16" cx="31.5"/>
      </g>
     </g>
    </g>
   </g>
  </g>
  <g partID="939540">
   <g transform="translate(256.702,115.978)">
    <g transform="matrix(0,1,-1,0,0,0)">
     <g id="copper0">
      <circle id="connector0pin" fill="white" r="2.27905" stroke="white" cy="5.04" stroke-width="2.16" cx="5.04"/>
      <circle id="connector1pin" fill="white" r="2.27905" stroke="white" cy="12.24" stroke-width="2.16" cx="5.04"/>
      <circle id="connector2pin" fill="white" r="2.27905" stroke="white" cy="19.44" stroke-width="2.16" cx="5.04"/>
      <circle id="connector3pin" fill="white" r="2.27905" stroke="white" cy="26.64" stroke-width="2.16" cx="5.04"/>
      <circle id="connector4pin" fill="white" r="2.27905" stroke="white" cy="33.84" stroke-width="2.16" cx="5.04"/>
      <circle id="connector5pin" fill="white" r="2.27905" stroke="white" cy="41.04" stroke-width="2.16" cx="5.04"/>
      <circle id="connector6pin" fill="white" r="2.27905" stroke="white" cy="48.24" stroke-width="2.16" cx="5.04"/>
      <circle id="connector7pin" fill="white" r="2.27905" stroke="white" cy="55.44" stroke-width="2.16" cx="5.04"/>
      <circle id="connector8pin" fill="white" r="2.27905" stroke="white" cy="62.64" stroke-width="2.16" cx="5.04"/>
      <circle id="connector9pin" fill="white" r="2.27905" stroke="white" cy="69.84" stroke-width="2.16" cx="5.04"/>
     </g>
    </g>
   </g>
  </g>
  <g partID="307560">
   <g transform="translate(192.622,70.6181)">
    <g transform="matrix(0,-1,1,0,0,0)">
     <g id="copper0">
      <rect id="square" fill="white" stroke="white" width="3.96" height="3.96" stroke-width="2.16" x="2.34" y="2.34"/>
      <circle id="connector0pin" fill="white" r="1.98" stroke="white" cy="4.32" stroke-width="2.16" cx="4.32"/>
      <circle id="connector15pin" fill="white" r="1.98" stroke="white" cy="4.32" stroke-width="2.16" cx="25.92"/>
      <circle id="connector1pin" fill="white" r="1.98" stroke="white" cy="11.52" stroke-width="2.16" cx="4.32"/>
      <circle id="connector14pin" fill="white" r="1.98" stroke="white" cy="11.52" stroke-width="2.16" cx="25.92"/>
      <circle id="connector2pin" fill="white" r="1.98" stroke="white" cy="18.72" stroke-width="2.16" cx="4.32"/>
      <circle id="connector13pin" fill="white" r="1.98" stroke="white" cy="18.72" stroke-width="2.16" cx="25.92"/>
      <circle id="connector3pin" fill="white" r="1.98" stroke="white" cy="25.92" stroke-width="2.16" cx="4.32"/>
      <circle id="connector12pin" fill="white" r="1.98" stroke="white" cy="25.92" stroke-width="2.16" cx="25.92"/>
      <circle id="connector4pin" fill="white" r="1.98" stroke="white" cy="33.12" stroke-width="2.16" cx="4.32"/>
      <circle id="connector11pin" fill="white" r="1.98" stroke="white" cy="33.12" stroke-width="2.16" cx="25.92"/>
      <circle id="connector5pin" fill="white" r="1.98" stroke="white" cy="40.32" stroke-width="2.16" cx="4.32"/>
      <circle id="connector10pin" fill="white" r="1.98" stroke="white" cy="40.32" stroke-width="2.16" cx="25.92"/>
      <circle id="connector6pin" fill="white" r="1.98" stroke="white" cy="47.52" stroke-width="2.16" cx="4.32"/>
      <circle id="connector9pin" fill="white" r="1.98" stroke="white" cy="47.52" stroke-width="2.16" cx="25.92"/>
      <circle id="connector7pin" fill="white" r="1.98" stroke="white" cy="54.72" stroke-width="2.16" cx="4.32"/>
      <circle id="connector8pin" fill="white" r="1.98" stroke="white" cy="54.72" stroke-width="2.16" cx="25.92"/>
     </g>
    </g>
   </g>
  </g>
  <g partID="419260">
   <g transform="translate(164.542,28.1381)">
    <g transform="matrix(0,1,-1,0,0,0)">
     <g id="copper0">
      <circle id="connector16pad" fill="white" r="1.908" stroke="white" cy="10.8" stroke-width="1.944" cx="3.6"/>
      <rect fill="white" stroke="white" width="3.814" stroke-width="1.944" height="3.816" x="1.692" y="8.892"/>
      <circle id="connector17pad" fill="white" r="1.908" stroke="white" cy="18" stroke-width="1.944" cx="3.6"/>
      <circle id="connector18pad" fill="white" r="1.908" stroke="white" cy="25.2" stroke-width="1.944" cx="3.6"/>
      <circle id="connector19pad" fill="white" r="1.908" stroke="white" cy="32.4" stroke-width="1.944" cx="3.6"/>
      <circle id="connector20pad" fill="white" r="1.908" stroke="white" cy="39.6" stroke-width="1.944" cx="3.6"/>
      <circle id="connector21pad" fill="white" r="1.908" stroke="white" cy="46.8" stroke-width="1.944" cx="3.6"/>
      <circle id="connector22pad" fill="white" r="1.908" stroke="white" cy="54" stroke-width="1.944" cx="3.6"/>
      <circle id="connector23pad" fill="white" r="1.908" stroke="white" cy="61.2" stroke-width="1.944" cx="3.6"/>
      <circle id="connector24pad" fill="white" r="1.908" stroke="white" cy="68.4" stroke-width="1.944" cx="3.6"/>
      <circle id="connector25pad" fill="white" r="1.908" stroke="white" cy="75.6" stroke-width="1.944" cx="3.6"/>
      <circle id="connector26pad" fill="white" r="1.908" stroke="white" cy="82.8" stroke-width="1.944" cx="3.6"/>
      <circle id="connector27pad" fill="white" r="1.908" stroke="white" cy="90" stroke-width="1.944" cx="3.6"/>
      <circle id="connector28pad" fill="white" r="1.908" stroke="white" cy="97.2" stroke-width="1.944" cx="3.6"/>
      <circle id="connector29pad" fill="white" r="1.908" stroke="white" cy="104.4" stroke-width="1.944" cx="3.6"/>
      <circle id="connector30pad" fill="white" r="1.908" stroke="white" cy="111.6" stroke-width="1.944" cx="3.6"/>
      <circle id="connector31pad" fill="white" r="1.908" stroke="white" cy="10.8" stroke-width="1.944" cx="46.8"/>
      <circle id="connector32pad" fill="white" r="1.908" stroke="white" cy="18" stroke-width="1.944" cx="46.8"/>
      <circle id="connector33pad" fill="white" r="1.908" stroke="white" cy="25.2" stroke-width="1.944" cx="46.8"/>
      <circle id="connector34pad" fill="white" r="1.908" stroke="white" cy="32.4" stroke-width="1.944" cx="46.8"/>
      <circle id="connector35pad" fill="white" r="1.908" stroke="white" cy="39.6" stroke-width="1.944" cx="46.8"/>
      <circle id="connector36pad" fill="white" r="1.908" stroke="white" cy="46.8" stroke-width="1.944" cx="46.8"/>
      <circle id="connector37pad" fill="white" r="1.908" stroke="white" cy="54" stroke-width="1.944" cx="46.8"/>
      <circle id="connector38pad" fill="white" r="1.908" stroke="white" cy="61.2" stroke-width="1.944" cx="46.8"/>
      <circle id="connector39pad" fill="white" r="1.908" stroke="white" cy="68.4" stroke-width="1.944" cx="46.8"/>
      <circle id="connector40pad" fill="white" r="1.908" stroke="white" cy="75.6" stroke-width="1.944" cx="46.8"/>
      <circle id="connector41pad" fill="white" r="1.908" stroke="white" cy="82.8" stroke-width="1.944" cx="46.8"/>
      <circle id="connector42pad" fill="white" r="1.908" stroke="white" cy="90" stroke-width="1.944" cx="46.8"/>
      <circle id="connector43pad" fill="white" r="1.908" stroke="white" cy="97.2" stroke-width="1.944" cx="46.8"/>
      <circle id="connector44pad" fill="white" r="1.908" stroke="white" cy="104.4" stroke-width="1.944" cx="46.8"/>
      <circle id="connector45pad" fill="white" r="1.908" stroke="white" cy="111.6" stroke-width="1.944" cx="46.8"/>
     </g>
    </g>
   </g>
  </g>
 </g>
</svg>
