<?xml version='1.0' encoding='UTF-8' standalone='no'?>
<!-- Created with Fritzing (http://www.fritzing.org/) -->
<svg xmlns="http://www.w3.org/2000/svg" viewBox="0 0 283.465 141.732" baseProfile="tiny"  version="1.2" width="3.93701in" height="1.9685in" x="0in" xmlns:svg="http://www.w3.org/2000/svg" y="0in">
 <g transform="matrix(-1, 0, 0, 1, 283.465, 0)">
  <g partID="313440">
   <g id="board" >
    <rect id="boardoutline" fill="none"  stroke="black" fill-opacity="0.5" width="282.889" stroke-width="0.5" height="141.156" x="0.288" y="0.288"/>
   </g>
  </g>
  <g partID="931540">
   <g transform="translate(84.5074,51.7834)">
    <g id="copper0" >
     <circle id="nonconn0" fill="black" r="2.83465"  stroke="black" cy="4.43465" stroke-width="0" cx="4.43465"/>
    </g>
   </g>
  </g>
  <g partID="859370">
   <g transform="translate(40.2387,36.4442)">
    <g transform="matrix(0.911029,0.412342,-0.412342,0.911029,0,0)">
     <g id="copper0" >
      <g id="copper1" >
       <!-- <rect width="55" x="10" y="15.5" fill="none" height="55" stroke="rgb(255, 191, 0)" stroke-width="20" />  -->
       <circle id="connector0pin" fill="none" r="1.98"  stroke="black" cy="3.096" stroke-width="1.44" cx="2.7"/>
       <circle id="connector1pin" fill="none" r="1.98"  stroke="black" cy="3.096" stroke-width="1.44" cx="31.5"/>
      </g>
     </g>
    </g>
   </g>
  </g>
  <g partID="939580">
   <g transform="translate(164.542,97.2581)">
    <g transform="matrix(0,1,-1,0,0,0)">
     <g id="copper0" >
      <circle id="connector0pin" fill="none" r="2.088"  stroke="black" cy="5.04" stroke-width="1.44" cx="5.04"/>
      <circle id="connector1pin" fill="none" r="2.088"  stroke="black" cy="12.24" stroke-width="1.44" cx="5.04"/>
     </g>
    </g>
   </g>
  </g>
  <g partID="426140">
   <g transform="translate(7.94904,115.625)">
    <g id="copper0" >
     <circle id="nonconn0" fill="black" r="5.95276"  stroke="black" cy="7.55273" stroke-width="0" cx="7.55273"/>
    </g>
   </g>
  </g>
  <g partID="426130">
   <g transform="translate(263.549,115.625)">
    <g id="copper0" >
     <circle id="nonconn0" fill="black" r="5.95276"  stroke="black" cy="7.55273" stroke-width="0" cx="7.55273"/>
    </g>
   </g>
  </g>
  <g partID="426110">
   <g transform="translate(7.94904,5.46532)">
    <g id="copper0" >
     <circle id="nonconn0" fill="black" r="5.95276"  stroke="black" cy="7.55273" stroke-width="0" cx="7.55273"/>
    </g>
   </g>
  </g>
  <g partID="426080">
   <g transform="translate(263.549,5.46531)">
    <g id="copper0" >
     <circle id="nonconn0" fill="black" r="5.95276"  stroke="black" cy="7.55273" stroke-width="0" cx="7.55273"/>
    </g>
   </g>
  </g>
  <g partID="939520">
   <g transform="translate(50.7818,100.138)">
    <g transform="matrix(0,-1,1,0,0,0)">
     <g id="copper0" >
      <circle id="connector0pin" fill="none" r="2.088"  stroke="black" cy="5.04" stroke-width="1.44" cx="5.04"/>
      <circle id="connector1pin" fill="none" r="2.088"  stroke="black" cy="12.24" stroke-width="1.44" cx="5.04"/>
      <circle id="connector2pin" fill="none" r="2.088"  stroke="black" cy="19.44" stroke-width="1.44" cx="5.04"/>
      <circle id="connector3pin" fill="none" r="2.088"  stroke="black" cy="26.64" stroke-width="1.44" cx="5.04"/>
      <circle id="connector4pin" fill="none" r="2.088"  stroke="black" cy="33.84" stroke-width="1.44" cx="5.04"/>
      <circle id="connector5pin" fill="none" r="2.088"  stroke="black" cy="41.04" stroke-width="1.44" cx="5.04"/>
      <circle id="connector6pin" fill="none" r="2.088"  stroke="black" cy="48.24" stroke-width="1.44" cx="5.04"/>
      <circle id="connector7pin" fill="none" r="2.088"  stroke="black" cy="55.44" stroke-width="1.44" cx="5.04"/>
      <circle id="connector8pin" fill="none" r="2.088"  stroke="black" cy="62.64" stroke-width="1.44" cx="5.04"/>
      <circle id="connector9pin" fill="none" r="2.088"  stroke="black" cy="69.84" stroke-width="1.44" cx="5.04"/>
     </g>
    </g>
   </g>
  </g>
  <g partID="939620">
   <g transform="translate(173.182,52.6181)">
    <g id="copper0" >
     <circle id="connector0pin" fill="none" r="2.088"  stroke="black" cy="5.04" stroke-width="1.44" cx="5.04"/>
     <circle id="connector1pin" fill="none" r="2.088"  stroke="black" cy="12.24" stroke-width="1.44" cx="5.04"/>
    </g>
   </g>
  </g>
  <g partID="324610">
   <g transform="translate(254.758,77.9981)">
    <g transform="matrix(2.22045e-16,1,-1,2.22045e-16,0,0)">
     <g id="copper0" >
      <g id="copper1" >
       <!-- <rect width="55" x="10" y="15.5" fill="none" height="55" stroke="rgb(255, 191, 0)" stroke-width="20" />  -->
       <circle id="connector0pin" fill="none" r="1.98"  stroke="black" cy="3.096" stroke-width="1.44" cx="2.7"/>
       <circle id="connector1pin" fill="none" r="1.98"  stroke="black" cy="3.096" stroke-width="1.44" cx="31.5"/>
      </g>
     </g>
    </g>
   </g>
  </g>
  <g partID="345230">
   <g transform="translate(151.582,90.0581)">
    <g transform="matrix(0,-1,1,0,0,0)">
     <g id="copper0" >
      <circle id="connector0pin" fill="none" r="2.088"  stroke="black" cy="5.04" stroke-width="1.44" cx="5.04"/>
      <circle id="connector1pin" fill="none" r="2.088"  stroke="black" cy="12.24" stroke-width="1.44" cx="5.04"/>
     </g>
    </g>
   </g>
  </g>
  <g partID="885350">
   <g transform="translate(117.922,130.918)">
    <g transform="matrix(-2.22045e-16,-1,1,-2.22045e-16,0,0)">
     <g id="copper0" >
      <g id="copper1" >
       <!-- <rect width="55" x="10" y="10" fill="none" height="55" stroke="rgb(255, 191, 0)" stroke-width="20" /> -->
       <circle id="connector0pin" fill="none" r="1.98"  stroke="black" cy="2.7" stroke-width="1.44" cx="2.7"/>
       <circle id="connector1pin" fill="none" r="1.98"  stroke="black" cy="2.7" stroke-width="1.44" cx="24.3"/>
      </g>
     </g>
    </g>
   </g>
  </g>
  <g partID="885330">
   <g transform="translate(110.326,135.238)">
    <g transform="matrix(-2.22045e-16,-1,1,-2.22045e-16,0,0)">
     <g id="copper0" >
      <g id="copper1" >
       <!-- <rect width="55" x="10" y="15.5" fill="none" height="55" stroke="rgb(255, 191, 0)" stroke-width="20" />  -->
       <circle id="connector0pin" fill="none" r="1.98"  stroke="black" cy="3.096" stroke-width="1.44" cx="2.7"/>
       <circle id="connector1pin" fill="none" r="1.98"  stroke="black" cy="3.096" stroke-width="1.44" cx="31.5"/>
      </g>
     </g>
    </g>
   </g>
  </g>
  <g partID="885310">
   <g transform="translate(103.522,130.918)">
    <g transform="matrix(-2.22045e-16,-1,1,-2.22045e-16,0,0)">
     <g id="copper0" >
      <g id="copper1" >
       <!-- <rect width="55" x="10" y="10" fill="none" height="55" stroke="rgb(255, 191, 0)" stroke-width="20" /> -->
       <circle id="connector0pin" fill="none" r="1.98"  stroke="black" cy="2.7" stroke-width="1.44" cx="2.7"/>
       <circle id="connector1pin" fill="none" r="1.98"  stroke="black" cy="2.7" stroke-width="1.44" cx="24.3"/>
      </g>
     </g>
    </g>
   </g>
  </g>
  <g partID="885290">
   <g transform="translate(95.9258,135.238)">
    <g transform="matrix(-2.22045e-16,-1,1,-2.22045e-16,0,0)">
     <g id="copper0" >
      <g id="copper1" >
       <!-- <rect width="55" x="10" y="15.5" fill="none" height="55" stroke="rgb(255, 191, 0)" stroke-width="20" />  -->
       <circle id="connector0pin" fill="none" r="1.98"  stroke="black" cy="3.096" stroke-width="1.44" cx="2.7"/>
       <circle id="connector1pin" fill="none" r="1.98"  stroke="black" cy="3.096" stroke-width="1.44" cx="31.5"/>
      </g>
     </g>
    </g>
   </g>
  </g>
  <g partID="885270">
   <g transform="translate(89.1218,130.918)">
    <g transform="matrix(-2.22045e-16,-1,1,-2.22045e-16,0,0)">
     <g id="copper0" >
      <g id="copper1" >
       <!-- <rect width="55" x="10" y="10" fill="none" height="55" stroke="rgb(255, 191, 0)" stroke-width="20" /> -->
       <circle id="connector0pin" fill="none" r="1.98"  stroke="black" cy="2.7" stroke-width="1.44" cx="2.7"/>
       <circle id="connector1pin" fill="none" r="1.98"  stroke="black" cy="2.7" stroke-width="1.44" cx="24.3"/>
      </g>
     </g>
    </g>
   </g>
  </g>
  <g partID="885250">
   <g transform="translate(81.5258,135.238)">
    <g transform="matrix(-2.22045e-16,-1,1,-2.22045e-16,0,0)">
     <g id="copper0" >
      <g id="copper1" >
       <!-- <rect width="55" x="10" y="15.5" fill="none" height="55" stroke="rgb(255, 191, 0)" stroke-width="20" />  -->
       <circle id="connector0pin" fill="none" r="1.98"  stroke="black" cy="3.096" stroke-width="1.44" cx="2.7"/>
       <circle id="connector1pin" fill="none" r="1.98"  stroke="black" cy="3.096" stroke-width="1.44" cx="31.5"/>
      </g>
     </g>
    </g>
   </g>
  </g>
  <g partID="885230">
   <g transform="translate(74.7218,130.918)">
    <g transform="matrix(-2.22045e-16,-1,1,-2.22045e-16,0,0)">
     <g id="copper0" >
      <g id="copper1" >
       <!-- <rect width="55" x="10" y="10" fill="none" height="55" stroke="rgb(255, 191, 0)" stroke-width="20" /> -->
       <circle id="connector0pin" fill="none" r="1.98"  stroke="black" cy="2.7" stroke-width="1.44" cx="2.7"/>
       <circle id="connector1pin" fill="none" r="1.98"  stroke="black" cy="2.7" stroke-width="1.44" cx="24.3"/>
      </g>
     </g>
    </g>
   </g>
  </g>
  <g partID="885210">
   <g transform="translate(67.1258,135.238)">
    <g transform="matrix(-2.22045e-16,-1,1,-2.22045e-16,0,0)">
     <g id="copper0" >
      <g id="copper1" >
       <!-- <rect width="55" x="10" y="15.5" fill="none" height="55" stroke="rgb(255, 191, 0)" stroke-width="20" />  -->
       <circle id="connector0pin" fill="none" r="1.98"  stroke="black" cy="3.096" stroke-width="1.44" cx="2.7"/>
       <circle id="connector1pin" fill="none" r="1.98"  stroke="black" cy="3.096" stroke-width="1.44" cx="31.5"/>
      </g>
     </g>
    </g>
   </g>
  </g>
  <g partID="881460">
   <g transform="translate(60.3218,130.918)">
    <g transform="matrix(-2.22045e-16,-1,1,-2.22045e-16,0,0)">
     <g id="copper0" >
      <g id="copper1" >
       <!-- <rect width="55" x="10" y="10" fill="none" height="55" stroke="rgb(255, 191, 0)" stroke-width="20" /> -->
       <circle id="connector0pin" fill="none" r="1.98"  stroke="black" cy="2.7" stroke-width="1.44" cx="2.7"/>
       <circle id="connector1pin" fill="none" r="1.98"  stroke="black" cy="2.7" stroke-width="1.44" cx="24.3"/>
      </g>
     </g>
    </g>
   </g>
  </g>
  <g partID="879330">
   <g transform="translate(52.7258,135.238)">
    <g transform="matrix(-2.22045e-16,-1,1,-2.22045e-16,0,0)">
     <g id="copper0" >
      <g id="copper1" >
       <!-- <rect width="55" x="10" y="15.5" fill="none" height="55" stroke="rgb(255, 191, 0)" stroke-width="20" />  -->
       <circle id="connector0pin" fill="none" r="1.98"  stroke="black" cy="3.096" stroke-width="1.44" cx="2.7"/>
       <circle id="connector1pin" fill="none" r="1.98"  stroke="black" cy="3.096" stroke-width="1.44" cx="31.5"/>
      </g>
     </g>
    </g>
   </g>
  </g>
  <g partID="307920">
   <g transform="translate(121.742,45.3063)">
    <g transform="matrix(0.962591,0.270958,-0.270958,0.962591,0,0)">
     <g id="copper0" >
      <g id="copper1" >
       <!-- <rect width="55" x="10" y="15.5" fill="none" height="55" stroke="rgb(255, 191, 0)" stroke-width="20" />  -->
       <circle id="connector0pin" fill="none" r="1.98"  stroke="black" cy="3.096" stroke-width="1.44" cx="2.7"/>
       <circle id="connector1pin" fill="none" r="1.98"  stroke="black" cy="3.096" stroke-width="1.44" cx="31.5"/>
      </g>
     </g>
    </g>
   </g>
  </g>
  <g partID="307900">
   <g transform="translate(201.442,30.9461)">
    <g transform="matrix(1,-1.11022e-16,1.11022e-16,1,0,0)">
     <g id="copper0" >
      <g id="copper1" >
       <!-- <rect width="55" x="10" y="23.5" fill="none" height="55" stroke="rgb(255, 191, 0)" stroke-width="20" /> -->
       <circle id="connector0pin" fill="none" r="1.98"  stroke="black" cy="3.672" stroke-width="1.44" cx="2.7"/>
       <circle id="connector1pin" fill="none" r="1.98"  stroke="black" cy="3.672" stroke-width="1.44" cx="38.7"/>
      </g>
     </g>
    </g>
   </g>
  </g>
  <g partID="307880">
   <g transform="translate(240.358,72.2381)">
    <g transform="matrix(0,1,-1,0,0,0)">
     <g id="copper0" >
      <g id="copper1" >
       <!-- <rect width="55" x="10" y="15.5" fill="none" height="55" stroke="rgb(255, 191, 0)" stroke-width="20" />  -->
       <circle id="connector0pin" fill="none" r="1.98"  stroke="black" cy="3.096" stroke-width="1.44" cx="2.7"/>
       <circle id="connector1pin" fill="none" r="1.98"  stroke="black" cy="3.096" stroke-width="1.44" cx="31.5"/>
      </g>
     </g>
    </g>
   </g>
  </g>
  <g partID="307860">
   <g transform="translate(233.158,77.9981)">
    <g transform="matrix(0,1,-1,0,0,0)">
     <g id="copper0" >
      <g id="copper1" >
       <!-- <rect width="55" x="10" y="15.5" fill="none" height="55" stroke="rgb(255, 191, 0)" stroke-width="20" />  -->
       <circle id="connector0pin" fill="none" r="1.98"  stroke="black" cy="3.096" stroke-width="1.44" cx="2.7"/>
       <circle id="connector1pin" fill="none" r="1.98"  stroke="black" cy="3.096" stroke-width="1.44" cx="31.5"/>
      </g>
     </g>
    </g>
   </g>
  </g>
  <g partID="307840">
   <g transform="translate(225.958,72.2381)">
    <g transform="matrix(0,1,-1,0,0,0)">
     <g id="copper0" >
      <g id="copper1" >
       <!-- <rect width="55" x="10" y="15.5" fill="none" height="55" stroke="rgb(255, 191, 0)" stroke-width="20" />  -->
       <circle id="connector0pin" fill="none" r="1.98"  stroke="black" cy="3.096" stroke-width="1.44" cx="2.7"/>
       <circle id="connector1pin" fill="none" r="1.98"  stroke="black" cy="3.096" stroke-width="1.44" cx="31.5"/>
      </g>
     </g>
    </g>
   </g>
  </g>
  <g partID="307820">
   <g transform="translate(218.758,77.9981)">
    <g transform="matrix(0,1,-1,0,0,0)">
     <g id="copper0" >
      <g id="copper1" >
       <!-- <rect width="55" x="10" y="15.5" fill="none" height="55" stroke="rgb(255, 191, 0)" stroke-width="20" />  -->
       <circle id="connector0pin" fill="none" r="1.98"  stroke="black" cy="3.096" stroke-width="1.44" cx="2.7"/>
       <circle id="connector1pin" fill="none" r="1.98"  stroke="black" cy="3.096" stroke-width="1.44" cx="31.5"/>
      </g>
     </g>
    </g>
   </g>
  </g>
  <g partID="307800">
   <g transform="translate(211.558,72.2381)">
    <g transform="matrix(0,1,-1,0,0,0)">
     <g id="copper0" >
      <g id="copper1" >
       <!-- <rect width="55" x="10" y="15.5" fill="none" height="55" stroke="rgb(255, 191, 0)" stroke-width="20" />  -->
       <circle id="connector0pin" fill="none" r="1.98"  stroke="black" cy="3.096" stroke-width="1.44" cx="2.7"/>
       <circle id="connector1pin" fill="none" r="1.98"  stroke="black" cy="3.096" stroke-width="1.44" cx="31.5"/>
      </g>
     </g>
    </g>
   </g>
  </g>
  <g partID="307780">
   <g transform="translate(204.358,77.9981)">
    <g transform="matrix(0,1,-1,0,0,0)">
     <g id="copper0" >
      <g id="copper1" >
       <!-- <rect width="55" x="10" y="15.5" fill="none" height="55" stroke="rgb(255, 191, 0)" stroke-width="20" />  -->
       <circle id="connector0pin" fill="none" r="1.98"  stroke="black" cy="3.096" stroke-width="1.44" cx="2.7"/>
       <circle id="connector1pin" fill="none" r="1.98"  stroke="black" cy="3.096" stroke-width="1.44" cx="31.5"/>
      </g>
     </g>
    </g>
   </g>
  </g>
  <g partID="307720">
   <g transform="translate(197.158,72.2381)">
    <g transform="matrix(0,1,-1,0,0,0)">
     <g id="copper0" >
      <g id="copper1" >
       <!-- <rect width="55" x="10" y="15.5" fill="none" height="55" stroke="rgb(255, 191, 0)" stroke-width="20" />  -->
       <circle id="connector0pin" fill="none" r="1.98"  stroke="black" cy="3.096" stroke-width="1.44" cx="2.7"/>
       <circle id="connector1pin" fill="none" r="1.98"  stroke="black" cy="3.096" stroke-width="1.44" cx="31.5"/>
      </g>
     </g>
    </g>
   </g>
  </g>
  <g partID="939540">
   <g transform="translate(256.702,115.978)">
    <g transform="matrix(0,1,-1,0,0,0)">
     <g id="copper0" >
      <circle id="connector0pin" fill="none" r="2.27905"  stroke="black" cy="5.04" stroke-width="1.44" cx="5.04"/>
      <circle id="connector1pin" fill="none" r="2.27905"  stroke="black" cy="12.24" stroke-width="1.44" cx="5.04"/>
      <circle id="connector2pin" fill="none" r="2.27905"  stroke="black" cy="19.44" stroke-width="1.44" cx="5.04"/>
      <circle id="connector3pin" fill="none" r="2.27905"  stroke="black" cy="26.64" stroke-width="1.44" cx="5.04"/>
      <circle id="connector4pin" fill="none" r="2.27905"  stroke="black" cy="33.84" stroke-width="1.44" cx="5.04"/>
      <circle id="connector5pin" fill="none" r="2.27905"  stroke="black" cy="41.04" stroke-width="1.44" cx="5.04"/>
      <circle id="connector6pin" fill="none" r="2.27905"  stroke="black" cy="48.24" stroke-width="1.44" cx="5.04"/>
      <circle id="connector7pin" fill="none" r="2.27905"  stroke="black" cy="55.44" stroke-width="1.44" cx="5.04"/>
      <circle id="connector8pin" fill="none" r="2.27905"  stroke="black" cy="62.64" stroke-width="1.44" cx="5.04"/>
      <circle id="connector9pin" fill="none" r="2.27905"  stroke="black" cy="69.84" stroke-width="1.44" cx="5.04"/>
     </g>
    </g>
   </g>
  </g>
  <g partID="307560">
   <g transform="translate(192.622,70.6181)">
    <g transform="matrix(0,-1,1,0,0,0)">
     <g id="copper0" >
      <rect id="square" fill="none"  stroke="black" width="3.96" height="3.96" stroke-width="1.44" x="2.34" y="2.34"/>
      <circle id="connector0pin" fill="none" r="1.98"  stroke="black" cy="4.32" stroke-width="1.44" cx="4.32"/>
      <circle id="connector15pin" fill="none" r="1.98"  stroke="black" cy="4.32" stroke-width="1.44" cx="25.92"/>
      <circle id="connector1pin" fill="none" r="1.98"  stroke="black" cy="11.52" stroke-width="1.44" cx="4.32"/>
      <circle id="connector14pin" fill="none" r="1.98"  stroke="black" cy="11.52" stroke-width="1.44" cx="25.92"/>
      <circle id="connector2pin" fill="none" r="1.98"  stroke="black" cy="18.72" stroke-width="1.44" cx="4.32"/>
      <circle id="connector13pin" fill="none" r="1.98"  stroke="black" cy="18.72" stroke-width="1.44" cx="25.92"/>
      <circle id="connector3pin" fill="none" r="1.98"  stroke="black" cy="25.92" stroke-width="1.44" cx="4.32"/>
      <circle id="connector12pin" fill="none" r="1.98"  stroke="black" cy="25.92" stroke-width="1.44" cx="25.92"/>
      <circle id="connector4pin" fill="none" r="1.98"  stroke="black" cy="33.12" stroke-width="1.44" cx="4.32"/>
      <circle id="connector11pin" fill="none" r="1.98"  stroke="black" cy="33.12" stroke-width="1.44" cx="25.92"/>
      <circle id="connector5pin" fill="none" r="1.98"  stroke="black" cy="40.32" stroke-width="1.44" cx="4.32"/>
      <circle id="connector10pin" fill="none" r="1.98"  stroke="black" cy="40.32" stroke-width="1.44" cx="25.92"/>
      <circle id="connector6pin" fill="none" r="1.98"  stroke="black" cy="47.52" stroke-width="1.44" cx="4.32"/>
      <circle id="connector9pin" fill="none" r="1.98"  stroke="black" cy="47.52" stroke-width="1.44" cx="25.92"/>
      <circle id="connector7pin" fill="none" r="1.98"  stroke="black" cy="54.72" stroke-width="1.44" cx="4.32"/>
      <circle id="connector8pin" fill="none" r="1.98"  stroke="black" cy="54.72" stroke-width="1.44" cx="25.92"/>
     </g>
    </g>
   </g>
  </g>
  <g partID="419260">
   <g transform="translate(164.542,28.1381)">
    <g transform="matrix(0,1,-1,0,0,0)">
     <g id="copper0" >
      <circle id="connector16pad" fill="none" r="1.908"  stroke="black" cy="10.8" stroke-width="1.224" cx="3.6"/>
      <rect fill="none"  stroke="black" width="3.814" stroke-width="1.224" height="3.816" x="1.692" y="8.892"/>
      <circle id="connector17pad" fill="none" r="1.908"  stroke="black" cy="18" stroke-width="1.224" cx="3.6"/>
      <circle id="connector18pad" fill="none" r="1.908"  stroke="black" cy="25.2" stroke-width="1.224" cx="3.6"/>
      <circle id="connector19pad" fill="none" r="1.908"  stroke="black" cy="32.4" stroke-width="1.224" cx="3.6"/>
      <circle id="connector20pad" fill="none" r="1.908"  stroke="black" cy="39.6" stroke-width="1.224" cx="3.6"/>
      <circle id="connector21pad" fill="none" r="1.908"  stroke="black" cy="46.8" stroke-width="1.224" cx="3.6"/>
      <circle id="connector22pad" fill="none" r="1.908"  stroke="black" cy="54" stroke-width="1.224" cx="3.6"/>
      <circle id="connector23pad" fill="none" r="1.908"  stroke="black" cy="61.2" stroke-width="1.224" cx="3.6"/>
      <circle id="connector24pad" fill="none" r="1.908"  stroke="black" cy="68.4" stroke-width="1.224" cx="3.6"/>
      <circle id="connector25pad" fill="none" r="1.908"  stroke="black" cy="75.6" stroke-width="1.224" cx="3.6"/>
      <circle id="connector26pad" fill="none" r="1.908"  stroke="black" cy="82.8" stroke-width="1.224" cx="3.6"/>
      <circle id="connector27pad" fill="none" r="1.908"  stroke="black" cy="90" stroke-width="1.224" cx="3.6"/>
      <circle id="connector28pad" fill="none" r="1.908"  stroke="black" cy="97.2" stroke-width="1.224" cx="3.6"/>
      <circle id="connector29pad" fill="none" r="1.908"  stroke="black" cy="104.4" stroke-width="1.224" cx="3.6"/>
      <circle id="connector30pad" fill="none" r="1.908"  stroke="black" cy="111.6" stroke-width="1.224" cx="3.6"/>
      <circle id="connector31pad" fill="none" r="1.908"  stroke="black" cy="10.8" stroke-width="1.224" cx="46.8"/>
      <circle id="connector32pad" fill="none" r="1.908"  stroke="black" cy="18" stroke-width="1.224" cx="46.8"/>
      <circle id="connector33pad" fill="none" r="1.908"  stroke="black" cy="25.2" stroke-width="1.224" cx="46.8"/>
      <circle id="connector34pad" fill="none" r="1.908"  stroke="black" cy="32.4" stroke-width="1.224" cx="46.8"/>
      <circle id="connector35pad" fill="none" r="1.908"  stroke="black" cy="39.6" stroke-width="1.224" cx="46.8"/>
      <circle id="connector36pad" fill="none" r="1.908"  stroke="black" cy="46.8" stroke-width="1.224" cx="46.8"/>
      <circle id="connector37pad" fill="none" r="1.908"  stroke="black" cy="54" stroke-width="1.224" cx="46.8"/>
      <circle id="connector38pad" fill="none" r="1.908"  stroke="black" cy="61.2" stroke-width="1.224" cx="46.8"/>
      <circle id="connector39pad" fill="none" r="1.908"  stroke="black" cy="68.4" stroke-width="1.224" cx="46.8"/>
      <circle id="connector40pad" fill="none" r="1.908"  stroke="black" cy="75.6" stroke-width="1.224" cx="46.8"/>
      <circle id="connector41pad" fill="none" r="1.908"  stroke="black" cy="82.8" stroke-width="1.224" cx="46.8"/>
      <circle id="connector42pad" fill="none" r="1.908"  stroke="black" cy="90" stroke-width="1.224" cx="46.8"/>
      <circle id="connector43pad" fill="none" r="1.908"  stroke="black" cy="97.2" stroke-width="1.224" cx="46.8"/>
      <circle id="connector44pad" fill="none" r="1.908"  stroke="black" cy="104.4" stroke-width="1.224" cx="46.8"/>
      <circle id="connector45pad" fill="none" r="1.908"  stroke="black" cy="111.6" stroke-width="1.224" cx="46.8"/>
     </g>
    </g>
   </g>
  </g>
  <g partID="933910">
   <line y2="30.4894" stroke="black" stroke-linecap="round" y1="5.81471" stroke-width="1.152" x2="103.689" x1="110.549"/>
  </g>
  <g partID="934070">
   <line y2="24.4846" stroke="black" stroke-linecap="round" y1="30.365" stroke-width="1.152" x2="240.21" x1="264.613"/>
  </g>
  <g partID="934020">
   <line y2="7.28472" stroke="black" stroke-linecap="round" y1="24.4846" stroke-width="1.152" x2="240.21" x1="240.21"/>
  </g>
  <g partID="933970">
   <line y2="5.81471" stroke="black" stroke-linecap="round" y1="7.28478" stroke-width="1.152" x2="110.549" x1="240.21"/>
  </g>
  <g partID="940000">
   <line y2="30.365" stroke="black" stroke-linecap="round" y1="76.3927" stroke-width="1.152" x2="264.613" x1="264.595"/>
  </g>
  <g partID="933920">
   <line y2="76.3927" stroke="black" stroke-linecap="round" y1="80.3001" stroke-width="1.152" x2="264.595" x1="252.857"/>
  </g>
  <g partID="937510">
   <line y2="104.998" stroke="black" stroke-linecap="round" y1="119.459" stroke-width="0.799999" x2="194.062" x1="194.062"/>
  </g>
  <g partID="937570">
   <line y2="119.459" stroke="black" stroke-linecap="round" y1="110.758" stroke-width="0.799999" x2="201.262" x1="201.262"/>
  </g>
  <g partID="937770">
   <line y2="104.998" stroke="black" stroke-linecap="round" y1="119.459" stroke-width="0.799999" x2="208.462" x1="208.462"/>
  </g>
  <g partID="937810">
   <line y2="110.758" stroke="black" stroke-linecap="round" y1="119.459" stroke-width="0.799999" x2="215.662" x1="215.662"/>
  </g>
  <g partID="937850">
   <line y2="104.998" stroke="black" stroke-linecap="round" y1="119.459" stroke-width="0.799999" x2="222.862" x1="222.862"/>
  </g>
  <g partID="937890">
   <line y2="110.758" stroke="black" stroke-linecap="round" y1="119.459" stroke-width="0.799999" x2="230.062" x1="230.062"/>
  </g>
  <g partID="937930">
   <line y2="104.998" stroke="black" stroke-linecap="round" y1="119.459" stroke-width="0.799999" x2="237.262" x1="237.262"/>
  </g>
  <g partID="939970">
   <line y2="34.6282" stroke="black" stroke-linecap="round" y1="72.0815" stroke-width="0.799999" x2="255.94" x1="255.973"/>
  </g>
  <g partID="938100">
   <line y2="72.0815" stroke="black" stroke-linecap="round" y1="77.8298" stroke-width="0.799999" x2="255.973" x1="244.476"/>
  </g>
  <g partID="938010">
   <line y2="34.6189" stroke="black" stroke-linecap="round" y1="34.6282" stroke-width="0.799999" x2="241.402" x1="255.939"/>
  </g>
  <g partID="937970">
   <line y2="77.8298" stroke="black" stroke-linecap="round" y1="119.459" stroke-width="0.799999" x2="244.476" x1="244.462"/>
  </g>
  <g partID="938060">
   <line y2="110.758" stroke="black" stroke-linecap="round" y1="119.459" stroke-width="0.799999" x2="251.662" x1="251.662"/>
  </g>
  <g partID="940090">
   <line y2="120.82" stroke="black" stroke-linecap="round" y1="118.234" stroke-width="0.799999" x2="185.315" x1="165.183"/>
  </g>
  <g partID="938440">
   <line y2="118.234" stroke="black" stroke-linecap="round" y1="103.587" stroke-width="0.799999" x2="165.183" x1="159.961"/>
  </g>
  <g partID="886720">
   <line y2="102.478" stroke="black" stroke-linecap="round" y1="96.4661" stroke-width="1.728" x2="55.8218" x1="55.8218"/>
  </g>
  <g partID="886810">
   <line y2="105.358" stroke="black" stroke-linecap="round" y1="96.4661" stroke-width="1.728" x2="63.0218" x1="63.0218"/>
  </g>
  <g partID="886920">
   <line y2="102.478" stroke="black" stroke-linecap="round" y1="96.4661" stroke-width="1.728" x2="70.2218" x1="70.2218"/>
  </g>
  <g partID="887050">
   <line y2="105.358" stroke="black" stroke-linecap="round" y1="96.4661" stroke-width="1.728" x2="77.4218" x1="77.4218"/>
  </g>
  <g partID="887200">
   <line y2="102.478" stroke="black" stroke-linecap="round" y1="96.4661" stroke-width="1.728" x2="84.6218" x1="84.6218"/>
  </g>
  <g partID="887370">
   <line y2="105.358" stroke="black" stroke-linecap="round" y1="96.4661" stroke-width="1.728" x2="91.8218" x1="91.8218"/>
  </g>
  <g partID="887540">
   <line y2="102.478" stroke="black" stroke-linecap="round" y1="96.4661" stroke-width="1.728" x2="99.0218" x1="99.0218"/>
  </g>
  <g partID="887610">
   <line y2="105.358" stroke="black" stroke-linecap="round" y1="96.4661" stroke-width="1.728" x2="106.222" x1="106.222"/>
  </g>
  <g partID="887680">
   <line y2="102.478" stroke="black" stroke-linecap="round" y1="96.4661" stroke-width="1.728" x2="113.422" x1="113.422"/>
  </g>
  <g partID="887790">
   <line y2="105.358" stroke="black" stroke-linecap="round" y1="96.4661" stroke-width="1.728" x2="120.622" x1="120.622"/>
  </g>
  <g partID="887900">
   <line y2="128.866" stroke="black" stroke-linecap="round" y1="131.89" stroke-width="1.728" x2="119.541" x1="114.502"/>
  </g>
  <g partID="887930">
   <line y2="131.89" stroke="black" stroke-linecap="round" y1="128.866" stroke-width="1.728" x2="112.341" x1="107.302"/>
  </g>
  <g partID="887960">
   <line y2="128.866" stroke="black" stroke-linecap="round" y1="131.89" stroke-width="1.728" x2="105.141" x1="100.102"/>
  </g>
  <g partID="887990">
   <line y2="131.89" stroke="black" stroke-linecap="round" y1="128.866" stroke-width="1.728" x2="97.9414" x1="92.9023"/>
  </g>
  <g partID="888020">
   <line y2="128.866" stroke="black" stroke-linecap="round" y1="131.89" stroke-width="1.728" x2="90.7414" x1="85.7023"/>
  </g>
  <g partID="888050">
   <line y2="131.89" stroke="black" stroke-linecap="round" y1="128.866" stroke-width="1.728" x2="83.5414" x1="78.5023"/>
  </g>
  <g partID="888100">
   <line y2="128.866" stroke="black" stroke-linecap="round" y1="131.89" stroke-width="1.728" x2="76.3414" x1="71.3023"/>
  </g>
  <g partID="888190">
   <line y2="131.89" stroke="black" stroke-linecap="round" y1="128.866" stroke-width="1.728" x2="69.1414" x1="64.1023"/>
  </g>
  <g partID="888380">
   <line y2="128.866" stroke="black" stroke-linecap="round" y1="131.89" stroke-width="1.728" x2="61.9414" x1="56.9023"/>
  </g>
  <g partID="888660">
   <line y2="103.518" stroke="black" stroke-linecap="round" y1="116.631" stroke-width="1.728" x2="151.683" x1="145.031"/>
  </g>
  <g partID="888790">
   <line y2="102.174" stroke="black" stroke-linecap="round" y1="86.4235" stroke-width="1.728" x2="32.7229" x1="21.1326"/>
  </g>
  <g partID="888760">
   <line y2="86.4235" stroke="black" stroke-linecap="round" y1="54.7754" stroke-width="1.728" x2="21.1326" x1="34.2922"/>
  </g>
  <g partID="940030">
   <line y2="116.631" stroke="black" stroke-linecap="round" y1="118.223" stroke-width="1.728" x2="145.032" x1="47.2851"/>
  </g>
  <g partID="888700">
   <line y2="118.223" stroke="black" stroke-linecap="round" y1="102.175" stroke-width="1.728" x2="47.2851" x1="32.7229"/>
  </g>
  <g partID="888670">
   <line y2="54.7754" stroke="black" stroke-linecap="round" y1="41.5072" stroke-width="1.728" x2="34.2921" x1="40.8627"/>
  </g>
  <g partID="888840">
   <line y2="30.5073" stroke="black" stroke-linecap="round" y1="23.1109" stroke-width="1.728" x2="74.1355" x1="71.6954"/>
  </g>
  <g partID="889680">
   <line y2="23.1109" stroke="black" stroke-linecap="round" y1="23.0337" stroke-width="1.728" x2="71.6956" x1="42.921"/>
  </g>
  <g partID="940060">
   <line y2="74.9604" stroke="black" stroke-linecap="round" y1="89.3954" stroke-width="1.728" x2="15.4936" x1="11.3254"/>
  </g>
  <g partID="889240">
   <line y2="89.3954" stroke="black" stroke-linecap="round" y1="132.488" stroke-width="1.728" x2="11.3254" x1="42.8273"/>
  </g>
  <g partID="889110">
   <line y2="36.131" stroke="black" stroke-linecap="round" y1="74.9604" stroke-width="1.728" x2="34.2922" x1="15.4936"/>
  </g>
  <g partID="888980">
   <line y2="23.0337" stroke="black" stroke-linecap="round" y1="36.131" stroke-width="1.728" x2="42.921" x1="34.2922"/>
  </g>
  <g partID="889490">
   <line y2="132.533" stroke="black" stroke-linecap="round" y1="132.488" stroke-width="1.728" x2="54.5618" x1="42.8273"/>
  </g>
  <g partID="859340">
   <line y2="82.0302" stroke="black" stroke-linecap="round" y1="38.9134" stroke-width="1.728" x2="29.9139" x1="47.2371"/>
  </g>
  <g partID="939680">
   <line y2="95.0952" stroke="black" stroke-linecap="round" y1="95.0749" stroke-width="1.728" x2="54.4538" x1="45.7301"/>
  </g>
  <g partID="789480">
   <line y2="95.0746" stroke="black" stroke-linecap="round" y1="82.0302" stroke-width="1.728" x2="45.7301" x1="29.9139"/>
  </g>
  <g partID="777150">
   <line y2="38.9134" stroke="black" stroke-linecap="round" y1="32.7525" stroke-width="1.728" x2="47.2373" x1="52.1353"/>
  </g>
  <g partID="939800">
   <line y2="89.3263" stroke="black" stroke-linecap="round" y1="87.8892" stroke-width="1.728" x2="60.1005" x1="50.041"/>
  </g>
  <g partID="939770">
   <line y2="93.8775" stroke="black" stroke-linecap="round" y1="89.3263" stroke-width="1.728" x2="62.4044" x1="60.101"/>
  </g>
  <g partID="787820">
   <line y2="87.8892" stroke="black" stroke-linecap="round" y1="80.6102" stroke-width="1.728" x2="50.0412" x1="37.0139"/>
  </g>
  <g partID="777430">
   <line y2="80.6102" stroke="black" stroke-linecap="round" y1="40.3376" stroke-width="1.728" x2="37.0139" x1="52.9338"/>
  </g>
  <g partID="777220">
   <line y2="40.3376" stroke="black" stroke-linecap="round" y1="32.7313" stroke-width="1.728" x2="52.934" x1="59.3093"/>
  </g>
  <g partID="939740">
   <line y2="83.578" stroke="black" stroke-linecap="round" y1="83.578" stroke-width="1.728" x2="67.2864" x1="55.7898"/>
  </g>
  <g partID="939710">
   <line y2="93.7724" stroke="black" stroke-linecap="round" y1="83.578" stroke-width="1.728" x2="69.8838" x1="67.2858"/>
  </g>
  <g partID="785330">
   <line y2="83.578" stroke="black" stroke-linecap="round" y1="76.3502" stroke-width="1.728" x2="55.7895" x1="44.3979"/>
  </g>
  <g partID="777360">
   <line y2="76.3502" stroke="black" stroke-linecap="round" y1="41.7618" stroke-width="1.728" x2="44.3979" x1="58.7602"/>
  </g>
  <g partID="777290">
   <line y2="41.7618" stroke="black" stroke-linecap="round" y1="32.7226" stroke-width="1.728" x2="58.7604" x1="66.499"/>
  </g>
  <g partID="796310">
   <line y2="76.2053" stroke="black" stroke-linecap="round" y1="93.7604" stroke-width="1.728" x2="124.67" x1="120.908"/>
  </g>
  <g partID="796900">
   <line y2="76.2053" stroke="black" stroke-linecap="round" y1="93.7604" stroke-width="1.728" x2="117.47" x1="113.708"/>
  </g>
  <g partID="797530">
   <line y2="76.2053" stroke="black" stroke-linecap="round" y1="93.7604" stroke-width="1.728" x2="110.27" x1="106.508"/>
  </g>
  <g partID="798200">
   <line y2="76.2053" stroke="black" stroke-linecap="round" y1="93.7604" stroke-width="1.728" x2="103.07" x1="99.3085"/>
  </g>
  <g partID="798910">
   <line y2="76.2053" stroke="black" stroke-linecap="round" y1="93.7604" stroke-width="1.728" x2="95.8702" x1="92.1085"/>
  </g>
  <g partID="799660">
   <line y2="76.2053" stroke="black" stroke-linecap="round" y1="93.7604" stroke-width="1.728" x2="88.6701" x1="84.9085"/>
  </g>
  <g partID="800450">
   <line y2="76.2053" stroke="black" stroke-linecap="round" y1="93.7604" stroke-width="1.728" x2="81.4701" x1="77.7085"/>
  </g>
  <g partID="888730">
   <line y2="73.7452" stroke="black" stroke-linecap="round" y1="64.791" stroke-width="1.728" x2="53.4479" x1="57.2506"/>
  </g>
  <g partID="859400">
   <line y2="64.791" stroke="black" stroke-linecap="round" y1="53.223" stroke-width="1.728" x2="57.251" x1="66.8546"/>
  </g>
  <g partID="859640">
   <line y2="86.3675" stroke="black" stroke-linecap="round" y1="100.949" stroke-width="1.728" x2="156.847" x1="159.277"/>
  </g>
  <g partID="933410">
   <line y2="73.6422" stroke="black" stroke-linecap="round" y1="66.4102" stroke-width="1.728" x2="146.556" x1="146.638"/>
  </g>
  <g partID="528660">
   <line y2="66.4102" stroke="black" stroke-linecap="round" y1="64.9252" stroke-width="1.728" x2="146.638" x1="176.855"/>
  </g>
  <g partID="529610">
   <line y2="57.6157" stroke="black" stroke-linecap="round" y1="56.8607" stroke-width="1.152" x2="176.855" x1="152.484"/>
  </g>
  <g partID="588570">
   <line y2="64.3448" stroke="black" stroke-linecap="round" y1="59.0426" stroke-width="1.728" x2="179.49" x1="192.588"/>
  </g>
  <g partID="531200">
   <line y2="59.0426" stroke="black" stroke-linecap="round" y1="59.0794" stroke-width="1.728" x2="192.588" x1="244.506"/>
  </g>
  <g partID="531110">
   <line y2="59.0794" stroke="black" stroke-linecap="round" y1="65.1253" stroke-width="1.728" x2="244.506" x1="246.881"/>
  </g>
  <g partID="625060">
   <line y2="48.5609" stroke="black" stroke-linecap="round" y1="38.9442" stroke-width="1.728" x2="122.328" x1="97.6306"/>
  </g>
  <g partID="624750">
   <line y2="38.9442" stroke="black" stroke-linecap="round" y1="33.0073" stroke-width="1.728" x2="97.6308" x1="96.4041"/>
  </g>
  <g partID="429290">
   <line y2="35.8781" stroke="black" stroke-linecap="round" y1="43.4381" stroke-width="1.728" x2="204.142" x1="204.142"/>
  </g>
  <g partID="437330">
   <line y2="11.5449" stroke="black" stroke-linecap="round" y1="11.6647" stroke-width="1.152" x2="114.875" x1="235.788"/>
  </g>
  <g partID="429800">
   <line y2="11.6646" stroke="black" stroke-linecap="round" y1="43.4427" stroke-width="1.152" x2="235.788" x1="233.05"/>
  </g>
  <g partID="429700">
   <line y2="30.471" stroke="black" stroke-linecap="round" y1="11.5449" stroke-width="1.152" x2="110.814" x1="114.875"/>
  </g>
  <g partID="429750">
   <line y2="30.4637" stroke="black" stroke-linecap="round" y1="15.9444" stroke-width="1.152" x2="117.977" x1="120.658"/>
  </g>
  <g partID="429600">
   <line y2="15.9443" stroke="black" stroke-linecap="round" y1="15.9414" stroke-width="1.152" x2="120.658" x1="228.66"/>
  </g>
  <g partID="429560">
   <line y2="15.9414" stroke="black" stroke-linecap="round" y1="43.4445" stroke-width="1.152" x2="228.66" x1="225.869"/>
  </g>
  <g partID="436940">
   <line y2="25.9204" stroke="black" stroke-linecap="round" y1="37.4622" stroke-width="1.728" x2="192.665" x1="170.964"/>
  </g>
  <g partID="529540">
   <line y2="25.9204" stroke="black" stroke-linecap="round" y1="25.9204" stroke-width="1.728" x2="214.227" x1="192.664"/>
  </g>
  <g partID="436830">
   <line y2="37.4621" stroke="black" stroke-linecap="round" y1="37.4669" stroke-width="1.728" x2="170.964" x1="127.856"/>
  </g>
  <g partID="436720">
   <line y2="43.4527" stroke="black" stroke-linecap="round" y1="25.9204" stroke-width="1.728" x2="211.533" x1="214.227"/>
  </g>
  <g partID="436030">
   <line y2="37.4669" stroke="black" stroke-linecap="round" y1="32.8932" stroke-width="1.728" x2="127.856" x1="125.529"/>
  </g>
  <g partID="447870">
   <line y2="20.2181" stroke="black" stroke-linecap="round" y1="20.2181" stroke-width="1.728" x2="133.605" x1="221.355"/>
  </g>
  <g partID="447840">
   <line y2="30.4524" stroke="black" stroke-linecap="round" y1="20.2181" stroke-width="1.728" x2="132.305" x1="133.605"/>
  </g>
  <g partID="447640">
   <line y2="20.2181" stroke="black" stroke-linecap="round" y1="43.4463" stroke-width="1.728" x2="221.355" x1="218.686"/>
  </g>
  <g partID="447690">
   <line y2="45.9414" stroke="black" stroke-linecap="round" y1="53.4115" stroke-width="1.152" x2="197.146" x1="198.375"/>
  </g>
  <g partID="447770">
   <line y2="53.4115" stroke="black" stroke-linecap="round" y1="53.4817" stroke-width="1.152" x2="198.375" x1="240.138"/>
  </g>
  <g partID="447700">
   <line y2="53.4817" stroke="black" stroke-linecap="round" y1="45.9581" stroke-width="1.152" x2="240.138" x1="240.141"/>
  </g>
  <g partID="414310">
   <line y2="67.4934" stroke="black" stroke-linecap="round" y1="73.7427" stroke-width="1.728" x2="196.543" x1="194.46"/>
  </g>
  <g partID="414330">
   <line y2="67.5336" stroke="black" stroke-linecap="round" y1="79.4625" stroke-width="1.728" x2="203.895" x1="201.509"/>
  </g>
  <g partID="414370">
   <line y2="67.4934" stroke="black" stroke-linecap="round" y1="73.7427" stroke-width="1.728" x2="210.943" x1="208.86"/>
  </g>
  <g partID="414390">
   <line y2="67.5336" stroke="black" stroke-linecap="round" y1="79.4625" stroke-width="1.728" x2="218.295" x1="215.909"/>
  </g>
  <g partID="414410">
   <line y2="67.4934" stroke="black" stroke-linecap="round" y1="73.7427" stroke-width="1.728" x2="225.343" x1="223.26"/>
  </g>
  <g partID="414450">
   <line y2="67.5336" stroke="black" stroke-linecap="round" y1="79.4625" stroke-width="1.728" x2="232.695" x1="230.309"/>
  </g>
  <g partID="414470">
   <line y2="67.4934" stroke="black" stroke-linecap="round" y1="73.7427" stroke-width="1.728" x2="239.743" x1="237.66"/>
  </g>
  <g partID="627840">
   <line y2="74.9432" stroke="black" stroke-linecap="round" y1="74.972" stroke-width="1.728" x2="155.038" x1="162.312"/>
  </g>
  <g partID="416170">
   <line y2="74.972" stroke="black" stroke-linecap="round" y1="83.6653" stroke-width="1.728" x2="162.312" x1="163.619"/>
  </g>
  <g partID="627890">
   <line y2="76.1391" stroke="black" stroke-linecap="round" y1="82.2122" stroke-width="1.728" x2="147.029" x1="149.491"/>
  </g>
  <g partID="416210">
   <line y2="82.2122" stroke="black" stroke-linecap="round" y1="84.5172" stroke-width="1.728" x2="149.491" x1="155.349"/>
  </g>
  <g partID="412840">
   <line y2="73.6773" stroke="black" stroke-linecap="round" y1="44.6539" stroke-width="1.728" x2="132.442" x1="139.355"/>
  </g>
  <g partID="412810">
   <line y2="44.6539" stroke="black" stroke-linecap="round" y1="44.6971" stroke-width="1.728" x2="139.355" x1="195.682"/>
  </g>
 </g>
</svg>
