<?xml version='1.0' encoding='UTF-8' standalone='no'?>
<!-- Created with Fritzing (http://www.fritzing.org/) -->
<svg xmlns="http://www.w3.org/2000/svg" xmlns:svg="http://www.w3.org/2000/svg" x="0in" y="0in" height="1.9685in" viewBox="0 0 283.465 141.732"  version="1.2" width="3.93701in" baseProfile="tiny">
 <g transform="matrix(-1, 0, 0, 1, 283.465, 0)">
  <g partID="313440">
   <g  id="board">
    <rect x="0.288" height="141.156" y="0.288" fill-opacity="0.5"  width="282.889" stroke-width="0.5" fill="none" id="boardoutline" stroke="black"/>
   </g>
  </g>
  <g partID="859370">
   <g transform="translate(40.2387,36.4442)">
    <g transform="matrix(0.911029,0.412342,-0.412342,0.911029,0,0)">
     <g  id="copper0">
      <g  id="copper1">
       <!-- <rect width="55" x="10" y="15.5" fill="none" height="55" stroke="rgb(255, 191, 0)" stroke-width="20" />  -->
       <circle cy="3.096"  cx="2.7" r="1.98" stroke-width="2.16" fill="black" id="connector0pin" stroke="black"/>
       <circle cy="3.096"  cx="31.5" r="1.98" stroke-width="2.16" fill="black" id="connector1pin" stroke="black"/>
      </g>
     </g>
    </g>
   </g>
  </g>
  <g partID="859470">
   <g transform="translate(164.542,91.4981)">
    <g transform="matrix(0,1,-1,0,0,0)">
     <g  id="copper0">
      <circle cy="5.04"  cx="5.04" r="2.088" stroke-width="2.16" fill="black" id="connector0pin" stroke="black"/>
      <circle cy="12.24"  cx="5.04" r="2.088" stroke-width="2.16" fill="black" id="connector1pin" stroke="black"/>
     </g>
    </g>
   </g>
  </g>
  <g partID="426140">
   <g transform="translate(7.94904,115.625)">
    <g  id="copper0">
     <circle cy="7.55273"  cx="7.55273" r="5.95276" stroke-width="0.72" fill="black" id="nonconn0" stroke="black"/>
    </g>
   </g>
  </g>
  <g partID="426130">
   <g transform="translate(263.549,115.625)">
    <g  id="copper0">
     <circle cy="7.55273"  cx="7.55273" r="5.95276" stroke-width="0.72" fill="black" id="nonconn0" stroke="black"/>
    </g>
   </g>
  </g>
  <g partID="426110">
   <g transform="translate(7.94904,5.46532)">
    <g  id="copper0">
     <circle cy="7.55273"  cx="7.55273" r="5.95276" stroke-width="0.72" fill="black" id="nonconn0" stroke="black"/>
    </g>
   </g>
  </g>
  <g partID="426080">
   <g transform="translate(263.549,5.46531)">
    <g  id="copper0">
     <circle cy="7.55273"  cx="7.55273" r="5.95276" stroke-width="0.72" fill="black" id="nonconn0" stroke="black"/>
    </g>
   </g>
  </g>
  <g partID="483740">
   <g transform="translate(36.3818,95.8181)">
    <g transform="matrix(0,-1,1,0,0,0)">
     <g  id="copper0">
      <circle cy="5.04"  cx="5.04" r="2.088" stroke-width="2.16" fill="black" id="connector0pin" stroke="black"/>
      <circle cy="15.84"  cx="5.04" r="2.088" stroke-width="2.16" fill="black" id="connector1pin" stroke="black"/>
      <circle cy="26.64"  cx="5.04" r="2.088" stroke-width="2.16" fill="black" id="connector2pin" stroke="black"/>
      <circle cy="37.44"  cx="5.04" r="2.088" stroke-width="2.16" fill="black" id="connector3pin" stroke="black"/>
      <circle cy="48.24"  cx="5.04" r="2.088" stroke-width="2.16" fill="black" id="connector4pin" stroke="black"/>
      <circle cy="59.04"  cx="5.04" r="2.088" stroke-width="2.16" fill="black" id="connector5pin" stroke="black"/>
      <circle cy="69.84"  cx="5.04" r="2.088" stroke-width="2.16" fill="black" id="connector6pin" stroke="black"/>
      <circle cy="80.64"  cx="5.04" r="2.088" stroke-width="2.16" fill="black" id="connector7pin" stroke="black"/>
      <circle cy="91.44"  cx="5.04" r="2.088" stroke-width="2.16" fill="black" id="connector8pin" stroke="black"/>
      <circle cy="102.24"  cx="5.04" r="2.088" stroke-width="2.16" fill="black" id="connector9pin" stroke="black"/>
     </g>
    </g>
   </g>
  </g>
  <g partID="469330">
   <g transform="translate(178.942,50.4581)">
    <g  id="copper0">
     <circle cy="5.04"  cx="5.04" r="2.088" stroke-width="2.16" fill="black" id="connector0pin" stroke="black"/>
     <circle cy="15.84"  cx="5.04" r="2.088" stroke-width="2.16" fill="black" id="connector1pin" stroke="black"/>
    </g>
   </g>
  </g>
  <g partID="324610">
   <g transform="translate(120.094,44.1278)">
    <g transform="matrix(0.923117,0.38452,-0.38452,0.923117,0,0)">
     <g  id="copper0">
      <g  id="copper1">
       <!-- <rect width="55" x="10" y="15.5" fill="none" height="55" stroke="rgb(255, 191, 0)" stroke-width="20" />  -->
       <circle cy="3.096"  cx="2.7" r="1.98" stroke-width="2.16" fill="black" id="connector0pin" stroke="black"/>
       <circle cy="3.096"  cx="31.5" r="1.98" stroke-width="2.16" fill="black" id="connector1pin" stroke="black"/>
      </g>
     </g>
    </g>
   </g>
  </g>
  <g partID="426020">
   <g transform="translate(167.422,53.3381)">
    <g  id="copper0">
     <circle cy="5.04"  cx="5.04" r="2.088" stroke-width="2.16" fill="black" id="connector0pin" stroke="black"/>
     <circle cy="15.84"  cx="5.04" r="2.088" stroke-width="2.16" fill="black" id="connector1pin" stroke="black"/>
    </g>
   </g>
  </g>
  <g partID="345230">
   <g transform="translate(151.582,90.0581)">
    <g transform="matrix(0,-1,1,0,0,0)">
     <g  id="copper0">
      <circle cy="5.04"  cx="5.04" r="2.088" stroke-width="2.16" fill="black" id="connector0pin" stroke="black"/>
      <circle cy="12.24"  cx="5.04" r="2.088" stroke-width="2.16" fill="black" id="connector1pin" stroke="black"/>
     </g>
    </g>
   </g>
  </g>
  <g partID="885350">
   <g transform="translate(136.642,125.158)">
    <g transform="matrix(-2.22045e-16,-1,1,-2.22045e-16,0,0)">
     <g  id="copper0">
      <g  id="copper1">
       <!-- <rect width="55" x="10" y="10" fill="none" height="55" stroke="rgb(255, 191, 0)" stroke-width="20" /> -->
       <circle cy="2.7"  cx="2.7" r="1.98" stroke-width="2.16" fill="black" id="connector0pin" stroke="black"/>
       <circle cy="2.7"  cx="24.3" r="1.98" stroke-width="2.16" fill="black" id="connector1pin" stroke="black"/>
      </g>
     </g>
    </g>
   </g>
  </g>
  <g partID="885330">
   <g transform="translate(125.122,125.158)">
    <g transform="matrix(-2.22045e-16,-1,1,-2.22045e-16,0,0)">
     <g  id="copper0">
      <g  id="copper1">
       <!-- <rect width="55" x="10" y="10" fill="none" height="55" stroke="rgb(255, 191, 0)" stroke-width="20" /> -->
       <circle cy="2.7"  cx="2.7" r="1.98" stroke-width="2.16" fill="black" id="connector0pin" stroke="black"/>
       <circle cy="2.7"  cx="24.3" r="1.98" stroke-width="2.16" fill="black" id="connector1pin" stroke="black"/>
      </g>
     </g>
    </g>
   </g>
  </g>
  <g partID="885310">
   <g transform="translate(113.602,125.158)">
    <g transform="matrix(-2.22045e-16,-1,1,-2.22045e-16,0,0)">
     <g  id="copper0">
      <g  id="copper1">
       <!-- <rect width="55" x="10" y="10" fill="none" height="55" stroke="rgb(255, 191, 0)" stroke-width="20" /> -->
       <circle cy="2.7"  cx="2.7" r="1.98" stroke-width="2.16" fill="black" id="connector0pin" stroke="black"/>
       <circle cy="2.7"  cx="24.3" r="1.98" stroke-width="2.16" fill="black" id="connector1pin" stroke="black"/>
      </g>
     </g>
    </g>
   </g>
  </g>
  <g partID="885290">
   <g transform="translate(103.522,125.158)">
    <g transform="matrix(-2.22045e-16,-1,1,-2.22045e-16,0,0)">
     <g  id="copper0">
      <g  id="copper1">
       <!-- <rect width="55" x="10" y="10" fill="none" height="55" stroke="rgb(255, 191, 0)" stroke-width="20" /> -->
       <circle cy="2.7"  cx="2.7" r="1.98" stroke-width="2.16" fill="black" id="connector0pin" stroke="black"/>
       <circle cy="2.7"  cx="24.3" r="1.98" stroke-width="2.16" fill="black" id="connector1pin" stroke="black"/>
      </g>
     </g>
    </g>
   </g>
  </g>
  <g partID="885270">
   <g transform="translate(93.4418,125.158)">
    <g transform="matrix(-2.22045e-16,-1,1,-2.22045e-16,0,0)">
     <g  id="copper0">
      <g  id="copper1">
       <!-- <rect width="55" x="10" y="10" fill="none" height="55" stroke="rgb(255, 191, 0)" stroke-width="20" /> -->
       <circle cy="2.7"  cx="2.7" r="1.98" stroke-width="2.16" fill="black" id="connector0pin" stroke="black"/>
       <circle cy="2.7"  cx="24.3" r="1.98" stroke-width="2.16" fill="black" id="connector1pin" stroke="black"/>
      </g>
     </g>
    </g>
   </g>
  </g>
  <g partID="885250">
   <g transform="translate(81.9218,125.158)">
    <g transform="matrix(-2.22045e-16,-1,1,-2.22045e-16,0,0)">
     <g  id="copper0">
      <g  id="copper1">
       <!-- <rect width="55" x="10" y="10" fill="none" height="55" stroke="rgb(255, 191, 0)" stroke-width="20" /> -->
       <circle cy="2.7"  cx="2.7" r="1.98" stroke-width="2.16" fill="black" id="connector0pin" stroke="black"/>
       <circle cy="2.7"  cx="24.3" r="1.98" stroke-width="2.16" fill="black" id="connector1pin" stroke="black"/>
      </g>
     </g>
    </g>
   </g>
  </g>
  <g partID="885230">
   <g transform="translate(71.8418,125.158)">
    <g transform="matrix(-2.22045e-16,-1,1,-2.22045e-16,0,0)">
     <g  id="copper0">
      <g  id="copper1">
       <!-- <rect width="55" x="10" y="10" fill="none" height="55" stroke="rgb(255, 191, 0)" stroke-width="20" /> -->
       <circle cy="2.7"  cx="2.7" r="1.98" stroke-width="2.16" fill="black" id="connector0pin" stroke="black"/>
       <circle cy="2.7"  cx="24.3" r="1.98" stroke-width="2.16" fill="black" id="connector1pin" stroke="black"/>
      </g>
     </g>
    </g>
   </g>
  </g>
  <g partID="885210">
   <g transform="translate(61.7618,125.158)">
    <g transform="matrix(-2.22045e-16,-1,1,-2.22045e-16,0,0)">
     <g  id="copper0">
      <g  id="copper1">
       <!-- <rect width="55" x="10" y="10" fill="none" height="55" stroke="rgb(255, 191, 0)" stroke-width="20" /> -->
       <circle cy="2.7"  cx="2.7" r="1.98" stroke-width="2.16" fill="black" id="connector0pin" stroke="black"/>
       <circle cy="2.7"  cx="24.3" r="1.98" stroke-width="2.16" fill="black" id="connector1pin" stroke="black"/>
      </g>
     </g>
    </g>
   </g>
  </g>
  <g partID="881460">
   <g transform="translate(50.2418,125.158)">
    <g transform="matrix(-2.22045e-16,-1,1,-2.22045e-16,0,0)">
     <g  id="copper0">
      <g  id="copper1">
       <!-- <rect width="55" x="10" y="10" fill="none" height="55" stroke="rgb(255, 191, 0)" stroke-width="20" /> -->
       <circle cy="2.7"  cx="2.7" r="1.98" stroke-width="2.16" fill="black" id="connector0pin" stroke="black"/>
       <circle cy="2.7"  cx="24.3" r="1.98" stroke-width="2.16" fill="black" id="connector1pin" stroke="black"/>
      </g>
     </g>
    </g>
   </g>
  </g>
  <g partID="879330">
   <g transform="translate(38.7218,125.158)">
    <g transform="matrix(-2.22045e-16,-1,1,-2.22045e-16,0,0)">
     <g  id="copper0">
      <g  id="copper1">
       <!-- <rect width="55" x="10" y="10" fill="none" height="55" stroke="rgb(255, 191, 0)" stroke-width="20" /> -->
       <circle cy="2.7"  cx="2.7" r="1.98" stroke-width="2.16" fill="black" id="connector0pin" stroke="black"/>
       <circle cy="2.7"  cx="24.3" r="1.98" stroke-width="2.16" fill="black" id="connector1pin" stroke="black"/>
      </g>
     </g>
    </g>
   </g>
  </g>
  <g partID="307920">
   <g transform="translate(117.454,35.0481)">
    <g transform="matrix(0.916913,0.399087,-0.399087,0.916913,0,0)">
     <g  id="copper0">
      <g  id="copper1">
       <!-- <rect width="55" x="10" y="15.5" fill="none" height="55" stroke="rgb(255, 191, 0)" stroke-width="20" />  -->
       <circle cy="3.096"  cx="2.7" r="1.98" stroke-width="2.16" fill="black" id="connector0pin" stroke="black"/>
       <circle cy="3.096"  cx="31.5" r="1.98" stroke-width="2.16" fill="black" id="connector1pin" stroke="black"/>
      </g>
     </g>
    </g>
   </g>
  </g>
  <g partID="307900">
   <g transform="translate(202.882,29.5061)">
    <g transform="matrix(1,-1.11022e-16,1.11022e-16,1,0,0)">
     <g  id="copper0">
      <g  id="copper1">
       <!-- <rect width="55" x="10" y="23.5" fill="none" height="55" stroke="rgb(255, 191, 0)" stroke-width="20" /> -->
       <circle cy="3.672"  cx="2.7" r="1.98" stroke-width="2.16" fill="black" id="connector0pin" stroke="black"/>
       <circle cy="3.672"  cx="38.7" r="1.98" stroke-width="2.16" fill="black" id="connector1pin" stroke="black"/>
      </g>
     </g>
    </g>
   </g>
  </g>
  <g partID="307880">
   <g transform="translate(253.318,73.6781)">
    <g transform="matrix(0,1,-1,0,0,0)">
     <g  id="copper0">
      <g  id="copper1">
       <!-- <rect width="55" x="10" y="15.5" fill="none" height="55" stroke="rgb(255, 191, 0)" stroke-width="20" />  -->
       <circle cy="3.096"  cx="2.7" r="1.98" stroke-width="2.16" fill="black" id="connector0pin" stroke="black"/>
       <circle cy="3.096"  cx="31.5" r="1.98" stroke-width="2.16" fill="black" id="connector1pin" stroke="black"/>
      </g>
     </g>
    </g>
   </g>
  </g>
  <g partID="307860">
   <g transform="translate(243.238,73.6781)">
    <g transform="matrix(0,1,-1,0,0,0)">
     <g  id="copper0">
      <g  id="copper1">
       <!-- <rect width="55" x="10" y="15.5" fill="none" height="55" stroke="rgb(255, 191, 0)" stroke-width="20" />  -->
       <circle cy="3.096"  cx="2.7" r="1.98" stroke-width="2.16" fill="black" id="connector0pin" stroke="black"/>
       <circle cy="3.096"  cx="31.5" r="1.98" stroke-width="2.16" fill="black" id="connector1pin" stroke="black"/>
      </g>
     </g>
    </g>
   </g>
  </g>
  <g partID="307840">
   <g transform="translate(233.158,73.6781)">
    <g transform="matrix(0,1,-1,0,0,0)">
     <g  id="copper0">
      <g  id="copper1">
       <!-- <rect width="55" x="10" y="15.5" fill="none" height="55" stroke="rgb(255, 191, 0)" stroke-width="20" />  -->
       <circle cy="3.096"  cx="2.7" r="1.98" stroke-width="2.16" fill="black" id="connector0pin" stroke="black"/>
       <circle cy="3.096"  cx="31.5" r="1.98" stroke-width="2.16" fill="black" id="connector1pin" stroke="black"/>
      </g>
     </g>
    </g>
   </g>
  </g>
  <g partID="307820">
   <g transform="translate(223.078,73.6781)">
    <g transform="matrix(0,1,-1,0,0,0)">
     <g  id="copper0">
      <g  id="copper1">
       <!-- <rect width="55" x="10" y="15.5" fill="none" height="55" stroke="rgb(255, 191, 0)" stroke-width="20" />  -->
       <circle cy="3.096"  cx="2.7" r="1.98" stroke-width="2.16" fill="black" id="connector0pin" stroke="black"/>
       <circle cy="3.096"  cx="31.5" r="1.98" stroke-width="2.16" fill="black" id="connector1pin" stroke="black"/>
      </g>
     </g>
    </g>
   </g>
  </g>
  <g partID="307800">
   <g transform="translate(212.998,73.6781)">
    <g transform="matrix(0,1,-1,0,0,0)">
     <g  id="copper0">
      <g  id="copper1">
       <!-- <rect width="55" x="10" y="15.5" fill="none" height="55" stroke="rgb(255, 191, 0)" stroke-width="20" />  -->
       <circle cy="3.096"  cx="2.7" r="1.98" stroke-width="2.16" fill="black" id="connector0pin" stroke="black"/>
       <circle cy="3.096"  cx="31.5" r="1.98" stroke-width="2.16" fill="black" id="connector1pin" stroke="black"/>
      </g>
     </g>
    </g>
   </g>
  </g>
  <g partID="307780">
   <g transform="translate(202.835,73.6745)">
    <g transform="matrix(0,1,-1,0,0,0)">
     <g  id="copper0">
      <g  id="copper1">
       <!-- <rect width="55" x="10" y="15.5" fill="none" height="55" stroke="rgb(255, 191, 0)" stroke-width="20" />  -->
       <circle cy="3.096"  cx="2.7" r="1.98" stroke-width="2.16" fill="black" id="connector0pin" stroke="black"/>
       <circle cy="3.096"  cx="31.5" r="1.98" stroke-width="2.16" fill="black" id="connector1pin" stroke="black"/>
      </g>
     </g>
    </g>
   </g>
  </g>
  <g partID="307720">
   <g transform="translate(192.838,73.6781)">
    <g transform="matrix(0,1,-1,0,0,0)">
     <g  id="copper0">
      <g  id="copper1">
       <!-- <rect width="55" x="10" y="15.5" fill="none" height="55" stroke="rgb(255, 191, 0)" stroke-width="20" />  -->
       <circle cy="3.096"  cx="2.7" r="1.98" stroke-width="2.16" fill="black" id="connector0pin" stroke="black"/>
       <circle cy="3.096"  cx="31.5" r="1.98" stroke-width="2.16" fill="black" id="connector1pin" stroke="black"/>
      </g>
     </g>
    </g>
   </g>
  </g>
  <g partID="430220">
   <g transform="translate(260.219,121.734)">
    <g transform="matrix(0,1,-1,0,0,0)">
     <g  id="copper0">
      <circle cy="5.04"  cx="5.04" r="2.27905" stroke-width="2.16" fill="black" id="connector0pin" stroke="black"/>
      <circle cy="15.84"  cx="5.04" r="2.27905" stroke-width="2.16" fill="black" id="connector1pin" stroke="black"/>
      <circle cy="26.64"  cx="5.04" r="2.27905" stroke-width="2.16" fill="black" id="connector2pin" stroke="black"/>
      <circle cy="37.44"  cx="5.04" r="2.27905" stroke-width="2.16" fill="black" id="connector3pin" stroke="black"/>
      <circle cy="48.24"  cx="5.04" r="2.27905" stroke-width="2.16" fill="black" id="connector4pin" stroke="black"/>
      <circle cy="59.04"  cx="5.04" r="2.27905" stroke-width="2.16" fill="black" id="connector5pin" stroke="black"/>
      <circle cy="69.84"  cx="5.04" r="2.27905" stroke-width="2.16" fill="black" id="connector6pin" stroke="black"/>
      <circle cy="80.64"  cx="5.04" r="2.27905" stroke-width="2.16" fill="black" id="connector7pin" stroke="black"/>
     </g>
    </g>
   </g>
  </g>
  <g partID="426060">
   <g transform="translate(260.219,110.214)">
    <g transform="matrix(0,1,-1,0,0,0)">
     <g  id="copper0">
      <circle cy="5.04"  cx="5.04" r="2.27905" stroke-width="2.16" fill="black" id="connector0pin" stroke="black"/>
      <circle cy="15.84"  cx="5.04" r="2.27905" stroke-width="2.16" fill="black" id="connector1pin" stroke="black"/>
      <circle cy="26.64"  cx="5.04" r="2.27905" stroke-width="2.16" fill="black" id="connector2pin" stroke="black"/>
      <circle cy="37.44"  cx="5.04" r="2.27905" stroke-width="2.16" fill="black" id="connector3pin" stroke="black"/>
      <circle cy="48.24"  cx="5.04" r="2.27905" stroke-width="2.16" fill="black" id="connector4pin" stroke="black"/>
      <circle cy="59.04"  cx="5.04" r="2.27905" stroke-width="2.16" fill="black" id="connector5pin" stroke="black"/>
      <circle cy="69.84"  cx="5.04" r="2.27905" stroke-width="2.16" fill="black" id="connector6pin" stroke="black"/>
      <circle cy="80.64"  cx="5.04" r="2.27905" stroke-width="2.16" fill="black" id="connector7pin" stroke="black"/>
     </g>
    </g>
   </g>
  </g>
  <g partID="307560">
   <g transform="translate(194.062,69.1781)">
    <g transform="matrix(0,-1,1,0,0,0)">
     <g  id="copper0">
      <rect x="2.34" height="3.96" y="2.34"  width="3.96" stroke-width="2.16" fill="black" id="square" stroke="black"/>
      <circle cy="4.32"  cx="4.32" r="1.98" stroke-width="2.16" fill="black" id="connector0pin" stroke="black"/>
      <circle cy="4.32"  cx="25.92" r="1.98" stroke-width="2.16" fill="black" id="connector15pin" stroke="black"/>
      <circle cy="11.52"  cx="4.32" r="1.98" stroke-width="2.16" fill="black" id="connector1pin" stroke="black"/>
      <circle cy="11.52"  cx="25.92" r="1.98" stroke-width="2.16" fill="black" id="connector14pin" stroke="black"/>
      <circle cy="18.72"  cx="4.32" r="1.98" stroke-width="2.16" fill="black" id="connector2pin" stroke="black"/>
      <circle cy="18.72"  cx="25.92" r="1.98" stroke-width="2.16" fill="black" id="connector13pin" stroke="black"/>
      <circle cy="25.92"  cx="4.32" r="1.98" stroke-width="2.16" fill="black" id="connector3pin" stroke="black"/>
      <circle cy="25.92"  cx="25.92" r="1.98" stroke-width="2.16" fill="black" id="connector12pin" stroke="black"/>
      <circle cy="33.12"  cx="4.32" r="1.98" stroke-width="2.16" fill="black" id="connector4pin" stroke="black"/>
      <circle cy="33.12"  cx="25.92" r="1.98" stroke-width="2.16" fill="black" id="connector11pin" stroke="black"/>
      <circle cy="40.32"  cx="4.32" r="1.98" stroke-width="2.16" fill="black" id="connector5pin" stroke="black"/>
      <circle cy="40.32"  cx="25.92" r="1.98" stroke-width="2.16" fill="black" id="connector10pin" stroke="black"/>
      <circle cy="47.52"  cx="4.32" r="1.98" stroke-width="2.16" fill="black" id="connector6pin" stroke="black"/>
      <circle cy="47.52"  cx="25.92" r="1.98" stroke-width="2.16" fill="black" id="connector9pin" stroke="black"/>
      <circle cy="54.72"  cx="4.32" r="1.98" stroke-width="2.16" fill="black" id="connector7pin" stroke="black"/>
      <circle cy="54.72"  cx="25.92" r="1.98" stroke-width="2.16" fill="black" id="connector8pin" stroke="black"/>
     </g>
    </g>
   </g>
  </g>
  <g partID="419260">
   <g transform="translate(164.542,28.1381)">
    <g transform="matrix(0,1,-1,0,0,0)">
     <g  id="copper0">
      <circle cy="10.8"  cx="3.6" r="1.908" stroke-width="1.944" fill="black" id="connector16pad" stroke="black"/>
      <rect x="1.692" y="8.892" height="3.816"  width="3.814" stroke-width="1.944" fill="black" stroke="black"/>
      <circle cy="18"  cx="3.6" r="1.908" stroke-width="1.944" fill="black" id="connector17pad" stroke="black"/>
      <circle cy="25.2"  cx="3.6" r="1.908" stroke-width="1.944" fill="black" id="connector18pad" stroke="black"/>
      <circle cy="32.4"  cx="3.6" r="1.908" stroke-width="1.944" fill="black" id="connector19pad" stroke="black"/>
      <circle cy="39.6"  cx="3.6" r="1.908" stroke-width="1.944" fill="black" id="connector20pad" stroke="black"/>
      <circle cy="46.8"  cx="3.6" r="1.908" stroke-width="1.944" fill="black" id="connector21pad" stroke="black"/>
      <circle cy="54"  cx="3.6" r="1.908" stroke-width="1.944" fill="black" id="connector22pad" stroke="black"/>
      <circle cy="61.2"  cx="3.6" r="1.908" stroke-width="1.944" fill="black" id="connector23pad" stroke="black"/>
      <circle cy="68.4"  cx="3.6" r="1.908" stroke-width="1.944" fill="black" id="connector24pad" stroke="black"/>
      <circle cy="75.6"  cx="3.6" r="1.908" stroke-width="1.944" fill="black" id="connector25pad" stroke="black"/>
      <circle cy="82.8"  cx="3.6" r="1.908" stroke-width="1.944" fill="black" id="connector26pad" stroke="black"/>
      <circle cy="90"  cx="3.6" r="1.908" stroke-width="1.944" fill="black" id="connector27pad" stroke="black"/>
      <circle cy="97.2"  cx="3.6" r="1.908" stroke-width="1.944" fill="black" id="connector28pad" stroke="black"/>
      <circle cy="104.4"  cx="3.6" r="1.908" stroke-width="1.944" fill="black" id="connector29pad" stroke="black"/>
      <circle cy="111.6"  cx="3.6" r="1.908" stroke-width="1.944" fill="black" id="connector30pad" stroke="black"/>
      <circle cy="10.8"  cx="46.8" r="1.908" stroke-width="1.944" fill="black" id="connector31pad" stroke="black"/>
      <circle cy="18"  cx="46.8" r="1.908" stroke-width="1.944" fill="black" id="connector32pad" stroke="black"/>
      <circle cy="25.2"  cx="46.8" r="1.908" stroke-width="1.944" fill="black" id="connector33pad" stroke="black"/>
      <circle cy="32.4"  cx="46.8" r="1.908" stroke-width="1.944" fill="black" id="connector34pad" stroke="black"/>
      <circle cy="39.6"  cx="46.8" r="1.908" stroke-width="1.944" fill="black" id="connector35pad" stroke="black"/>
      <circle cy="46.8"  cx="46.8" r="1.908" stroke-width="1.944" fill="black" id="connector36pad" stroke="black"/>
      <circle cy="54"  cx="46.8" r="1.908" stroke-width="1.944" fill="black" id="connector37pad" stroke="black"/>
      <circle cy="61.2"  cx="46.8" r="1.908" stroke-width="1.944" fill="black" id="connector38pad" stroke="black"/>
      <circle cy="68.4"  cx="46.8" r="1.908" stroke-width="1.944" fill="black" id="connector39pad" stroke="black"/>
      <circle cy="75.6"  cx="46.8" r="1.908" stroke-width="1.944" fill="black" id="connector40pad" stroke="black"/>
      <circle cy="82.8"  cx="46.8" r="1.908" stroke-width="1.944" fill="black" id="connector41pad" stroke="black"/>
      <circle cy="90"  cx="46.8" r="1.908" stroke-width="1.944" fill="black" id="connector42pad" stroke="black"/>
      <circle cy="97.2"  cx="46.8" r="1.908" stroke-width="1.944" fill="black" id="connector43pad" stroke="black"/>
      <circle cy="104.4"  cx="46.8" r="1.908" stroke-width="1.944" fill="black" id="connector44pad" stroke="black"/>
      <circle cy="111.6"  cx="46.8" r="1.908" stroke-width="1.944" fill="black" id="connector45pad" stroke="black"/>
     </g>
    </g>
   </g>
  </g>
  <g partID="931540">
   <g transform="translate(84.5072,51.7834)">
    <g  id="copper0">
     <circle cy="4.43465"  cx="4.43465" r="2.83465" stroke-width="0.72" fill="black" id="nonconn0" stroke="black"/>
    </g>
   </g>
  </g>
 </g>
</svg>
