<?xml version='1.0' encoding='UTF-8' standalone='no'?>
<!-- Created with Fritzing (http://www.fritzing.org/) -->
<svg xmlns="http://www.w3.org/2000/svg"  baseProfile="tiny" x="0in" xmlns:svg="http://www.w3.org/2000/svg" version="1.2" viewBox="0 0 283.465 141.732" width="3.93701in" height="1.9685in" y="0in">
 <g transform="matrix(-1, 0, 0, 1, 283.465, 0)">
  <g partID="313442">
   <g id="silkscreen0">
    <rect stroke-width="0.576" x="0.288" fill="none" stroke="black" width="282.889" height="141.156" y="0.288"/>
   </g>
  </g>
  <g partID="313440">
   <g id="board">
    <rect stroke-width="0.5" fill-opacity="0.5" x="0.288" fill="none" id="boardoutline" stroke="black" width="282.889" height="141.156" y="0.288"/>
   </g>
  </g>
  <g partID="313442">
   <g id="silkscreen0">
    <rect stroke-width="0.576" x="0.288" fill="none" stroke="black" width="282.889" height="141.156" y="0.288"/>
   </g>
  </g>
  <g partID="931540">
   <g transform="translate(84.5074,51.7834)">
    <g id="copper0">
     <circle stroke-width="0.72" fill="white" cy="4.43465" stroke="white" id="nonconn0" cx="4.43465" r="2.83465"/>
    </g>
   </g>
  </g>
  <g partID="859370">
   <g transform="translate(40.2387,36.4442)">
    <g transform="matrix(0.911029,0.412342,-0.412342,0.911029,0,0)">
     <g id="copper0">
      <g id="copper1">
       <!-- <rect width="55" x="10" y="15.5" fill="none" height="55" stroke="rgb(255, 191, 0)" stroke-width="20" />  -->
       <circle stroke-width="2.16" fill="white" cy="3.096" stroke="white" id="connector0pin" cx="2.7" r="1.98"/>
       <circle stroke-width="2.16" fill="white" cy="3.096" stroke="white" id="connector1pin" cx="31.5" r="1.98"/>
      </g>
     </g>
    </g>
   </g>
  </g>
  <g partID="940380">
   <g transform="translate(151.582,98.6981)">
    <g transform="matrix(0,1,-1,0,0,0)">
     <g id="copper0">
      <circle stroke-width="2.16" fill="white" cy="5.04" id="connector0pin" stroke="white" cx="5.04" r="2.088"/>
      <circle stroke-width="2.16" fill="white" cy="12.24" id="connector1pin" stroke="white" cx="5.04" r="2.088"/>
     </g>
    </g>
   </g>
  </g>
  <g partID="426140">
   <g transform="translate(7.94904,115.625)">
    <g id="copper0">
     <circle stroke-width="0.72" fill="white" cy="7.55273" stroke="white" id="nonconn0" cx="7.55273" r="5.95276"/>
    </g>
   </g>
  </g>
  <g partID="426130">
   <g transform="translate(263.549,115.625)">
    <g id="copper0">
     <circle stroke-width="0.72" fill="white" cy="7.55273" stroke="white" id="nonconn0" cx="7.55273" r="5.95276"/>
    </g>
   </g>
  </g>
  <g partID="426110">
   <g transform="translate(7.94904,5.46532)">
    <g id="copper0">
     <circle stroke-width="0.72" fill="white" cy="7.55273" stroke="white" id="nonconn0" cx="7.55273" r="5.95276"/>
    </g>
   </g>
  </g>
  <g partID="426080">
   <g transform="translate(263.549,5.46531)">
    <g id="copper0">
     <circle stroke-width="0.72" fill="white" cy="7.55273" stroke="white" id="nonconn0" cx="7.55273" r="5.95276"/>
    </g>
   </g>
  </g>
  <g partID="940340">
   <g transform="translate(50.7818,100.138)">
    <g transform="matrix(0,-1,1,0,0,0)">
     <g id="copper0">
      <circle stroke-width="2.16" fill="white" cy="5.04" id="connector0pin" stroke="white" cx="5.04" r="2.088"/>
      <circle stroke-width="2.16" fill="white" cy="12.24" id="connector1pin" stroke="white" cx="5.04" r="2.088"/>
      <circle stroke-width="2.16" fill="white" cy="19.44" id="connector2pin" stroke="white" cx="5.04" r="2.088"/>
      <circle stroke-width="2.16" fill="white" cy="26.64" id="connector3pin" stroke="white" cx="5.04" r="2.088"/>
      <circle stroke-width="2.16" fill="white" cy="33.84" id="connector4pin" stroke="white" cx="5.04" r="2.088"/>
      <circle stroke-width="2.16" fill="white" cy="41.04" id="connector5pin" stroke="white" cx="5.04" r="2.088"/>
      <circle stroke-width="2.16" fill="white" cy="48.24" id="connector6pin" stroke="white" cx="5.04" r="2.088"/>
      <circle stroke-width="2.16" fill="white" cy="55.44" id="connector7pin" stroke="white" cx="5.04" r="2.088"/>
      <circle stroke-width="2.16" fill="white" cy="62.64" id="connector8pin" stroke="white" cx="5.04" r="2.088"/>
      <circle stroke-width="2.16" fill="white" cy="69.84" id="connector9pin" stroke="white" cx="5.04" r="2.088"/>
     </g>
    </g>
   </g>
  </g>
  <g partID="940560">
   <g transform="translate(10.4618,29.5781)">
    <g id="copper0">
     <circle stroke-width="2.16" fill="white" cy="5.04" id="connector0pin" stroke="white" cx="5.04" r="2.088"/>
    </g>
   </g>
  </g>
  <g partID="324610">
   <g transform="translate(254.758,77.9981)">
    <g transform="matrix(2.22045e-16,1,-1,2.22045e-16,0,0)">
     <g id="copper0">
      <g id="copper1">
       <!-- <rect width="55" x="10" y="15.5" fill="none" height="55" stroke="rgb(255, 191, 0)" stroke-width="20" />  -->
       <circle stroke-width="2.16" fill="white" cy="3.096" stroke="white" id="connector0pin" cx="2.7" r="1.98"/>
       <circle stroke-width="2.16" fill="white" cy="3.096" stroke="white" id="connector1pin" cx="31.5" r="1.98"/>
      </g>
     </g>
    </g>
   </g>
  </g>
  <g partID="940400">
   <g transform="translate(154.462,108.778)">
    <g transform="matrix(0,-1,1,0,0,0)">
     <g id="copper0">
      <circle stroke-width="2.16" fill="white" cy="5.04" id="connector0pin" stroke="white" cx="5.04" r="2.088"/>
      <circle stroke-width="2.16" fill="white" cy="12.24" id="connector1pin" stroke="white" cx="5.04" r="2.088"/>
     </g>
    </g>
   </g>
  </g>
  <g partID="885350">
   <g transform="translate(117.922,130.918)">
    <g transform="matrix(-2.22045e-16,-1,1,-2.22045e-16,0,0)">
     <g id="copper0">
      <g id="copper1">
       <!-- <rect width="55" x="10" y="10" fill="none" height="55" stroke="rgb(255, 191, 0)" stroke-width="20" /> -->
       <circle stroke-width="2.16" fill="white" cy="2.7" stroke="white" id="connector0pin" cx="2.7" r="1.98"/>
       <circle stroke-width="2.16" fill="white" cy="2.7" stroke="white" id="connector1pin" cx="24.3" r="1.98"/>
      </g>
     </g>
    </g>
   </g>
  </g>
  <g partID="885330">
   <g transform="translate(110.326,135.238)">
    <g transform="matrix(-2.22045e-16,-1,1,-2.22045e-16,0,0)">
     <g id="copper0">
      <g id="copper1">
       <!-- <rect width="55" x="10" y="15.5" fill="none" height="55" stroke="rgb(255, 191, 0)" stroke-width="20" />  -->
       <circle stroke-width="2.16" fill="white" cy="3.096" stroke="white" id="connector0pin" cx="2.7" r="1.98"/>
       <circle stroke-width="2.16" fill="white" cy="3.096" stroke="white" id="connector1pin" cx="31.5" r="1.98"/>
      </g>
     </g>
    </g>
   </g>
  </g>
  <g partID="885310">
   <g transform="translate(103.522,130.918)">
    <g transform="matrix(-2.22045e-16,-1,1,-2.22045e-16,0,0)">
     <g id="copper0">
      <g id="copper1">
       <!-- <rect width="55" x="10" y="10" fill="none" height="55" stroke="rgb(255, 191, 0)" stroke-width="20" /> -->
       <circle stroke-width="2.16" fill="white" cy="2.7" stroke="white" id="connector0pin" cx="2.7" r="1.98"/>
       <circle stroke-width="2.16" fill="white" cy="2.7" stroke="white" id="connector1pin" cx="24.3" r="1.98"/>
      </g>
     </g>
    </g>
   </g>
  </g>
  <g partID="885290">
   <g transform="translate(95.9258,135.238)">
    <g transform="matrix(-2.22045e-16,-1,1,-2.22045e-16,0,0)">
     <g id="copper0">
      <g id="copper1">
       <!-- <rect width="55" x="10" y="15.5" fill="none" height="55" stroke="rgb(255, 191, 0)" stroke-width="20" />  -->
       <circle stroke-width="2.16" fill="white" cy="3.096" stroke="white" id="connector0pin" cx="2.7" r="1.98"/>
       <circle stroke-width="2.16" fill="white" cy="3.096" stroke="white" id="connector1pin" cx="31.5" r="1.98"/>
      </g>
     </g>
    </g>
   </g>
  </g>
  <g partID="885270">
   <g transform="translate(89.1218,130.918)">
    <g transform="matrix(-2.22045e-16,-1,1,-2.22045e-16,0,0)">
     <g id="copper0">
      <g id="copper1">
       <!-- <rect width="55" x="10" y="10" fill="none" height="55" stroke="rgb(255, 191, 0)" stroke-width="20" /> -->
       <circle stroke-width="2.16" fill="white" cy="2.7" stroke="white" id="connector0pin" cx="2.7" r="1.98"/>
       <circle stroke-width="2.16" fill="white" cy="2.7" stroke="white" id="connector1pin" cx="24.3" r="1.98"/>
      </g>
     </g>
    </g>
   </g>
  </g>
  <g partID="885250">
   <g transform="translate(81.5258,135.238)">
    <g transform="matrix(-2.22045e-16,-1,1,-2.22045e-16,0,0)">
     <g id="copper0">
      <g id="copper1">
       <!-- <rect width="55" x="10" y="15.5" fill="none" height="55" stroke="rgb(255, 191, 0)" stroke-width="20" />  -->
       <circle stroke-width="2.16" fill="white" cy="3.096" stroke="white" id="connector0pin" cx="2.7" r="1.98"/>
       <circle stroke-width="2.16" fill="white" cy="3.096" stroke="white" id="connector1pin" cx="31.5" r="1.98"/>
      </g>
     </g>
    </g>
   </g>
  </g>
  <g partID="885230">
   <g transform="translate(74.7218,130.918)">
    <g transform="matrix(-2.22045e-16,-1,1,-2.22045e-16,0,0)">
     <g id="copper0">
      <g id="copper1">
       <!-- <rect width="55" x="10" y="10" fill="none" height="55" stroke="rgb(255, 191, 0)" stroke-width="20" /> -->
       <circle stroke-width="2.16" fill="white" cy="2.7" stroke="white" id="connector0pin" cx="2.7" r="1.98"/>
       <circle stroke-width="2.16" fill="white" cy="2.7" stroke="white" id="connector1pin" cx="24.3" r="1.98"/>
      </g>
     </g>
    </g>
   </g>
  </g>
  <g partID="885210">
   <g transform="translate(67.1258,135.238)">
    <g transform="matrix(-2.22045e-16,-1,1,-2.22045e-16,0,0)">
     <g id="copper0">
      <g id="copper1">
       <!-- <rect width="55" x="10" y="15.5" fill="none" height="55" stroke="rgb(255, 191, 0)" stroke-width="20" />  -->
       <circle stroke-width="2.16" fill="white" cy="3.096" stroke="white" id="connector0pin" cx="2.7" r="1.98"/>
       <circle stroke-width="2.16" fill="white" cy="3.096" stroke="white" id="connector1pin" cx="31.5" r="1.98"/>
      </g>
     </g>
    </g>
   </g>
  </g>
  <g partID="881460">
   <g transform="translate(60.3218,130.918)">
    <g transform="matrix(-2.22045e-16,-1,1,-2.22045e-16,0,0)">
     <g id="copper0">
      <g id="copper1">
       <!-- <rect width="55" x="10" y="10" fill="none" height="55" stroke="rgb(255, 191, 0)" stroke-width="20" /> -->
       <circle stroke-width="2.16" fill="white" cy="2.7" stroke="white" id="connector0pin" cx="2.7" r="1.98"/>
       <circle stroke-width="2.16" fill="white" cy="2.7" stroke="white" id="connector1pin" cx="24.3" r="1.98"/>
      </g>
     </g>
    </g>
   </g>
  </g>
  <g partID="879330">
   <g transform="translate(52.7258,135.238)">
    <g transform="matrix(-2.22045e-16,-1,1,-2.22045e-16,0,0)">
     <g id="copper0">
      <g id="copper1">
       <!-- <rect width="55" x="10" y="15.5" fill="none" height="55" stroke="rgb(255, 191, 0)" stroke-width="20" />  -->
       <circle stroke-width="2.16" fill="white" cy="3.096" stroke="white" id="connector0pin" cx="2.7" r="1.98"/>
       <circle stroke-width="2.16" fill="white" cy="3.096" stroke="white" id="connector1pin" cx="31.5" r="1.98"/>
      </g>
     </g>
    </g>
   </g>
  </g>
  <g partID="307920">
   <g transform="translate(95.9618,14.6741)">
    <g transform="matrix(-1,-1.66533e-16,1.66533e-16,-1,0,0)">
     <g id="copper0">
      <g id="copper1">
       <!-- <rect width="55" x="10" y="15.5" fill="none" height="55" stroke="rgb(255, 191, 0)" stroke-width="20" />  -->
       <circle stroke-width="2.16" fill="white" cy="3.096" stroke="white" id="connector0pin" cx="2.7" r="1.98"/>
       <circle stroke-width="2.16" fill="white" cy="3.096" stroke="white" id="connector1pin" cx="31.5" r="1.98"/>
      </g>
     </g>
    </g>
   </g>
  </g>
  <g partID="307900">
   <g transform="translate(201.442,30.9461)">
    <g transform="matrix(1,-1.11022e-16,1.11022e-16,1,0,0)">
     <g id="copper0">
      <g id="copper1">
       <!-- <rect width="55" x="10" y="23.5" fill="none" height="55" stroke="rgb(255, 191, 0)" stroke-width="20" /> -->
       <circle stroke-width="2.16" fill="white" cy="3.672" stroke="white" id="connector0pin" cx="2.7" r="1.98"/>
       <circle stroke-width="2.16" fill="white" cy="3.672" stroke="white" id="connector1pin" cx="38.7" r="1.98"/>
      </g>
     </g>
    </g>
   </g>
  </g>
  <g partID="307880">
   <g transform="translate(240.358,72.2381)">
    <g transform="matrix(0,1,-1,0,0,0)">
     <g id="copper0">
      <g id="copper1">
       <!-- <rect width="55" x="10" y="15.5" fill="none" height="55" stroke="rgb(255, 191, 0)" stroke-width="20" />  -->
       <circle stroke-width="2.16" fill="white" cy="3.096" stroke="white" id="connector0pin" cx="2.7" r="1.98"/>
       <circle stroke-width="2.16" fill="white" cy="3.096" stroke="white" id="connector1pin" cx="31.5" r="1.98"/>
      </g>
     </g>
    </g>
   </g>
  </g>
  <g partID="307860">
   <g transform="translate(233.158,77.9981)">
    <g transform="matrix(0,1,-1,0,0,0)">
     <g id="copper0">
      <g id="copper1">
       <!-- <rect width="55" x="10" y="15.5" fill="none" height="55" stroke="rgb(255, 191, 0)" stroke-width="20" />  -->
       <circle stroke-width="2.16" fill="white" cy="3.096" stroke="white" id="connector0pin" cx="2.7" r="1.98"/>
       <circle stroke-width="2.16" fill="white" cy="3.096" stroke="white" id="connector1pin" cx="31.5" r="1.98"/>
      </g>
     </g>
    </g>
   </g>
  </g>
  <g partID="307840">
   <g transform="translate(225.958,72.2381)">
    <g transform="matrix(0,1,-1,0,0,0)">
     <g id="copper0">
      <g id="copper1">
       <!-- <rect width="55" x="10" y="15.5" fill="none" height="55" stroke="rgb(255, 191, 0)" stroke-width="20" />  -->
       <circle stroke-width="2.16" fill="white" cy="3.096" stroke="white" id="connector0pin" cx="2.7" r="1.98"/>
       <circle stroke-width="2.16" fill="white" cy="3.096" stroke="white" id="connector1pin" cx="31.5" r="1.98"/>
      </g>
     </g>
    </g>
   </g>
  </g>
  <g partID="307820">
   <g transform="translate(218.758,77.9981)">
    <g transform="matrix(0,1,-1,0,0,0)">
     <g id="copper0">
      <g id="copper1">
       <!-- <rect width="55" x="10" y="15.5" fill="none" height="55" stroke="rgb(255, 191, 0)" stroke-width="20" />  -->
       <circle stroke-width="2.16" fill="white" cy="3.096" stroke="white" id="connector0pin" cx="2.7" r="1.98"/>
       <circle stroke-width="2.16" fill="white" cy="3.096" stroke="white" id="connector1pin" cx="31.5" r="1.98"/>
      </g>
     </g>
    </g>
   </g>
  </g>
  <g partID="307800">
   <g transform="translate(211.558,72.2381)">
    <g transform="matrix(0,1,-1,0,0,0)">
     <g id="copper0">
      <g id="copper1">
       <!-- <rect width="55" x="10" y="15.5" fill="none" height="55" stroke="rgb(255, 191, 0)" stroke-width="20" />  -->
       <circle stroke-width="2.16" fill="white" cy="3.096" stroke="white" id="connector0pin" cx="2.7" r="1.98"/>
       <circle stroke-width="2.16" fill="white" cy="3.096" stroke="white" id="connector1pin" cx="31.5" r="1.98"/>
      </g>
     </g>
    </g>
   </g>
  </g>
  <g partID="307780">
   <g transform="translate(204.358,77.9981)">
    <g transform="matrix(0,1,-1,0,0,0)">
     <g id="copper0">
      <g id="copper1">
       <!-- <rect width="55" x="10" y="15.5" fill="none" height="55" stroke="rgb(255, 191, 0)" stroke-width="20" />  -->
       <circle stroke-width="2.16" fill="white" cy="3.096" stroke="white" id="connector0pin" cx="2.7" r="1.98"/>
       <circle stroke-width="2.16" fill="white" cy="3.096" stroke="white" id="connector1pin" cx="31.5" r="1.98"/>
      </g>
     </g>
    </g>
   </g>
  </g>
  <g partID="307720">
   <g transform="translate(197.158,72.2381)">
    <g transform="matrix(0,1,-1,0,0,0)">
     <g id="copper0">
      <g id="copper1">
       <!-- <rect width="55" x="10" y="15.5" fill="none" height="55" stroke="rgb(255, 191, 0)" stroke-width="20" />  -->
       <circle stroke-width="2.16" fill="white" cy="3.096" stroke="white" id="connector0pin" cx="2.7" r="1.98"/>
       <circle stroke-width="2.16" fill="white" cy="3.096" stroke="white" id="connector1pin" cx="31.5" r="1.98"/>
      </g>
     </g>
    </g>
   </g>
  </g>
  <g partID="940360">
   <g transform="translate(256.702,115.978)">
    <g transform="matrix(0,1,-1,0,0,0)">
     <g id="copper0">
      <circle stroke-width="2.16" fill="white" cy="5.04" id="connector0pin" stroke="white" cx="5.04" r="2.27905"/>
      <circle stroke-width="2.16" fill="white" cy="12.24" id="connector1pin" stroke="white" cx="5.04" r="2.27905"/>
      <circle stroke-width="2.16" fill="white" cy="19.44" id="connector2pin" stroke="white" cx="5.04" r="2.27905"/>
      <circle stroke-width="2.16" fill="white" cy="26.64" id="connector3pin" stroke="white" cx="5.04" r="2.27905"/>
      <circle stroke-width="2.16" fill="white" cy="33.84" id="connector4pin" stroke="white" cx="5.04" r="2.27905"/>
      <circle stroke-width="2.16" fill="white" cy="41.04" id="connector5pin" stroke="white" cx="5.04" r="2.27905"/>
      <circle stroke-width="2.16" fill="white" cy="48.24" id="connector6pin" stroke="white" cx="5.04" r="2.27905"/>
      <circle stroke-width="2.16" fill="white" cy="55.44" id="connector7pin" stroke="white" cx="5.04" r="2.27905"/>
      <circle stroke-width="2.16" fill="white" cy="62.64" id="connector8pin" stroke="white" cx="5.04" r="2.27905"/>
      <circle stroke-width="2.16" fill="white" cy="69.84" id="connector9pin" stroke="white" cx="5.04" r="2.27905"/>
     </g>
    </g>
   </g>
  </g>
  <g partID="307560">
   <g transform="translate(192.622,70.6181)">
    <g transform="matrix(0,-1,1,0,0,0)">
     <g id="copper0">
      <rect stroke-width="2.16" x="2.34" fill="white" id="square" stroke="white" height="3.96" width="3.96" y="2.34"/>
      <circle stroke-width="2.16" fill="white" cy="4.32" id="connector0pin" stroke="white" cx="4.32" r="1.98"/>
      <circle stroke-width="2.16" fill="white" cy="4.32" id="connector15pin" stroke="white" cx="25.92" r="1.98"/>
      <circle stroke-width="2.16" fill="white" cy="11.52" id="connector1pin" stroke="white" cx="4.32" r="1.98"/>
      <circle stroke-width="2.16" fill="white" cy="11.52" id="connector14pin" stroke="white" cx="25.92" r="1.98"/>
      <circle stroke-width="2.16" fill="white" cy="18.72" id="connector2pin" stroke="white" cx="4.32" r="1.98"/>
      <circle stroke-width="2.16" fill="white" cy="18.72" id="connector13pin" stroke="white" cx="25.92" r="1.98"/>
      <circle stroke-width="2.16" fill="white" cy="25.92" id="connector3pin" stroke="white" cx="4.32" r="1.98"/>
      <circle stroke-width="2.16" fill="white" cy="25.92" id="connector12pin" stroke="white" cx="25.92" r="1.98"/>
      <circle stroke-width="2.16" fill="white" cy="33.12" id="connector4pin" stroke="white" cx="4.32" r="1.98"/>
      <circle stroke-width="2.16" fill="white" cy="33.12" id="connector11pin" stroke="white" cx="25.92" r="1.98"/>
      <circle stroke-width="2.16" fill="white" cy="40.32" id="connector5pin" stroke="white" cx="4.32" r="1.98"/>
      <circle stroke-width="2.16" fill="white" cy="40.32" id="connector10pin" stroke="white" cx="25.92" r="1.98"/>
      <circle stroke-width="2.16" fill="white" cy="47.52" id="connector6pin" stroke="white" cx="4.32" r="1.98"/>
      <circle stroke-width="2.16" fill="white" cy="47.52" id="connector9pin" stroke="white" cx="25.92" r="1.98"/>
      <circle stroke-width="2.16" fill="white" cy="54.72" id="connector7pin" stroke="white" cx="4.32" r="1.98"/>
      <circle stroke-width="2.16" fill="white" cy="54.72" id="connector8pin" stroke="white" cx="25.92" r="1.98"/>
     </g>
    </g>
   </g>
  </g>
  <g partID="419260">
   <g transform="translate(164.542,28.1381)">
    <g transform="matrix(0,1,-1,0,0,0)">
     <g id="copper0">
      <circle stroke-width="1.944" fill="white" id="connector16pad" stroke="white" cy="10.8" cx="3.6" r="1.908"/>
      <rect stroke-width="1.944" x="1.692" fill="white" stroke="white" width="3.814" height="3.816" y="8.892"/>
      <circle stroke-width="1.944" fill="white" id="connector17pad" stroke="white" cy="18" cx="3.6" r="1.908"/>
      <circle stroke-width="1.944" fill="white" id="connector18pad" stroke="white" cy="25.2" cx="3.6" r="1.908"/>
      <circle stroke-width="1.944" fill="white" id="connector19pad" stroke="white" cy="32.4" cx="3.6" r="1.908"/>
      <circle stroke-width="1.944" fill="white" id="connector20pad" stroke="white" cy="39.6" cx="3.6" r="1.908"/>
      <circle stroke-width="1.944" fill="white" id="connector21pad" stroke="white" cy="46.8" cx="3.6" r="1.908"/>
      <circle stroke-width="1.944" fill="white" id="connector22pad" stroke="white" cy="54" cx="3.6" r="1.908"/>
      <circle stroke-width="1.944" fill="white" id="connector23pad" stroke="white" cy="61.2" cx="3.6" r="1.908"/>
      <circle stroke-width="1.944" fill="white" id="connector24pad" stroke="white" cy="68.4" cx="3.6" r="1.908"/>
      <circle stroke-width="1.944" fill="white" id="connector25pad" stroke="white" cy="75.6" cx="3.6" r="1.908"/>
      <circle stroke-width="1.944" fill="white" id="connector26pad" stroke="white" cy="82.8" cx="3.6" r="1.908"/>
      <circle stroke-width="1.944" fill="white" id="connector27pad" stroke="white" cy="90" cx="3.6" r="1.908"/>
      <circle stroke-width="1.944" fill="white" id="connector28pad" stroke="white" cy="97.2" cx="3.6" r="1.908"/>
      <circle stroke-width="1.944" fill="white" id="connector29pad" stroke="white" cy="104.4" cx="3.6" r="1.908"/>
      <circle stroke-width="1.944" fill="white" id="connector30pad" stroke="white" cy="111.6" cx="3.6" r="1.908"/>
      <circle stroke-width="1.944" fill="white" id="connector31pad" stroke="white" cy="10.8" cx="46.8" r="1.908"/>
      <circle stroke-width="1.944" fill="white" id="connector32pad" stroke="white" cy="18" cx="46.8" r="1.908"/>
      <circle stroke-width="1.944" fill="white" id="connector33pad" stroke="white" cy="25.2" cx="46.8" r="1.908"/>
      <circle stroke-width="1.944" fill="white" id="connector34pad" stroke="white" cy="32.4" cx="46.8" r="1.908"/>
      <circle stroke-width="1.944" fill="white" id="connector35pad" stroke="white" cy="39.6" cx="46.8" r="1.908"/>
      <circle stroke-width="1.944" fill="white" id="connector36pad" stroke="white" cy="46.8" cx="46.8" r="1.908"/>
      <circle stroke-width="1.944" fill="white" id="connector37pad" stroke="white" cy="54" cx="46.8" r="1.908"/>
      <circle stroke-width="1.944" fill="white" id="connector38pad" stroke="white" cy="61.2" cx="46.8" r="1.908"/>
      <circle stroke-width="1.944" fill="white" id="connector39pad" stroke="white" cy="68.4" cx="46.8" r="1.908"/>
      <circle stroke-width="1.944" fill="white" id="connector40pad" stroke="white" cy="75.6" cx="46.8" r="1.908"/>
      <circle stroke-width="1.944" fill="white" id="connector41pad" stroke="white" cy="82.8" cx="46.8" r="1.908"/>
      <circle stroke-width="1.944" fill="white" id="connector42pad" stroke="white" cy="90" cx="46.8" r="1.908"/>
      <circle stroke-width="1.944" fill="white" id="connector43pad" stroke="white" cy="97.2" cx="46.8" r="1.908"/>
      <circle stroke-width="1.944" fill="white" id="connector44pad" stroke="white" cy="104.4" cx="46.8" r="1.908"/>
      <circle stroke-width="1.944" fill="white" id="connector45pad" stroke="white" cy="111.6" cx="46.8" r="1.908"/>
     </g>
    </g>
   </g>
  </g>
 </g>
</svg>
