<?xml version='1.0' encoding='UTF-8' standalone='no'?>
<!-- Created with Fritzing (http://www.fritzing.org/) -->
<svg xmlns="http://www.w3.org/2000/svg"  baseProfile="tiny" x="0in" xmlns:svg="http://www.w3.org/2000/svg" version="1.2" viewBox="0 0 283.465 141.732" width="3.93701in" height="1.9685in" y="0in">
 <g transform="matrix(-1, 0, 0, 1, 283.465, 0)">
  <g partID="313440">
   <g  id="board">
    <rect stroke-width="0.5"  fill-opacity="0.5" x="0.288" fill="none" id="boardoutline" stroke="black" width="282.889" height="141.156" y="0.288"/>
   </g>
  </g>
  <g partID="931540">
   <g transform="translate(84.5074,51.7834)">
    <g  id="copper0">
     <circle stroke-width="0"  fill="black" cy="4.43465" stroke="black" id="nonconn0" cx="4.43465" r="2.83465"/>
    </g>
   </g>
  </g>
  <g partID="859370">
   <g transform="translate(40.2387,36.4442)">
    <g transform="matrix(0.911029,0.412342,-0.412342,0.911029,0,0)">
     <g  id="copper0">
      <g  id="copper1">
       <!-- <rect width="55" x="10" y="15.5" fill="none" height="55" stroke="rgb(255, 191, 0)" stroke-width="20" />  -->
       <circle stroke-width="1.44"  fill="none" cy="3.096" stroke="black" id="connector0pin" cx="2.7" r="1.98"/>
       <circle stroke-width="1.44"  fill="none" cy="3.096" stroke="black" id="connector1pin" cx="31.5" r="1.98"/>
      </g>
     </g>
    </g>
   </g>
  </g>
  <g partID="940380">
   <g transform="translate(151.582,98.6981)">
    <g transform="matrix(0,1,-1,0,0,0)">
     <g  id="copper0">
      <circle stroke-width="1.44"  fill="none" cy="5.04" id="connector0pin" stroke="black" cx="5.04" r="2.088"/>
      <circle stroke-width="1.44"  fill="none" cy="12.24" id="connector1pin" stroke="black" cx="5.04" r="2.088"/>
     </g>
    </g>
   </g>
  </g>
  <g partID="426140">
   <g transform="translate(7.94904,115.625)">
    <g  id="copper0">
     <circle stroke-width="0"  fill="black" cy="7.55273" stroke="black" id="nonconn0" cx="7.55273" r="5.95276"/>
    </g>
   </g>
  </g>
  <g partID="426130">
   <g transform="translate(263.549,115.625)">
    <g  id="copper0">
     <circle stroke-width="0"  fill="black" cy="7.55273" stroke="black" id="nonconn0" cx="7.55273" r="5.95276"/>
    </g>
   </g>
  </g>
  <g partID="426110">
   <g transform="translate(7.94904,5.46532)">
    <g  id="copper0">
     <circle stroke-width="0"  fill="black" cy="7.55273" stroke="black" id="nonconn0" cx="7.55273" r="5.95276"/>
    </g>
   </g>
  </g>
  <g partID="426080">
   <g transform="translate(263.549,5.46531)">
    <g  id="copper0">
     <circle stroke-width="0"  fill="black" cy="7.55273" stroke="black" id="nonconn0" cx="7.55273" r="5.95276"/>
    </g>
   </g>
  </g>
  <g partID="940340">
   <g transform="translate(50.7818,100.138)">
    <g transform="matrix(0,-1,1,0,0,0)">
     <g  id="copper0">
      <circle stroke-width="1.44"  fill="none" cy="5.04" id="connector0pin" stroke="black" cx="5.04" r="2.088"/>
      <circle stroke-width="1.44"  fill="none" cy="12.24" id="connector1pin" stroke="black" cx="5.04" r="2.088"/>
      <circle stroke-width="1.44"  fill="none" cy="19.44" id="connector2pin" stroke="black" cx="5.04" r="2.088"/>
      <circle stroke-width="1.44"  fill="none" cy="26.64" id="connector3pin" stroke="black" cx="5.04" r="2.088"/>
      <circle stroke-width="1.44"  fill="none" cy="33.84" id="connector4pin" stroke="black" cx="5.04" r="2.088"/>
      <circle stroke-width="1.44"  fill="none" cy="41.04" id="connector5pin" stroke="black" cx="5.04" r="2.088"/>
      <circle stroke-width="1.44"  fill="none" cy="48.24" id="connector6pin" stroke="black" cx="5.04" r="2.088"/>
      <circle stroke-width="1.44"  fill="none" cy="55.44" id="connector7pin" stroke="black" cx="5.04" r="2.088"/>
      <circle stroke-width="1.44"  fill="none" cy="62.64" id="connector8pin" stroke="black" cx="5.04" r="2.088"/>
      <circle stroke-width="1.44"  fill="none" cy="69.84" id="connector9pin" stroke="black" cx="5.04" r="2.088"/>
     </g>
    </g>
   </g>
  </g>
  <g partID="940560">
   <g transform="translate(10.4618,29.5781)">
    <g  id="copper0">
     <circle stroke-width="1.44"  fill="none" cy="5.04" id="connector0pin" stroke="black" cx="5.04" r="2.088"/>
    </g>
   </g>
  </g>
  <g partID="324610">
   <g transform="translate(254.758,77.9981)">
    <g transform="matrix(2.22045e-16,1,-1,2.22045e-16,0,0)">
     <g  id="copper0">
      <g  id="copper1">
       <!-- <rect width="55" x="10" y="15.5" fill="none" height="55" stroke="rgb(255, 191, 0)" stroke-width="20" />  -->
       <circle stroke-width="1.44"  fill="none" cy="3.096" stroke="black" id="connector0pin" cx="2.7" r="1.98"/>
       <circle stroke-width="1.44"  fill="none" cy="3.096" stroke="black" id="connector1pin" cx="31.5" r="1.98"/>
      </g>
     </g>
    </g>
   </g>
  </g>
  <g partID="940400">
   <g transform="translate(154.462,108.778)">
    <g transform="matrix(0,-1,1,0,0,0)">
     <g  id="copper0">
      <circle stroke-width="1.44"  fill="none" cy="5.04" id="connector0pin" stroke="black" cx="5.04" r="2.088"/>
      <circle stroke-width="1.44"  fill="none" cy="12.24" id="connector1pin" stroke="black" cx="5.04" r="2.088"/>
     </g>
    </g>
   </g>
  </g>
  <g partID="885350">
   <g transform="translate(117.922,130.918)">
    <g transform="matrix(-2.22045e-16,-1,1,-2.22045e-16,0,0)">
     <g  id="copper0">
      <g  id="copper1">
       <!-- <rect width="55" x="10" y="10" fill="none" height="55" stroke="rgb(255, 191, 0)" stroke-width="20" /> -->
       <circle stroke-width="1.44"  fill="none" cy="2.7" stroke="black" id="connector0pin" cx="2.7" r="1.98"/>
       <circle stroke-width="1.44"  fill="none" cy="2.7" stroke="black" id="connector1pin" cx="24.3" r="1.98"/>
      </g>
     </g>
    </g>
   </g>
  </g>
  <g partID="885330">
   <g transform="translate(110.326,135.238)">
    <g transform="matrix(-2.22045e-16,-1,1,-2.22045e-16,0,0)">
     <g  id="copper0">
      <g  id="copper1">
       <!-- <rect width="55" x="10" y="15.5" fill="none" height="55" stroke="rgb(255, 191, 0)" stroke-width="20" />  -->
       <circle stroke-width="1.44"  fill="none" cy="3.096" stroke="black" id="connector0pin" cx="2.7" r="1.98"/>
       <circle stroke-width="1.44"  fill="none" cy="3.096" stroke="black" id="connector1pin" cx="31.5" r="1.98"/>
      </g>
     </g>
    </g>
   </g>
  </g>
  <g partID="885310">
   <g transform="translate(103.522,130.918)">
    <g transform="matrix(-2.22045e-16,-1,1,-2.22045e-16,0,0)">
     <g  id="copper0">
      <g  id="copper1">
       <!-- <rect width="55" x="10" y="10" fill="none" height="55" stroke="rgb(255, 191, 0)" stroke-width="20" /> -->
       <circle stroke-width="1.44"  fill="none" cy="2.7" stroke="black" id="connector0pin" cx="2.7" r="1.98"/>
       <circle stroke-width="1.44"  fill="none" cy="2.7" stroke="black" id="connector1pin" cx="24.3" r="1.98"/>
      </g>
     </g>
    </g>
   </g>
  </g>
  <g partID="885290">
   <g transform="translate(95.9258,135.238)">
    <g transform="matrix(-2.22045e-16,-1,1,-2.22045e-16,0,0)">
     <g  id="copper0">
      <g  id="copper1">
       <!-- <rect width="55" x="10" y="15.5" fill="none" height="55" stroke="rgb(255, 191, 0)" stroke-width="20" />  -->
       <circle stroke-width="1.44"  fill="none" cy="3.096" stroke="black" id="connector0pin" cx="2.7" r="1.98"/>
       <circle stroke-width="1.44"  fill="none" cy="3.096" stroke="black" id="connector1pin" cx="31.5" r="1.98"/>
      </g>
     </g>
    </g>
   </g>
  </g>
  <g partID="885270">
   <g transform="translate(89.1218,130.918)">
    <g transform="matrix(-2.22045e-16,-1,1,-2.22045e-16,0,0)">
     <g  id="copper0">
      <g  id="copper1">
       <!-- <rect width="55" x="10" y="10" fill="none" height="55" stroke="rgb(255, 191, 0)" stroke-width="20" /> -->
       <circle stroke-width="1.44"  fill="none" cy="2.7" stroke="black" id="connector0pin" cx="2.7" r="1.98"/>
       <circle stroke-width="1.44"  fill="none" cy="2.7" stroke="black" id="connector1pin" cx="24.3" r="1.98"/>
      </g>
     </g>
    </g>
   </g>
  </g>
  <g partID="885250">
   <g transform="translate(81.5258,135.238)">
    <g transform="matrix(-2.22045e-16,-1,1,-2.22045e-16,0,0)">
     <g  id="copper0">
      <g  id="copper1">
       <!-- <rect width="55" x="10" y="15.5" fill="none" height="55" stroke="rgb(255, 191, 0)" stroke-width="20" />  -->
       <circle stroke-width="1.44"  fill="none" cy="3.096" stroke="black" id="connector0pin" cx="2.7" r="1.98"/>
       <circle stroke-width="1.44"  fill="none" cy="3.096" stroke="black" id="connector1pin" cx="31.5" r="1.98"/>
      </g>
     </g>
    </g>
   </g>
  </g>
  <g partID="885230">
   <g transform="translate(74.7218,130.918)">
    <g transform="matrix(-2.22045e-16,-1,1,-2.22045e-16,0,0)">
     <g  id="copper0">
      <g  id="copper1">
       <!-- <rect width="55" x="10" y="10" fill="none" height="55" stroke="rgb(255, 191, 0)" stroke-width="20" /> -->
       <circle stroke-width="1.44"  fill="none" cy="2.7" stroke="black" id="connector0pin" cx="2.7" r="1.98"/>
       <circle stroke-width="1.44"  fill="none" cy="2.7" stroke="black" id="connector1pin" cx="24.3" r="1.98"/>
      </g>
     </g>
    </g>
   </g>
  </g>
  <g partID="885210">
   <g transform="translate(67.1258,135.238)">
    <g transform="matrix(-2.22045e-16,-1,1,-2.22045e-16,0,0)">
     <g  id="copper0">
      <g  id="copper1">
       <!-- <rect width="55" x="10" y="15.5" fill="none" height="55" stroke="rgb(255, 191, 0)" stroke-width="20" />  -->
       <circle stroke-width="1.44"  fill="none" cy="3.096" stroke="black" id="connector0pin" cx="2.7" r="1.98"/>
       <circle stroke-width="1.44"  fill="none" cy="3.096" stroke="black" id="connector1pin" cx="31.5" r="1.98"/>
      </g>
     </g>
    </g>
   </g>
  </g>
  <g partID="881460">
   <g transform="translate(60.3218,130.918)">
    <g transform="matrix(-2.22045e-16,-1,1,-2.22045e-16,0,0)">
     <g  id="copper0">
      <g  id="copper1">
       <!-- <rect width="55" x="10" y="10" fill="none" height="55" stroke="rgb(255, 191, 0)" stroke-width="20" /> -->
       <circle stroke-width="1.44"  fill="none" cy="2.7" stroke="black" id="connector0pin" cx="2.7" r="1.98"/>
       <circle stroke-width="1.44"  fill="none" cy="2.7" stroke="black" id="connector1pin" cx="24.3" r="1.98"/>
      </g>
     </g>
    </g>
   </g>
  </g>
  <g partID="879330">
   <g transform="translate(52.7258,135.238)">
    <g transform="matrix(-2.22045e-16,-1,1,-2.22045e-16,0,0)">
     <g  id="copper0">
      <g  id="copper1">
       <!-- <rect width="55" x="10" y="15.5" fill="none" height="55" stroke="rgb(255, 191, 0)" stroke-width="20" />  -->
       <circle stroke-width="1.44"  fill="none" cy="3.096" stroke="black" id="connector0pin" cx="2.7" r="1.98"/>
       <circle stroke-width="1.44"  fill="none" cy="3.096" stroke="black" id="connector1pin" cx="31.5" r="1.98"/>
      </g>
     </g>
    </g>
   </g>
  </g>
  <g partID="307920">
   <g transform="translate(95.9618,14.6741)">
    <g transform="matrix(-1,-1.66533e-16,1.66533e-16,-1,0,0)">
     <g  id="copper0">
      <g  id="copper1">
       <!-- <rect width="55" x="10" y="15.5" fill="none" height="55" stroke="rgb(255, 191, 0)" stroke-width="20" />  -->
       <circle stroke-width="1.44"  fill="none" cy="3.096" stroke="black" id="connector0pin" cx="2.7" r="1.98"/>
       <circle stroke-width="1.44"  fill="none" cy="3.096" stroke="black" id="connector1pin" cx="31.5" r="1.98"/>
      </g>
     </g>
    </g>
   </g>
  </g>
  <g partID="307900">
   <g transform="translate(201.442,30.9461)">
    <g transform="matrix(1,-1.11022e-16,1.11022e-16,1,0,0)">
     <g  id="copper0">
      <g  id="copper1">
       <!-- <rect width="55" x="10" y="23.5" fill="none" height="55" stroke="rgb(255, 191, 0)" stroke-width="20" /> -->
       <circle stroke-width="1.44"  fill="none" cy="3.672" stroke="black" id="connector0pin" cx="2.7" r="1.98"/>
       <circle stroke-width="1.44"  fill="none" cy="3.672" stroke="black" id="connector1pin" cx="38.7" r="1.98"/>
      </g>
     </g>
    </g>
   </g>
  </g>
  <g partID="307880">
   <g transform="translate(240.358,72.2381)">
    <g transform="matrix(0,1,-1,0,0,0)">
     <g  id="copper0">
      <g  id="copper1">
       <!-- <rect width="55" x="10" y="15.5" fill="none" height="55" stroke="rgb(255, 191, 0)" stroke-width="20" />  -->
       <circle stroke-width="1.44"  fill="none" cy="3.096" stroke="black" id="connector0pin" cx="2.7" r="1.98"/>
       <circle stroke-width="1.44"  fill="none" cy="3.096" stroke="black" id="connector1pin" cx="31.5" r="1.98"/>
      </g>
     </g>
    </g>
   </g>
  </g>
  <g partID="307860">
   <g transform="translate(233.158,77.9981)">
    <g transform="matrix(0,1,-1,0,0,0)">
     <g  id="copper0">
      <g  id="copper1">
       <!-- <rect width="55" x="10" y="15.5" fill="none" height="55" stroke="rgb(255, 191, 0)" stroke-width="20" />  -->
       <circle stroke-width="1.44"  fill="none" cy="3.096" stroke="black" id="connector0pin" cx="2.7" r="1.98"/>
       <circle stroke-width="1.44"  fill="none" cy="3.096" stroke="black" id="connector1pin" cx="31.5" r="1.98"/>
      </g>
     </g>
    </g>
   </g>
  </g>
  <g partID="307840">
   <g transform="translate(225.958,72.2381)">
    <g transform="matrix(0,1,-1,0,0,0)">
     <g  id="copper0">
      <g  id="copper1">
       <!-- <rect width="55" x="10" y="15.5" fill="none" height="55" stroke="rgb(255, 191, 0)" stroke-width="20" />  -->
       <circle stroke-width="1.44"  fill="none" cy="3.096" stroke="black" id="connector0pin" cx="2.7" r="1.98"/>
       <circle stroke-width="1.44"  fill="none" cy="3.096" stroke="black" id="connector1pin" cx="31.5" r="1.98"/>
      </g>
     </g>
    </g>
   </g>
  </g>
  <g partID="307820">
   <g transform="translate(218.758,77.9981)">
    <g transform="matrix(0,1,-1,0,0,0)">
     <g  id="copper0">
      <g  id="copper1">
       <!-- <rect width="55" x="10" y="15.5" fill="none" height="55" stroke="rgb(255, 191, 0)" stroke-width="20" />  -->
       <circle stroke-width="1.44"  fill="none" cy="3.096" stroke="black" id="connector0pin" cx="2.7" r="1.98"/>
       <circle stroke-width="1.44"  fill="none" cy="3.096" stroke="black" id="connector1pin" cx="31.5" r="1.98"/>
      </g>
     </g>
    </g>
   </g>
  </g>
  <g partID="307800">
   <g transform="translate(211.558,72.2381)">
    <g transform="matrix(0,1,-1,0,0,0)">
     <g  id="copper0">
      <g  id="copper1">
       <!-- <rect width="55" x="10" y="15.5" fill="none" height="55" stroke="rgb(255, 191, 0)" stroke-width="20" />  -->
       <circle stroke-width="1.44"  fill="none" cy="3.096" stroke="black" id="connector0pin" cx="2.7" r="1.98"/>
       <circle stroke-width="1.44"  fill="none" cy="3.096" stroke="black" id="connector1pin" cx="31.5" r="1.98"/>
      </g>
     </g>
    </g>
   </g>
  </g>
  <g partID="307780">
   <g transform="translate(204.358,77.9981)">
    <g transform="matrix(0,1,-1,0,0,0)">
     <g  id="copper0">
      <g  id="copper1">
       <!-- <rect width="55" x="10" y="15.5" fill="none" height="55" stroke="rgb(255, 191, 0)" stroke-width="20" />  -->
       <circle stroke-width="1.44"  fill="none" cy="3.096" stroke="black" id="connector0pin" cx="2.7" r="1.98"/>
       <circle stroke-width="1.44"  fill="none" cy="3.096" stroke="black" id="connector1pin" cx="31.5" r="1.98"/>
      </g>
     </g>
    </g>
   </g>
  </g>
  <g partID="307720">
   <g transform="translate(197.158,72.2381)">
    <g transform="matrix(0,1,-1,0,0,0)">
     <g  id="copper0">
      <g  id="copper1">
       <!-- <rect width="55" x="10" y="15.5" fill="none" height="55" stroke="rgb(255, 191, 0)" stroke-width="20" />  -->
       <circle stroke-width="1.44"  fill="none" cy="3.096" stroke="black" id="connector0pin" cx="2.7" r="1.98"/>
       <circle stroke-width="1.44"  fill="none" cy="3.096" stroke="black" id="connector1pin" cx="31.5" r="1.98"/>
      </g>
     </g>
    </g>
   </g>
  </g>
  <g partID="940360">
   <g transform="translate(256.702,115.978)">
    <g transform="matrix(0,1,-1,0,0,0)">
     <g  id="copper0">
      <circle stroke-width="1.44"  fill="none" cy="5.04" id="connector0pin" stroke="black" cx="5.04" r="2.27905"/>
      <circle stroke-width="1.44"  fill="none" cy="12.24" id="connector1pin" stroke="black" cx="5.04" r="2.27905"/>
      <circle stroke-width="1.44"  fill="none" cy="19.44" id="connector2pin" stroke="black" cx="5.04" r="2.27905"/>
      <circle stroke-width="1.44"  fill="none" cy="26.64" id="connector3pin" stroke="black" cx="5.04" r="2.27905"/>
      <circle stroke-width="1.44"  fill="none" cy="33.84" id="connector4pin" stroke="black" cx="5.04" r="2.27905"/>
      <circle stroke-width="1.44"  fill="none" cy="41.04" id="connector5pin" stroke="black" cx="5.04" r="2.27905"/>
      <circle stroke-width="1.44"  fill="none" cy="48.24" id="connector6pin" stroke="black" cx="5.04" r="2.27905"/>
      <circle stroke-width="1.44"  fill="none" cy="55.44" id="connector7pin" stroke="black" cx="5.04" r="2.27905"/>
      <circle stroke-width="1.44"  fill="none" cy="62.64" id="connector8pin" stroke="black" cx="5.04" r="2.27905"/>
      <circle stroke-width="1.44"  fill="none" cy="69.84" id="connector9pin" stroke="black" cx="5.04" r="2.27905"/>
     </g>
    </g>
   </g>
  </g>
  <g partID="307560">
   <g transform="translate(192.622,70.6181)">
    <g transform="matrix(0,-1,1,0,0,0)">
     <g  id="copper0">
      <rect stroke-width="1.44"  x="2.34" fill="none" id="square" stroke="black" height="3.96" width="3.96" y="2.34"/>
      <circle stroke-width="1.44"  fill="none" cy="4.32" id="connector0pin" stroke="black" cx="4.32" r="1.98"/>
      <circle stroke-width="1.44"  fill="none" cy="4.32" id="connector15pin" stroke="black" cx="25.92" r="1.98"/>
      <circle stroke-width="1.44"  fill="none" cy="11.52" id="connector1pin" stroke="black" cx="4.32" r="1.98"/>
      <circle stroke-width="1.44"  fill="none" cy="11.52" id="connector14pin" stroke="black" cx="25.92" r="1.98"/>
      <circle stroke-width="1.44"  fill="none" cy="18.72" id="connector2pin" stroke="black" cx="4.32" r="1.98"/>
      <circle stroke-width="1.44"  fill="none" cy="18.72" id="connector13pin" stroke="black" cx="25.92" r="1.98"/>
      <circle stroke-width="1.44"  fill="none" cy="25.92" id="connector3pin" stroke="black" cx="4.32" r="1.98"/>
      <circle stroke-width="1.44"  fill="none" cy="25.92" id="connector12pin" stroke="black" cx="25.92" r="1.98"/>
      <circle stroke-width="1.44"  fill="none" cy="33.12" id="connector4pin" stroke="black" cx="4.32" r="1.98"/>
      <circle stroke-width="1.44"  fill="none" cy="33.12" id="connector11pin" stroke="black" cx="25.92" r="1.98"/>
      <circle stroke-width="1.44"  fill="none" cy="40.32" id="connector5pin" stroke="black" cx="4.32" r="1.98"/>
      <circle stroke-width="1.44"  fill="none" cy="40.32" id="connector10pin" stroke="black" cx="25.92" r="1.98"/>
      <circle stroke-width="1.44"  fill="none" cy="47.52" id="connector6pin" stroke="black" cx="4.32" r="1.98"/>
      <circle stroke-width="1.44"  fill="none" cy="47.52" id="connector9pin" stroke="black" cx="25.92" r="1.98"/>
      <circle stroke-width="1.44"  fill="none" cy="54.72" id="connector7pin" stroke="black" cx="4.32" r="1.98"/>
      <circle stroke-width="1.44"  fill="none" cy="54.72" id="connector8pin" stroke="black" cx="25.92" r="1.98"/>
     </g>
    </g>
   </g>
  </g>
  <g partID="419260">
   <g transform="translate(164.542,28.1381)">
    <g transform="matrix(0,1,-1,0,0,0)">
     <g  id="copper0">
      <circle stroke-width="1.224"  fill="none" id="connector16pad" stroke="black" cy="10.8" cx="3.6" r="1.908"/>
      <rect stroke-width="1.224"  x="1.692" fill="none" stroke="black" width="3.814" height="3.816" y="8.892"/>
      <circle stroke-width="1.224"  fill="none" id="connector17pad" stroke="black" cy="18" cx="3.6" r="1.908"/>
      <circle stroke-width="1.224"  fill="none" id="connector18pad" stroke="black" cy="25.2" cx="3.6" r="1.908"/>
      <circle stroke-width="1.224"  fill="none" id="connector19pad" stroke="black" cy="32.4" cx="3.6" r="1.908"/>
      <circle stroke-width="1.224"  fill="none" id="connector20pad" stroke="black" cy="39.6" cx="3.6" r="1.908"/>
      <circle stroke-width="1.224"  fill="none" id="connector21pad" stroke="black" cy="46.8" cx="3.6" r="1.908"/>
      <circle stroke-width="1.224"  fill="none" id="connector22pad" stroke="black" cy="54" cx="3.6" r="1.908"/>
      <circle stroke-width="1.224"  fill="none" id="connector23pad" stroke="black" cy="61.2" cx="3.6" r="1.908"/>
      <circle stroke-width="1.224"  fill="none" id="connector24pad" stroke="black" cy="68.4" cx="3.6" r="1.908"/>
      <circle stroke-width="1.224"  fill="none" id="connector25pad" stroke="black" cy="75.6" cx="3.6" r="1.908"/>
      <circle stroke-width="1.224"  fill="none" id="connector26pad" stroke="black" cy="82.8" cx="3.6" r="1.908"/>
      <circle stroke-width="1.224"  fill="none" id="connector27pad" stroke="black" cy="90" cx="3.6" r="1.908"/>
      <circle stroke-width="1.224"  fill="none" id="connector28pad" stroke="black" cy="97.2" cx="3.6" r="1.908"/>
      <circle stroke-width="1.224"  fill="none" id="connector29pad" stroke="black" cy="104.4" cx="3.6" r="1.908"/>
      <circle stroke-width="1.224"  fill="none" id="connector30pad" stroke="black" cy="111.6" cx="3.6" r="1.908"/>
      <circle stroke-width="1.224"  fill="none" id="connector31pad" stroke="black" cy="10.8" cx="46.8" r="1.908"/>
      <circle stroke-width="1.224"  fill="none" id="connector32pad" stroke="black" cy="18" cx="46.8" r="1.908"/>
      <circle stroke-width="1.224"  fill="none" id="connector33pad" stroke="black" cy="25.2" cx="46.8" r="1.908"/>
      <circle stroke-width="1.224"  fill="none" id="connector34pad" stroke="black" cy="32.4" cx="46.8" r="1.908"/>
      <circle stroke-width="1.224"  fill="none" id="connector35pad" stroke="black" cy="39.6" cx="46.8" r="1.908"/>
      <circle stroke-width="1.224"  fill="none" id="connector36pad" stroke="black" cy="46.8" cx="46.8" r="1.908"/>
      <circle stroke-width="1.224"  fill="none" id="connector37pad" stroke="black" cy="54" cx="46.8" r="1.908"/>
      <circle stroke-width="1.224"  fill="none" id="connector38pad" stroke="black" cy="61.2" cx="46.8" r="1.908"/>
      <circle stroke-width="1.224"  fill="none" id="connector39pad" stroke="black" cy="68.4" cx="46.8" r="1.908"/>
      <circle stroke-width="1.224"  fill="none" id="connector40pad" stroke="black" cy="75.6" cx="46.8" r="1.908"/>
      <circle stroke-width="1.224"  fill="none" id="connector41pad" stroke="black" cy="82.8" cx="46.8" r="1.908"/>
      <circle stroke-width="1.224"  fill="none" id="connector42pad" stroke="black" cy="90" cx="46.8" r="1.908"/>
      <circle stroke-width="1.224"  fill="none" id="connector43pad" stroke="black" cy="97.2" cx="46.8" r="1.908"/>
      <circle stroke-width="1.224"  fill="none" id="connector44pad" stroke="black" cy="104.4" cx="46.8" r="1.908"/>
      <circle stroke-width="1.224"  fill="none" id="connector45pad" stroke="black" cy="111.6" cx="46.8" r="1.908"/>
     </g>
    </g>
   </g>
  </g>
  <g partID="887930">
   <line stroke-width="2.304" stroke-linecap="round" y1="128.866" stroke="black" x1="107.302" y2="131.89" x2="112.341"/>
  </g>
  <g partID="624750">
   <line stroke-width="2.304" stroke-linecap="round" y1="30.4551" stroke="black" x1="95.9584" y2="12.8254" x2="93.44"/>
  </g>
  <g partID="937930">
   <line stroke-width="2.304" stroke-linecap="round" y1="119.459" stroke="black" x1="237.262" y2="104.998" x2="237.262"/>
  </g>
  <g partID="888380">
   <line stroke-width="2.304" stroke-linecap="round" y1="131.89" stroke="black" x1="56.9023" y2="128.866" x2="61.9414"/>
  </g>
  <g partID="887050">
   <line stroke-width="2.304" stroke-linecap="round" y1="96.4661" stroke="black" x1="77.4218" y2="105.358" x2="77.4218"/>
  </g>
  <g partID="888190">
   <line stroke-width="2.304" stroke-linecap="round" y1="128.866" stroke="black" x1="64.1023" y2="131.89" x2="69.1414"/>
  </g>
  <g partID="888100">
   <line stroke-width="2.304" stroke-linecap="round" y1="131.89" stroke="black" x1="71.3023" y2="128.866" x2="76.3414"/>
  </g>
  <g partID="937570">
   <path stroke-width="2.304" d="M201.262,109.498C201.106,113.55, 201.262,121.018 201.262,121.018" stroke-linecap="round" fill="none" stroke="black"/>
  </g>
  <g partID="414410">
   <line stroke-width="2.304" stroke-linecap="round" y1="73.7427" stroke="black" x1="223.26" y2="67.4934" x2="225.343"/>
  </g>
  <g partID="859400">
   <line stroke-width="2.304" stroke-linecap="round" y1="53.223" stroke="black" x1="66.8546" y2="64.791" x2="57.2506"/>
  </g>
  <g partID="888730">
   <line stroke-width="2.304" stroke-linecap="round" y1="64.791" stroke="black" x1="57.2506" y2="73.7452" x2="53.4482"/>
  </g>
  <g partID="414370">
   <line stroke-width="2.304" stroke-linecap="round" y1="73.7427" stroke="black" x1="208.86" y2="67.4934" x2="210.943"/>
  </g>
  <g partID="799660">
   <path stroke-width="2.304" d="M84.6218,95.0981C84.6218,95.0981, 86.3086,86.2945 88.9417,74.9381" stroke-linecap="round" fill="none" stroke="black"/>
  </g>
  <g partID="797530">
   <line stroke-width="2.304" stroke-linecap="round" y1="93.7604" stroke="black" x1="106.508" y2="76.2053" x2="110.27"/>
  </g>
  <g partID="933920">
   <line stroke-width="2.304" stroke-linecap="round" y1="80.3001" stroke="black" x1="252.857" y2="76.3927" x2="264.595"/>
  </g>
  <g partID="940000">
   <line stroke-width="2.304" stroke-linecap="round" y1="76.3927" stroke="black" x1="264.595" y2="30.365" x2="264.613"/>
  </g>
  <g partID="934070">
   <line stroke-width="2.304" stroke-linecap="round" y1="30.365" stroke="black" x1="264.613" y2="24.4846" x2="240.21"/>
  </g>
  <g partID="934020">
   <line stroke-width="2.304" stroke-linecap="round" y1="24.4846" stroke="black" x1="240.21" y2="7.28472" x2="240.21"/>
  </g>
  <g partID="933970">
   <line stroke-width="2.304" stroke-linecap="round" y1="7.28478" stroke="black" x1="240.21" y2="5.81471" x2="110.549"/>
  </g>
  <g partID="933910">
   <line stroke-width="2.304" stroke-linecap="round" y1="5.81471" stroke="black" x1="110.549" y2="30.4894" x2="103.689"/>
  </g>
  <g partID="937850">
   <line stroke-width="1.152" stroke-linecap="round" y1="119.459" stroke="black" x1="222.862" y2="104.998" x2="222.862"/>
  </g>
  <g partID="859640">
   <line stroke-width="3.456" stroke-linecap="round" y1="103.738" stroke="black" x1="147.91" y2="103.738" x2="158.134"/>
  </g>
  <g partID="887960">
   <line stroke-width="2.304" stroke-linecap="round" y1="131.89" stroke="black" x1="100.102" y2="128.866" x2="105.141"/>
  </g>
  <g partID="937770">
   <line stroke-width="2.304" stroke-linecap="round" y1="119.459" stroke="black" x1="208.462" y2="104.998" x2="208.462"/>
  </g>
  <g partID="531110">
   <line stroke-width="2.304" stroke-linecap="round" y1="65.1253" stroke="black" x1="246.881" y2="59.0794" x2="244.506"/>
  </g>
  <g partID="531200">
   <line stroke-width="2.304" stroke-linecap="round" y1="59.0794" stroke="black" x1="244.506" y2="59.0586" x2="189.8"/>
  </g>
  <g partID="528660">
   <line stroke-width="2.304" stroke-linecap="round" y1="59.0586" stroke="black" x1="189.799" y2="66.2636" x2="181.064"/>
  </g>
  <g partID="940880">
   <line stroke-width="2.304" stroke-linecap="round" y1="66.2636" stroke="black" x1="181.064" y2="66.4101" x2="146.638"/>
  </g>
  <g partID="933410">
   <line stroke-width="2.304" stroke-linecap="round" y1="66.4101" stroke="black" x1="146.638" y2="73.6422" x2="146.556"/>
  </g>
  <g partID="888670">
   <line stroke-width="2.304" stroke-linecap="round" y1="41.5072" stroke="black" x1="40.8627" y2="54.7754" x2="34.2922"/>
  </g>
  <g partID="888760">
   <line stroke-width="2.304" stroke-linecap="round" y1="54.7754" stroke="black" x1="34.2922" y2="86.4235" x2="21.1326"/>
  </g>
  <g partID="888700">
   <line stroke-width="2.304" stroke-linecap="round" y1="86.4235" stroke="black" x1="21.1326" y2="118.072" x2="48.6848"/>
  </g>
  <g partID="888660">
   <line stroke-width="2.304" stroke-linecap="round" y1="118.072" stroke="black" x1="48.6848" y2="118.212" x2="129.335"/>
  </g>
  <g partID="940450">
   <line stroke-width="2.304" stroke-linecap="round" y1="118.212" stroke="black" x1="129.335" y2="104.863" x2="138.564"/>
  </g>
  <g partID="937810">
   <line stroke-width="2.304" stroke-linecap="round" y1="119.459" stroke="black" x1="215.662" y2="110.758" x2="215.662"/>
  </g>
  <g partID="416170">
   <line stroke-width="2.304" stroke-linecap="round" y1="102.37" stroke="black" x1="166.703" y2="74.9131" x2="166.723"/>
  </g>
  <g partID="627840">
   <line stroke-width="2.304" stroke-linecap="round" y1="74.9131" stroke="black" x1="166.723" y2="74.9356" x2="155.038"/>
  </g>
  <g partID="887200">
   <line stroke-width="2.304" stroke-linecap="round" y1="96.4661" stroke="black" x1="84.6218" y2="102.478" x2="84.6218"/>
  </g>
  <g partID="414450">
   <line stroke-width="2.304" stroke-linecap="round" y1="79.4625" stroke="black" x1="230.309" y2="67.5336" x2="232.695"/>
  </g>
  <g partID="886810">
   <line stroke-width="2.304" stroke-linecap="round" y1="96.4661" stroke="black" x1="63.0218" y2="105.358" x2="63.0218"/>
  </g>
  <g partID="777150">
   <line stroke-width="2.304" stroke-linecap="round" y1="32.7525" stroke="black" x1="52.1351" y2="38.9134" x2="47.2371"/>
  </g>
  <g partID="859340">
   <line stroke-width="2.304" stroke-linecap="round" y1="38.9134" stroke="black" x1="47.2371" y2="82.0302" x2="29.9139"/>
  </g>
  <g partID="789480">
   <line stroke-width="2.304" stroke-linecap="round" y1="82.0302" stroke="black" x1="29.9139" y2="95.0746" x2="45.7301"/>
  </g>
  <g partID="939680">
   <line stroke-width="2.304" stroke-linecap="round" y1="95.0746" stroke="black" x1="45.7301" y2="95.0949" x2="54.4538"/>
  </g>
  <g partID="529610">
   <line stroke-width="2.304" stroke-linecap="round" y1="11.5747" stroke="black" x1="63.2018" y2="11.4957" x2="34.1249"/>
  </g>
  <g partID="940720">
   <line stroke-width="2.304" stroke-linecap="round" y1="11.4957" stroke="black" x1="34.1249" y2="33.5527" x2="16.3599"/>
  </g>
  <g partID="800450">
   <line stroke-width="2.304" stroke-linecap="round" y1="93.7604" stroke="black" x1="77.7085" y2="76.2053" x2="81.4701"/>
  </g>
  <g partID="938060">
   <path stroke-width="2.304" d="M251.662,121.018C251.662,121.018, 251.662,109.498 251.662,109.498" stroke-linecap="round" fill="none" stroke="black"/>
  </g>
  <g partID="937890">
   <line stroke-width="2.304" stroke-linecap="round" y1="119.459" stroke="black" x1="230.062" y2="110.758" x2="230.062"/>
  </g>
  <g partID="887900">
   <line stroke-width="2.304" stroke-linecap="round" y1="131.89" stroke="black" x1="114.502" y2="128.866" x2="119.541"/>
  </g>
  <g partID="798200">
   <line stroke-width="2.304" stroke-linecap="round" y1="93.7604" stroke="black" x1="99.3085" y2="76.2053" x2="103.07"/>
  </g>
  <g partID="886720">
   <line stroke-width="2.304" stroke-linecap="round" y1="96.4661" stroke="black" x1="55.8218" y2="102.478" x2="55.8218"/>
  </g>
  <g partID="888020">
   <line stroke-width="2.304" stroke-linecap="round" y1="131.89" stroke="black" x1="85.7023" y2="128.866" x2="90.7414"/>
  </g>
  <g partID="796900">
   <line stroke-width="2.304" stroke-linecap="round" y1="93.7604" stroke="black" x1="113.708" y2="76.2053" x2="117.47"/>
  </g>
  <g partID="937970">
   <line stroke-width="2.304" stroke-linecap="round" y1="119.459" stroke="black" x1="244.464" y2="76.4629" x2="244.521"/>
  </g>
  <g partID="938100">
   <line stroke-width="2.304" stroke-linecap="round" y1="76.4629" stroke="black" x1="244.521" y2="72.0815" x2="255.973"/>
  </g>
  <g partID="939970">
   <line stroke-width="2.304" stroke-linecap="round" y1="72.0815" stroke="black" x1="255.973" y2="34.6282" x2="255.939"/>
  </g>
  <g partID="938010">
   <line stroke-width="2.304" stroke-linecap="round" y1="34.6282" stroke="black" x1="255.939" y2="34.6189" x2="241.402"/>
  </g>
  <g partID="414330">
   <line stroke-width="2.304" stroke-linecap="round" y1="79.4625" stroke="black" x1="201.509" y2="67.5336" x2="203.895"/>
  </g>
  <g partID="412840">
   <line stroke-width="2.304" stroke-linecap="round" y1="53.3708" stroke="black" x1="196.971" y2="53.3708" x2="188.265"/>
  </g>
  <g partID="940910">
   <line stroke-width="2.304" stroke-linecap="round" y1="53.3708" stroke="black" x1="188.264" y2="61.9102" x2="178.218"/>
  </g>
  <g partID="447770">
   <line stroke-width="2.304" stroke-linecap="round" y1="53.4817" stroke="black" x1="240.138" y2="53.3708" x2="196.971"/>
  </g>
  <g partID="940960">
   <line stroke-width="2.304" stroke-linecap="round" y1="61.9102" stroke="black" x1="178.218" y2="61.9102" x2="136.526"/>
  </g>
  <g partID="447690">
   <line stroke-width="2.304" stroke-linecap="round" y1="53.3708" stroke="black" x1="196.971" y2="45.9581" x2="196.946"/>
  </g>
  <g partID="447700">
   <line stroke-width="2.304" stroke-linecap="round" y1="45.9581" stroke="black" x1="240.141" y2="53.4817" x2="240.138"/>
  </g>
  <g partID="940830">
   <line stroke-width="2.304" stroke-linecap="round" y1="61.9102" stroke="black" x1="136.526" y2="73.7098" x2="132.555"/>
  </g>
  <g partID="414390">
   <line stroke-width="2.304" stroke-linecap="round" y1="79.4625" stroke="black" x1="215.909" y2="67.5336" x2="218.295"/>
  </g>
  <g partID="429560">
   <line stroke-width="2.304" stroke-linecap="round" y1="43.4445" stroke="black" x1="225.869" y2="15.9414" x2="228.66"/>
  </g>
  <g partID="429600">
   <line stroke-width="2.304" stroke-linecap="round" y1="15.9414" stroke="black" x1="228.66" y2="15.9443" x2="120.658"/>
  </g>
  <g partID="429750">
   <line stroke-width="2.304" stroke-linecap="round" y1="15.9443" stroke="black" x1="120.658" y2="30.4636" x2="117.977"/>
  </g>
  <g partID="887370">
   <line stroke-width="2.304" stroke-linecap="round" y1="96.4661" stroke="black" x1="91.8218" y2="105.358" x2="91.8218"/>
  </g>
  <g partID="429700">
   <line stroke-width="2.304" stroke-linecap="round" y1="11.5449" stroke="black" x1="114.875" y2="30.4709" x2="110.814"/>
  </g>
  <g partID="437330">
   <line stroke-width="2.304" stroke-linecap="round" y1="11.6647" stroke="black" x1="235.788" y2="11.5449" x2="114.875"/>
  </g>
  <g partID="429800">
   <line stroke-width="2.304" stroke-linecap="round" y1="43.4427" stroke="black" x1="233.05" y2="11.6647" x2="235.788"/>
  </g>
  <g partID="937510">
   <line stroke-width="2.304" stroke-linecap="round" y1="119.459" stroke="black" x1="194.062" y2="104.998" x2="194.062"/>
  </g>
  <g partID="777290">
   <line stroke-width="2.304" stroke-linecap="round" y1="32.7226" stroke="black" x1="66.4988" y2="41.7618" x2="58.7602"/>
  </g>
  <g partID="777360">
   <line stroke-width="2.304" stroke-linecap="round" y1="41.7618" stroke="black" x1="58.7602" y2="76.3502" x2="44.3978"/>
  </g>
  <g partID="785330">
   <line stroke-width="2.304" stroke-linecap="round" y1="76.3502" stroke="black" x1="44.3979" y2="80.6973" x2="48.621"/>
  </g>
  <g partID="939740">
   <line stroke-width="2.304" stroke-linecap="round" y1="80.6973" stroke="black" x1="48.621" y2="83.5772" x2="70.2207"/>
  </g>
  <g partID="939710">
   <line stroke-width="2.304" stroke-linecap="round" y1="83.5772" stroke="black" x1="70.2207" y2="93.7301" x2="70.2217"/>
  </g>
  <g partID="414310">
   <line stroke-width="2.304" stroke-linecap="round" y1="73.7427" stroke="black" x1="194.46" y2="67.4934" x2="196.543"/>
  </g>
  <g partID="627890">
   <line stroke-width="3.456" stroke-linecap="round" y1="102.37" stroke="black" x1="146.542" y2="76.2341" x2="146.542"/>
  </g>
  <g partID="436030">
   <line stroke-width="2.304" stroke-linecap="round" y1="32.8932" stroke="black" x1="125.529" y2="37.4669" x2="127.856"/>
  </g>
  <g partID="436830">
   <line stroke-width="2.304" stroke-linecap="round" y1="37.4669" stroke="black" x1="127.856" y2="37.4621" x2="170.964"/>
  </g>
  <g partID="436940">
   <line stroke-width="2.304" stroke-linecap="round" y1="37.4622" stroke="black" x1="170.964" y2="25.9204" x2="192.665"/>
  </g>
  <g partID="529540">
   <line stroke-width="2.304" stroke-linecap="round" y1="25.9204" stroke="black" x1="192.664" y2="25.9204" x2="214.227"/>
  </g>
  <g partID="436720">
   <line stroke-width="2.304" stroke-linecap="round" y1="25.9204" stroke="black" x1="214.227" y2="43.4527" x2="211.533"/>
  </g>
  <g partID="414470">
   <line stroke-width="2.304" stroke-linecap="round" y1="73.7427" stroke="black" x1="237.66" y2="67.4934" x2="239.743"/>
  </g>
  <g partID="796310">
   <line stroke-width="2.304" stroke-linecap="round" y1="93.7604" stroke="black" x1="120.908" y2="76.2053" x2="124.67"/>
  </g>
  <g partID="887990">
   <path stroke-width="1.728" d="M91.8218,128.218C91.8218,128.218, 99.0218,132.538 99.0218,132.538" stroke-linecap="round" fill="none" stroke="black"/>
  </g>
  <g partID="938440">
   <line stroke-width="3.456" stroke-linecap="round" y1="105.106" stroke="black" x1="146.548" y2="121.092" x2="146.615"/>
  </g>
  <g partID="940480">
   <line stroke-width="3.456" stroke-linecap="round" y1="121.092" stroke="black" x1="146.615" y2="121.021" x2="185.303"/>
  </g>
  <g partID="887680">
   <line stroke-width="2.304" stroke-linecap="round" y1="96.4661" stroke="black" x1="113.422" y2="102.478" x2="113.422"/>
  </g>
  <g partID="777220">
   <line stroke-width="2.304" stroke-linecap="round" y1="32.7313" stroke="black" x1="59.3091" y2="40.3376" x2="52.9338"/>
  </g>
  <g partID="777430">
   <line stroke-width="2.304" stroke-linecap="round" y1="40.3376" stroke="black" x1="52.9338" y2="80.6102" x2="37.0137"/>
  </g>
  <g partID="787820">
   <line stroke-width="2.304" stroke-linecap="round" y1="80.6102" stroke="black" x1="37.0139" y2="86.4573" x2="44.301"/>
  </g>
  <g partID="939800">
   <line stroke-width="2.304" stroke-linecap="round" y1="86.4573" stroke="black" x1="44.301" y2="87.8973" x2="63.0207"/>
  </g>
  <g partID="939770">
   <line stroke-width="2.304" stroke-linecap="round" y1="87.8973" stroke="black" x1="63.0207" y2="93.7301" x2="63.0216"/>
  </g>
  <g partID="886920">
   <line stroke-width="2.304" stroke-linecap="round" y1="96.4661" stroke="black" x1="70.2218" y2="102.478" x2="70.2218"/>
  </g>
  <g partID="889490">
   <line stroke-width="3.456" stroke-linecap="round" y1="132.488" stroke="black" x1="42.8273" y2="132.533" x2="54.5618"/>
  </g>
  <g partID="889240">
   <line stroke-width="3.456" stroke-linecap="round" y1="132.488" stroke="black" x1="42.8273" y2="89.3954" x2="11.3254"/>
  </g>
  <g partID="940060">
   <line stroke-width="3.456" stroke-linecap="round" y1="89.3954" stroke="black" x1="11.3254" y2="74.9604" x2="15.4936"/>
  </g>
  <g partID="889110">
   <line stroke-width="3.456" stroke-linecap="round" y1="74.9604" stroke="black" x1="15.4936" y2="36.131" x2="34.2922"/>
  </g>
  <g partID="888980">
   <line stroke-width="3.456" stroke-linecap="round" y1="36.131" stroke="black" x1="34.2922" y2="23.0337" x2="42.921"/>
  </g>
  <g partID="889680">
   <line stroke-width="3.456" stroke-linecap="round" y1="23.0337" stroke="black" x1="42.921" y2="23.1109" x2="71.6956"/>
  </g>
  <g partID="888840">
   <line stroke-width="3.456" stroke-linecap="round" y1="23.1109" stroke="black" x1="71.6956" y2="30.5073" x2="74.1356"/>
  </g>
  <g partID="447640">
   <line stroke-width="2.304" stroke-linecap="round" y1="43.4463" stroke="black" x1="218.686" y2="20.2181" x2="221.355"/>
  </g>
  <g partID="447870">
   <line stroke-width="2.304" stroke-linecap="round" y1="20.2181" stroke="black" x1="221.355" y2="20.2181" x2="133.605"/>
  </g>
  <g partID="447840">
   <line stroke-width="2.304" stroke-linecap="round" y1="20.2181" stroke="black" x1="133.605" y2="30.4524" x2="132.305"/>
  </g>
  <g partID="887790">
   <line stroke-width="2.304" stroke-linecap="round" y1="96.4661" stroke="black" x1="120.622" y2="105.358" x2="120.622"/>
  </g>
  <g partID="887610">
   <line stroke-width="2.304" stroke-linecap="round" y1="96.4661" stroke="black" x1="106.222" y2="105.358" x2="106.222"/>
  </g>
  <g partID="798910">
   <line stroke-width="2.304" stroke-linecap="round" y1="93.7604" stroke="black" x1="92.1085" y2="76.2053" x2="95.8702"/>
  </g>
  <g partID="887540">
   <line stroke-width="2.304" stroke-linecap="round" y1="96.4661" stroke="black" x1="99.0218" y2="102.478" x2="99.0218"/>
  </g>
  <g partID="429290">
   <line stroke-width="2.304" stroke-linecap="round" y1="43.4381" stroke="black" x1="204.142" y2="35.8781" x2="204.142"/>
  </g>
  <g partID="888050">
   <line stroke-width="2.304" stroke-linecap="round" y1="128.866" stroke="black" x1="78.5023" y2="131.89" x2="83.5414"/>
  </g>
 </g>
</svg>
