<?xml version='1.0' encoding='UTF-8' standalone='no'?>
<!-- Created with Fritzing (http://www.fritzing.org/) -->
<svg xmlns="http://www.w3.org/2000/svg" y="0in" viewBox="0 0 283.465 141.732" xmlns:svg="http://www.w3.org/2000/svg"  baseProfile="tiny" x="0in" height="1.9685in" version="1.2" width="3.93701in">
 <g transform="matrix(-1, 0, 0, 1, 283.465, 0)">
  <g partID="313442">
   <g id="silkscreen0">
    <rect y="0.288" x="0.288" height="141.156" stroke-width="0.576" fill="none" stroke="black" width="282.889"/>
   </g>
  </g>
  <g partID="313440">
   <g id="board">
    <rect y="0.288" id="boardoutline" fill-opacity="0.5" x="0.288" height="141.156" stroke-width="0.5" fill="none" stroke="black" width="282.889"/>
   </g>
  </g>
  <g partID="313442">
   <g id="silkscreen0">
    <rect y="0.288" x="0.288" height="141.156" stroke-width="0.576" fill="none" stroke="black" width="282.889"/>
   </g>
  </g>
  <g partID="931540">
   <g transform="translate(84.5074,51.7834)">
    <g id="copper0">
     <circle id="nonconn0" r="2.83465" cx="4.43465" stroke-width="0.72" cy="4.43465" fill="white" stroke="white"/>
    </g>
   </g>
  </g>
  <g partID="859370">
   <g transform="translate(40.2387,36.4442)">
    <g transform="matrix(0.911029,0.412342,-0.412342,0.911029,0,0)">
     <g id="copper0">
      <g id="copper1">
       <!-- <rect width="55" x="10" y="15.5" fill="none" height="55" stroke="rgb(255, 191, 0)" stroke-width="20" />  -->
       <circle id="connector0pin" r="1.98" cx="2.7" stroke-width="2.16" cy="3.096" fill="white" stroke="white"/>
       <circle id="connector1pin" r="1.98" cx="31.5" stroke-width="2.16" cy="3.096" fill="white" stroke="white"/>
      </g>
     </g>
    </g>
   </g>
  </g>
  <g partID="940380">
   <g transform="translate(164.542,97.2581)">
    <g transform="matrix(0,1,-1,0,0,0)">
     <g id="copper0">
      <circle id="connector0pin" r="2.088" cx="5.04" stroke-width="2.16" cy="5.04" fill="white" stroke="white"/>
      <circle id="connector1pin" r="2.088" cx="5.04" stroke-width="2.16" cy="12.24" fill="white" stroke="white"/>
     </g>
    </g>
   </g>
  </g>
  <g partID="426140">
   <g transform="translate(7.94904,115.625)">
    <g id="copper0">
     <circle id="nonconn0" r="5.95276" cx="7.55273" stroke-width="0.72" cy="7.55273" fill="white" stroke="white"/>
    </g>
   </g>
  </g>
  <g partID="426130">
   <g transform="translate(263.549,115.625)">
    <g id="copper0">
     <circle id="nonconn0" r="5.95276" cx="7.55273" stroke-width="0.72" cy="7.55273" fill="white" stroke="white"/>
    </g>
   </g>
  </g>
  <g partID="426110">
   <g transform="translate(7.94904,5.46532)">
    <g id="copper0">
     <circle id="nonconn0" r="5.95276" cx="7.55273" stroke-width="0.72" cy="7.55273" fill="white" stroke="white"/>
    </g>
   </g>
  </g>
  <g partID="426080">
   <g transform="translate(263.549,5.46531)">
    <g id="copper0">
     <circle id="nonconn0" r="5.95276" cx="7.55273" stroke-width="0.72" cy="7.55273" fill="white" stroke="white"/>
    </g>
   </g>
  </g>
  <g partID="940340">
   <g transform="translate(50.7818,100.138)">
    <g transform="matrix(0,-1,1,0,0,0)">
     <g id="copper0">
      <circle id="connector0pin" r="2.088" cx="5.04" stroke-width="2.16" cy="5.04" fill="white" stroke="white"/>
      <circle id="connector1pin" r="2.088" cx="5.04" stroke-width="2.16" cy="12.24" fill="white" stroke="white"/>
      <circle id="connector2pin" r="2.088" cx="5.04" stroke-width="2.16" cy="19.44" fill="white" stroke="white"/>
      <circle id="connector3pin" r="2.088" cx="5.04" stroke-width="2.16" cy="26.64" fill="white" stroke="white"/>
      <circle id="connector4pin" r="2.088" cx="5.04" stroke-width="2.16" cy="33.84" fill="white" stroke="white"/>
      <circle id="connector5pin" r="2.088" cx="5.04" stroke-width="2.16" cy="41.04" fill="white" stroke="white"/>
      <circle id="connector6pin" r="2.088" cx="5.04" stroke-width="2.16" cy="48.24" fill="white" stroke="white"/>
      <circle id="connector7pin" r="2.088" cx="5.04" stroke-width="2.16" cy="55.44" fill="white" stroke="white"/>
      <circle id="connector8pin" r="2.088" cx="5.04" stroke-width="2.16" cy="62.64" fill="white" stroke="white"/>
      <circle id="connector9pin" r="2.088" cx="5.04" stroke-width="2.16" cy="69.84" fill="white" stroke="white"/>
     </g>
    </g>
   </g>
  </g>
  <g partID="940420">
   <g transform="translate(173.182,52.6181)">
    <g id="copper0">
     <circle id="connector0pin" r="2.088" cx="5.04" stroke-width="2.16" cy="5.04" fill="white" stroke="white"/>
     <circle id="connector1pin" r="2.088" cx="5.04" stroke-width="2.16" cy="12.24" fill="white" stroke="white"/>
    </g>
   </g>
  </g>
  <g partID="324610">
   <g transform="translate(254.758,77.9981)">
    <g transform="matrix(2.22045e-16,1,-1,2.22045e-16,0,0)">
     <g id="copper0">
      <g id="copper1">
       <!-- <rect width="55" x="10" y="15.5" fill="none" height="55" stroke="rgb(255, 191, 0)" stroke-width="20" />  -->
       <circle id="connector0pin" r="1.98" cx="2.7" stroke-width="2.16" cy="3.096" fill="white" stroke="white"/>
       <circle id="connector1pin" r="1.98" cx="31.5" stroke-width="2.16" cy="3.096" fill="white" stroke="white"/>
      </g>
     </g>
    </g>
   </g>
  </g>
  <g partID="940400">
   <g transform="translate(151.582,90.0581)">
    <g transform="matrix(0,-1,1,0,0,0)">
     <g id="copper0">
      <circle id="connector0pin" r="2.088" cx="5.04" stroke-width="2.16" cy="5.04" fill="white" stroke="white"/>
      <circle id="connector1pin" r="2.088" cx="5.04" stroke-width="2.16" cy="12.24" fill="white" stroke="white"/>
     </g>
    </g>
   </g>
  </g>
  <g partID="885350">
   <g transform="translate(117.922,130.918)">
    <g transform="matrix(-2.22045e-16,-1,1,-2.22045e-16,0,0)">
     <g id="copper0">
      <g id="copper1">
       <!-- <rect width="55" x="10" y="10" fill="none" height="55" stroke="rgb(255, 191, 0)" stroke-width="20" /> -->
       <circle id="connector0pin" r="1.98" cx="2.7" stroke-width="2.16" cy="2.7" fill="white" stroke="white"/>
       <circle id="connector1pin" r="1.98" cx="24.3" stroke-width="2.16" cy="2.7" fill="white" stroke="white"/>
      </g>
     </g>
    </g>
   </g>
  </g>
  <g partID="885330">
   <g transform="translate(110.326,135.238)">
    <g transform="matrix(-2.22045e-16,-1,1,-2.22045e-16,0,0)">
     <g id="copper0">
      <g id="copper1">
       <!-- <rect width="55" x="10" y="15.5" fill="none" height="55" stroke="rgb(255, 191, 0)" stroke-width="20" />  -->
       <circle id="connector0pin" r="1.98" cx="2.7" stroke-width="2.16" cy="3.096" fill="white" stroke="white"/>
       <circle id="connector1pin" r="1.98" cx="31.5" stroke-width="2.16" cy="3.096" fill="white" stroke="white"/>
      </g>
     </g>
    </g>
   </g>
  </g>
  <g partID="885310">
   <g transform="translate(103.522,130.918)">
    <g transform="matrix(-2.22045e-16,-1,1,-2.22045e-16,0,0)">
     <g id="copper0">
      <g id="copper1">
       <!-- <rect width="55" x="10" y="10" fill="none" height="55" stroke="rgb(255, 191, 0)" stroke-width="20" /> -->
       <circle id="connector0pin" r="1.98" cx="2.7" stroke-width="2.16" cy="2.7" fill="white" stroke="white"/>
       <circle id="connector1pin" r="1.98" cx="24.3" stroke-width="2.16" cy="2.7" fill="white" stroke="white"/>
      </g>
     </g>
    </g>
   </g>
  </g>
  <g partID="885290">
   <g transform="translate(95.9258,135.238)">
    <g transform="matrix(-2.22045e-16,-1,1,-2.22045e-16,0,0)">
     <g id="copper0">
      <g id="copper1">
       <!-- <rect width="55" x="10" y="15.5" fill="none" height="55" stroke="rgb(255, 191, 0)" stroke-width="20" />  -->
       <circle id="connector0pin" r="1.98" cx="2.7" stroke-width="2.16" cy="3.096" fill="white" stroke="white"/>
       <circle id="connector1pin" r="1.98" cx="31.5" stroke-width="2.16" cy="3.096" fill="white" stroke="white"/>
      </g>
     </g>
    </g>
   </g>
  </g>
  <g partID="885270">
   <g transform="translate(89.1218,130.918)">
    <g transform="matrix(-2.22045e-16,-1,1,-2.22045e-16,0,0)">
     <g id="copper0">
      <g id="copper1">
       <!-- <rect width="55" x="10" y="10" fill="none" height="55" stroke="rgb(255, 191, 0)" stroke-width="20" /> -->
       <circle id="connector0pin" r="1.98" cx="2.7" stroke-width="2.16" cy="2.7" fill="white" stroke="white"/>
       <circle id="connector1pin" r="1.98" cx="24.3" stroke-width="2.16" cy="2.7" fill="white" stroke="white"/>
      </g>
     </g>
    </g>
   </g>
  </g>
  <g partID="885250">
   <g transform="translate(81.5258,135.238)">
    <g transform="matrix(-2.22045e-16,-1,1,-2.22045e-16,0,0)">
     <g id="copper0">
      <g id="copper1">
       <!-- <rect width="55" x="10" y="15.5" fill="none" height="55" stroke="rgb(255, 191, 0)" stroke-width="20" />  -->
       <circle id="connector0pin" r="1.98" cx="2.7" stroke-width="2.16" cy="3.096" fill="white" stroke="white"/>
       <circle id="connector1pin" r="1.98" cx="31.5" stroke-width="2.16" cy="3.096" fill="white" stroke="white"/>
      </g>
     </g>
    </g>
   </g>
  </g>
  <g partID="885230">
   <g transform="translate(74.7218,130.918)">
    <g transform="matrix(-2.22045e-16,-1,1,-2.22045e-16,0,0)">
     <g id="copper0">
      <g id="copper1">
       <!-- <rect width="55" x="10" y="10" fill="none" height="55" stroke="rgb(255, 191, 0)" stroke-width="20" /> -->
       <circle id="connector0pin" r="1.98" cx="2.7" stroke-width="2.16" cy="2.7" fill="white" stroke="white"/>
       <circle id="connector1pin" r="1.98" cx="24.3" stroke-width="2.16" cy="2.7" fill="white" stroke="white"/>
      </g>
     </g>
    </g>
   </g>
  </g>
  <g partID="885210">
   <g transform="translate(67.1258,135.238)">
    <g transform="matrix(-2.22045e-16,-1,1,-2.22045e-16,0,0)">
     <g id="copper0">
      <g id="copper1">
       <!-- <rect width="55" x="10" y="15.5" fill="none" height="55" stroke="rgb(255, 191, 0)" stroke-width="20" />  -->
       <circle id="connector0pin" r="1.98" cx="2.7" stroke-width="2.16" cy="3.096" fill="white" stroke="white"/>
       <circle id="connector1pin" r="1.98" cx="31.5" stroke-width="2.16" cy="3.096" fill="white" stroke="white"/>
      </g>
     </g>
    </g>
   </g>
  </g>
  <g partID="881460">
   <g transform="translate(60.3218,130.918)">
    <g transform="matrix(-2.22045e-16,-1,1,-2.22045e-16,0,0)">
     <g id="copper0">
      <g id="copper1">
       <!-- <rect width="55" x="10" y="10" fill="none" height="55" stroke="rgb(255, 191, 0)" stroke-width="20" /> -->
       <circle id="connector0pin" r="1.98" cx="2.7" stroke-width="2.16" cy="2.7" fill="white" stroke="white"/>
       <circle id="connector1pin" r="1.98" cx="24.3" stroke-width="2.16" cy="2.7" fill="white" stroke="white"/>
      </g>
     </g>
    </g>
   </g>
  </g>
  <g partID="879330">
   <g transform="translate(52.7258,135.238)">
    <g transform="matrix(-2.22045e-16,-1,1,-2.22045e-16,0,0)">
     <g id="copper0">
      <g id="copper1">
       <!-- <rect width="55" x="10" y="15.5" fill="none" height="55" stroke="rgb(255, 191, 0)" stroke-width="20" />  -->
       <circle id="connector0pin" r="1.98" cx="2.7" stroke-width="2.16" cy="3.096" fill="white" stroke="white"/>
       <circle id="connector1pin" r="1.98" cx="31.5" stroke-width="2.16" cy="3.096" fill="white" stroke="white"/>
      </g>
     </g>
    </g>
   </g>
  </g>
  <g partID="307920">
   <g transform="translate(121.742,45.3063)">
    <g transform="matrix(0.962591,0.270958,-0.270958,0.962591,0,0)">
     <g id="copper0">
      <g id="copper1">
       <!-- <rect width="55" x="10" y="15.5" fill="none" height="55" stroke="rgb(255, 191, 0)" stroke-width="20" />  -->
       <circle id="connector0pin" r="1.98" cx="2.7" stroke-width="2.16" cy="3.096" fill="white" stroke="white"/>
       <circle id="connector1pin" r="1.98" cx="31.5" stroke-width="2.16" cy="3.096" fill="white" stroke="white"/>
      </g>
     </g>
    </g>
   </g>
  </g>
  <g partID="307900">
   <g transform="translate(201.442,30.9461)">
    <g transform="matrix(1,-1.11022e-16,1.11022e-16,1,0,0)">
     <g id="copper0">
      <g id="copper1">
       <!-- <rect width="55" x="10" y="23.5" fill="none" height="55" stroke="rgb(255, 191, 0)" stroke-width="20" /> -->
       <circle id="connector0pin" r="1.98" cx="2.7" stroke-width="2.16" cy="3.672" fill="white" stroke="white"/>
       <circle id="connector1pin" r="1.98" cx="38.7" stroke-width="2.16" cy="3.672" fill="white" stroke="white"/>
      </g>
     </g>
    </g>
   </g>
  </g>
  <g partID="307880">
   <g transform="translate(240.358,72.2381)">
    <g transform="matrix(0,1,-1,0,0,0)">
     <g id="copper0">
      <g id="copper1">
       <!-- <rect width="55" x="10" y="15.5" fill="none" height="55" stroke="rgb(255, 191, 0)" stroke-width="20" />  -->
       <circle id="connector0pin" r="1.98" cx="2.7" stroke-width="2.16" cy="3.096" fill="white" stroke="white"/>
       <circle id="connector1pin" r="1.98" cx="31.5" stroke-width="2.16" cy="3.096" fill="white" stroke="white"/>
      </g>
     </g>
    </g>
   </g>
  </g>
  <g partID="307860">
   <g transform="translate(233.158,77.9981)">
    <g transform="matrix(0,1,-1,0,0,0)">
     <g id="copper0">
      <g id="copper1">
       <!-- <rect width="55" x="10" y="15.5" fill="none" height="55" stroke="rgb(255, 191, 0)" stroke-width="20" />  -->
       <circle id="connector0pin" r="1.98" cx="2.7" stroke-width="2.16" cy="3.096" fill="white" stroke="white"/>
       <circle id="connector1pin" r="1.98" cx="31.5" stroke-width="2.16" cy="3.096" fill="white" stroke="white"/>
      </g>
     </g>
    </g>
   </g>
  </g>
  <g partID="307840">
   <g transform="translate(225.958,72.2381)">
    <g transform="matrix(0,1,-1,0,0,0)">
     <g id="copper0">
      <g id="copper1">
       <!-- <rect width="55" x="10" y="15.5" fill="none" height="55" stroke="rgb(255, 191, 0)" stroke-width="20" />  -->
       <circle id="connector0pin" r="1.98" cx="2.7" stroke-width="2.16" cy="3.096" fill="white" stroke="white"/>
       <circle id="connector1pin" r="1.98" cx="31.5" stroke-width="2.16" cy="3.096" fill="white" stroke="white"/>
      </g>
     </g>
    </g>
   </g>
  </g>
  <g partID="307820">
   <g transform="translate(218.758,77.9981)">
    <g transform="matrix(0,1,-1,0,0,0)">
     <g id="copper0">
      <g id="copper1">
       <!-- <rect width="55" x="10" y="15.5" fill="none" height="55" stroke="rgb(255, 191, 0)" stroke-width="20" />  -->
       <circle id="connector0pin" r="1.98" cx="2.7" stroke-width="2.16" cy="3.096" fill="white" stroke="white"/>
       <circle id="connector1pin" r="1.98" cx="31.5" stroke-width="2.16" cy="3.096" fill="white" stroke="white"/>
      </g>
     </g>
    </g>
   </g>
  </g>
  <g partID="307800">
   <g transform="translate(211.558,72.2381)">
    <g transform="matrix(0,1,-1,0,0,0)">
     <g id="copper0">
      <g id="copper1">
       <!-- <rect width="55" x="10" y="15.5" fill="none" height="55" stroke="rgb(255, 191, 0)" stroke-width="20" />  -->
       <circle id="connector0pin" r="1.98" cx="2.7" stroke-width="2.16" cy="3.096" fill="white" stroke="white"/>
       <circle id="connector1pin" r="1.98" cx="31.5" stroke-width="2.16" cy="3.096" fill="white" stroke="white"/>
      </g>
     </g>
    </g>
   </g>
  </g>
  <g partID="307780">
   <g transform="translate(204.358,77.9981)">
    <g transform="matrix(0,1,-1,0,0,0)">
     <g id="copper0">
      <g id="copper1">
       <!-- <rect width="55" x="10" y="15.5" fill="none" height="55" stroke="rgb(255, 191, 0)" stroke-width="20" />  -->
       <circle id="connector0pin" r="1.98" cx="2.7" stroke-width="2.16" cy="3.096" fill="white" stroke="white"/>
       <circle id="connector1pin" r="1.98" cx="31.5" stroke-width="2.16" cy="3.096" fill="white" stroke="white"/>
      </g>
     </g>
    </g>
   </g>
  </g>
  <g partID="307720">
   <g transform="translate(197.158,72.2381)">
    <g transform="matrix(0,1,-1,0,0,0)">
     <g id="copper0">
      <g id="copper1">
       <!-- <rect width="55" x="10" y="15.5" fill="none" height="55" stroke="rgb(255, 191, 0)" stroke-width="20" />  -->
       <circle id="connector0pin" r="1.98" cx="2.7" stroke-width="2.16" cy="3.096" fill="white" stroke="white"/>
       <circle id="connector1pin" r="1.98" cx="31.5" stroke-width="2.16" cy="3.096" fill="white" stroke="white"/>
      </g>
     </g>
    </g>
   </g>
  </g>
  <g partID="940360">
   <g transform="translate(256.702,115.978)">
    <g transform="matrix(0,1,-1,0,0,0)">
     <g id="copper0">
      <circle id="connector0pin" r="2.27905" cx="5.04" stroke-width="2.16" cy="5.04" fill="white" stroke="white"/>
      <circle id="connector1pin" r="2.27905" cx="5.04" stroke-width="2.16" cy="12.24" fill="white" stroke="white"/>
      <circle id="connector2pin" r="2.27905" cx="5.04" stroke-width="2.16" cy="19.44" fill="white" stroke="white"/>
      <circle id="connector3pin" r="2.27905" cx="5.04" stroke-width="2.16" cy="26.64" fill="white" stroke="white"/>
      <circle id="connector4pin" r="2.27905" cx="5.04" stroke-width="2.16" cy="33.84" fill="white" stroke="white"/>
      <circle id="connector5pin" r="2.27905" cx="5.04" stroke-width="2.16" cy="41.04" fill="white" stroke="white"/>
      <circle id="connector6pin" r="2.27905" cx="5.04" stroke-width="2.16" cy="48.24" fill="white" stroke="white"/>
      <circle id="connector7pin" r="2.27905" cx="5.04" stroke-width="2.16" cy="55.44" fill="white" stroke="white"/>
      <circle id="connector8pin" r="2.27905" cx="5.04" stroke-width="2.16" cy="62.64" fill="white" stroke="white"/>
      <circle id="connector9pin" r="2.27905" cx="5.04" stroke-width="2.16" cy="69.84" fill="white" stroke="white"/>
     </g>
    </g>
   </g>
  </g>
  <g partID="307560">
   <g transform="translate(192.622,70.6181)">
    <g transform="matrix(0,-1,1,0,0,0)">
     <g id="copper0">
      <rect y="2.34" id="square" x="2.34" height="3.96" stroke-width="2.16" fill="white" stroke="white" width="3.96"/>
      <circle id="connector0pin" r="1.98" cx="4.32" stroke-width="2.16" cy="4.32" fill="white" stroke="white"/>
      <circle id="connector15pin" r="1.98" cx="25.92" stroke-width="2.16" cy="4.32" fill="white" stroke="white"/>
      <circle id="connector1pin" r="1.98" cx="4.32" stroke-width="2.16" cy="11.52" fill="white" stroke="white"/>
      <circle id="connector14pin" r="1.98" cx="25.92" stroke-width="2.16" cy="11.52" fill="white" stroke="white"/>
      <circle id="connector2pin" r="1.98" cx="4.32" stroke-width="2.16" cy="18.72" fill="white" stroke="white"/>
      <circle id="connector13pin" r="1.98" cx="25.92" stroke-width="2.16" cy="18.72" fill="white" stroke="white"/>
      <circle id="connector3pin" r="1.98" cx="4.32" stroke-width="2.16" cy="25.92" fill="white" stroke="white"/>
      <circle id="connector12pin" r="1.98" cx="25.92" stroke-width="2.16" cy="25.92" fill="white" stroke="white"/>
      <circle id="connector4pin" r="1.98" cx="4.32" stroke-width="2.16" cy="33.12" fill="white" stroke="white"/>
      <circle id="connector11pin" r="1.98" cx="25.92" stroke-width="2.16" cy="33.12" fill="white" stroke="white"/>
      <circle id="connector5pin" r="1.98" cx="4.32" stroke-width="2.16" cy="40.32" fill="white" stroke="white"/>
      <circle id="connector10pin" r="1.98" cx="25.92" stroke-width="2.16" cy="40.32" fill="white" stroke="white"/>
      <circle id="connector6pin" r="1.98" cx="4.32" stroke-width="2.16" cy="47.52" fill="white" stroke="white"/>
      <circle id="connector9pin" r="1.98" cx="25.92" stroke-width="2.16" cy="47.52" fill="white" stroke="white"/>
      <circle id="connector7pin" r="1.98" cx="4.32" stroke-width="2.16" cy="54.72" fill="white" stroke="white"/>
      <circle id="connector8pin" r="1.98" cx="25.92" stroke-width="2.16" cy="54.72" fill="white" stroke="white"/>
     </g>
    </g>
   </g>
  </g>
  <g partID="419260">
   <g transform="translate(164.542,28.1381)">
    <g transform="matrix(0,1,-1,0,0,0)">
     <g id="copper0">
      <circle id="connector16pad" r="1.908" cx="3.6" stroke-width="1.944" cy="10.8" fill="white" stroke="white"/>
      <rect y="8.892" x="1.692" height="3.816" stroke-width="1.944" fill="white" stroke="white" width="3.814"/>
      <circle id="connector17pad" r="1.908" cx="3.6" stroke-width="1.944" cy="18" fill="white" stroke="white"/>
      <circle id="connector18pad" r="1.908" cx="3.6" stroke-width="1.944" cy="25.2" fill="white" stroke="white"/>
      <circle id="connector19pad" r="1.908" cx="3.6" stroke-width="1.944" cy="32.4" fill="white" stroke="white"/>
      <circle id="connector20pad" r="1.908" cx="3.6" stroke-width="1.944" cy="39.6" fill="white" stroke="white"/>
      <circle id="connector21pad" r="1.908" cx="3.6" stroke-width="1.944" cy="46.8" fill="white" stroke="white"/>
      <circle id="connector22pad" r="1.908" cx="3.6" stroke-width="1.944" cy="54" fill="white" stroke="white"/>
      <circle id="connector23pad" r="1.908" cx="3.6" stroke-width="1.944" cy="61.2" fill="white" stroke="white"/>
      <circle id="connector24pad" r="1.908" cx="3.6" stroke-width="1.944" cy="68.4" fill="white" stroke="white"/>
      <circle id="connector25pad" r="1.908" cx="3.6" stroke-width="1.944" cy="75.6" fill="white" stroke="white"/>
      <circle id="connector26pad" r="1.908" cx="3.6" stroke-width="1.944" cy="82.8" fill="white" stroke="white"/>
      <circle id="connector27pad" r="1.908" cx="3.6" stroke-width="1.944" cy="90" fill="white" stroke="white"/>
      <circle id="connector28pad" r="1.908" cx="3.6" stroke-width="1.944" cy="97.2" fill="white" stroke="white"/>
      <circle id="connector29pad" r="1.908" cx="3.6" stroke-width="1.944" cy="104.4" fill="white" stroke="white"/>
      <circle id="connector30pad" r="1.908" cx="3.6" stroke-width="1.944" cy="111.6" fill="white" stroke="white"/>
      <circle id="connector31pad" r="1.908" cx="46.8" stroke-width="1.944" cy="10.8" fill="white" stroke="white"/>
      <circle id="connector32pad" r="1.908" cx="46.8" stroke-width="1.944" cy="18" fill="white" stroke="white"/>
      <circle id="connector33pad" r="1.908" cx="46.8" stroke-width="1.944" cy="25.2" fill="white" stroke="white"/>
      <circle id="connector34pad" r="1.908" cx="46.8" stroke-width="1.944" cy="32.4" fill="white" stroke="white"/>
      <circle id="connector35pad" r="1.908" cx="46.8" stroke-width="1.944" cy="39.6" fill="white" stroke="white"/>
      <circle id="connector36pad" r="1.908" cx="46.8" stroke-width="1.944" cy="46.8" fill="white" stroke="white"/>
      <circle id="connector37pad" r="1.908" cx="46.8" stroke-width="1.944" cy="54" fill="white" stroke="white"/>
      <circle id="connector38pad" r="1.908" cx="46.8" stroke-width="1.944" cy="61.2" fill="white" stroke="white"/>
      <circle id="connector39pad" r="1.908" cx="46.8" stroke-width="1.944" cy="68.4" fill="white" stroke="white"/>
      <circle id="connector40pad" r="1.908" cx="46.8" stroke-width="1.944" cy="75.6" fill="white" stroke="white"/>
      <circle id="connector41pad" r="1.908" cx="46.8" stroke-width="1.944" cy="82.8" fill="white" stroke="white"/>
      <circle id="connector42pad" r="1.908" cx="46.8" stroke-width="1.944" cy="90" fill="white" stroke="white"/>
      <circle id="connector43pad" r="1.908" cx="46.8" stroke-width="1.944" cy="97.2" fill="white" stroke="white"/>
      <circle id="connector44pad" r="1.908" cx="46.8" stroke-width="1.944" cy="104.4" fill="white" stroke="white"/>
      <circle id="connector45pad" r="1.908" cx="46.8" stroke-width="1.944" cy="111.6" fill="white" stroke="white"/>
     </g>
    </g>
   </g>
  </g>
 </g>
</svg>
