<?xml version='1.0' encoding='UTF-8' standalone='no'?>
<!-- Created with Fritzing (http://www.fritzing.org/) -->
<svg xmlns="http://www.w3.org/2000/svg" y="0in" viewBox="0 0 283.465 141.732" xmlns:svg="http://www.w3.org/2000/svg"  baseProfile="tiny" x="0in" height="1.9685in" version="1.2" width="3.93701in">
 <g partID="313440">
  <g  id="board">
   <rect y="0.288"  id="boardoutline" fill-opacity="0.5" x="0.288" height="141.156" stroke-width="0.5" fill="none" stroke="black" width="282.889"/>
  </g>
 </g>
 <g partID="931540">
  <g transform="translate(84.5074,51.7834)">
   <g  id="copper0">
    <circle  id="nonconn0" r="2.83465" cx="4.43465" stroke-width="0" cy="4.43465" fill="black" stroke="black"/>
   </g>
  </g>
 </g>
 <g partID="859370">
  <g transform="translate(40.2387,36.4442)">
   <g transform="matrix(0.911029,0.412342,-0.412342,0.911029,0,0)">
    <g  id="copper0">
     <g  id="copper1">
      <!-- <rect width="55" x="10" y="15.5" fill="none" height="55" stroke="rgb(255, 191, 0)" stroke-width="20" />  -->
      <circle  id="connector0pin" r="1.98" cx="2.7" stroke-width="1.44" cy="3.096" fill="none" stroke="black"/>
      <circle  id="connector1pin" r="1.98" cx="31.5" stroke-width="1.44" cy="3.096" fill="none" stroke="black"/>
     </g>
    </g>
   </g>
  </g>
 </g>
 <g partID="940380">
  <g transform="translate(164.542,97.2581)">
   <g transform="matrix(0,1,-1,0,0,0)">
    <g  id="copper0">
     <circle  id="connector0pin" r="2.088" cx="5.04" stroke-width="1.44" cy="5.04" fill="none" stroke="black"/>
     <circle  id="connector1pin" r="2.088" cx="5.04" stroke-width="1.44" cy="12.24" fill="none" stroke="black"/>
    </g>
   </g>
  </g>
 </g>
 <g partID="426140">
  <g transform="translate(7.94904,115.625)">
   <g  id="copper0">
    <circle  id="nonconn0" r="5.95276" cx="7.55273" stroke-width="0" cy="7.55273" fill="black" stroke="black"/>
   </g>
  </g>
 </g>
 <g partID="426130">
  <g transform="translate(263.549,115.625)">
   <g  id="copper0">
    <circle  id="nonconn0" r="5.95276" cx="7.55273" stroke-width="0" cy="7.55273" fill="black" stroke="black"/>
   </g>
  </g>
 </g>
 <g partID="426110">
  <g transform="translate(7.94904,5.46532)">
   <g  id="copper0">
    <circle  id="nonconn0" r="5.95276" cx="7.55273" stroke-width="0" cy="7.55273" fill="black" stroke="black"/>
   </g>
  </g>
 </g>
 <g partID="426080">
  <g transform="translate(263.549,5.46531)">
   <g  id="copper0">
    <circle  id="nonconn0" r="5.95276" cx="7.55273" stroke-width="0" cy="7.55273" fill="black" stroke="black"/>
   </g>
  </g>
 </g>
 <g partID="940340">
  <g transform="translate(50.7818,100.138)">
   <g transform="matrix(0,-1,1,0,0,0)">
    <g  id="copper0">
     <circle  id="connector0pin" r="2.088" cx="5.04" stroke-width="1.44" cy="5.04" fill="none" stroke="black"/>
     <circle  id="connector1pin" r="2.088" cx="5.04" stroke-width="1.44" cy="12.24" fill="none" stroke="black"/>
     <circle  id="connector2pin" r="2.088" cx="5.04" stroke-width="1.44" cy="19.44" fill="none" stroke="black"/>
     <circle  id="connector3pin" r="2.088" cx="5.04" stroke-width="1.44" cy="26.64" fill="none" stroke="black"/>
     <circle  id="connector4pin" r="2.088" cx="5.04" stroke-width="1.44" cy="33.84" fill="none" stroke="black"/>
     <circle  id="connector5pin" r="2.088" cx="5.04" stroke-width="1.44" cy="41.04" fill="none" stroke="black"/>
     <circle  id="connector6pin" r="2.088" cx="5.04" stroke-width="1.44" cy="48.24" fill="none" stroke="black"/>
     <circle  id="connector7pin" r="2.088" cx="5.04" stroke-width="1.44" cy="55.44" fill="none" stroke="black"/>
     <circle  id="connector8pin" r="2.088" cx="5.04" stroke-width="1.44" cy="62.64" fill="none" stroke="black"/>
     <circle  id="connector9pin" r="2.088" cx="5.04" stroke-width="1.44" cy="69.84" fill="none" stroke="black"/>
    </g>
   </g>
  </g>
 </g>
 <g partID="940420">
  <g transform="translate(173.182,52.6181)">
   <g  id="copper0">
    <circle  id="connector0pin" r="2.088" cx="5.04" stroke-width="1.44" cy="5.04" fill="none" stroke="black"/>
    <circle  id="connector1pin" r="2.088" cx="5.04" stroke-width="1.44" cy="12.24" fill="none" stroke="black"/>
   </g>
  </g>
 </g>
 <g partID="324610">
  <g transform="translate(254.758,77.9981)">
   <g transform="matrix(2.22045e-16,1,-1,2.22045e-16,0,0)">
    <g  id="copper0">
     <g  id="copper1">
      <!-- <rect width="55" x="10" y="15.5" fill="none" height="55" stroke="rgb(255, 191, 0)" stroke-width="20" />  -->
      <circle  id="connector0pin" r="1.98" cx="2.7" stroke-width="1.44" cy="3.096" fill="none" stroke="black"/>
      <circle  id="connector1pin" r="1.98" cx="31.5" stroke-width="1.44" cy="3.096" fill="none" stroke="black"/>
     </g>
    </g>
   </g>
  </g>
 </g>
 <g partID="940400">
  <g transform="translate(151.582,90.0581)">
   <g transform="matrix(0,-1,1,0,0,0)">
    <g  id="copper0">
     <circle  id="connector0pin" r="2.088" cx="5.04" stroke-width="1.44" cy="5.04" fill="none" stroke="black"/>
     <circle  id="connector1pin" r="2.088" cx="5.04" stroke-width="1.44" cy="12.24" fill="none" stroke="black"/>
    </g>
   </g>
  </g>
 </g>
 <g partID="885350">
  <g transform="translate(117.922,130.918)">
   <g transform="matrix(-2.22045e-16,-1,1,-2.22045e-16,0,0)">
    <g  id="copper0">
     <g  id="copper1">
      <!-- <rect width="55" x="10" y="10" fill="none" height="55" stroke="rgb(255, 191, 0)" stroke-width="20" /> -->
      <circle  id="connector0pin" r="1.98" cx="2.7" stroke-width="1.44" cy="2.7" fill="none" stroke="black"/>
      <circle  id="connector1pin" r="1.98" cx="24.3" stroke-width="1.44" cy="2.7" fill="none" stroke="black"/>
     </g>
    </g>
   </g>
  </g>
 </g>
 <g partID="885330">
  <g transform="translate(110.326,135.238)">
   <g transform="matrix(-2.22045e-16,-1,1,-2.22045e-16,0,0)">
    <g  id="copper0">
     <g  id="copper1">
      <!-- <rect width="55" x="10" y="15.5" fill="none" height="55" stroke="rgb(255, 191, 0)" stroke-width="20" />  -->
      <circle  id="connector0pin" r="1.98" cx="2.7" stroke-width="1.44" cy="3.096" fill="none" stroke="black"/>
      <circle  id="connector1pin" r="1.98" cx="31.5" stroke-width="1.44" cy="3.096" fill="none" stroke="black"/>
     </g>
    </g>
   </g>
  </g>
 </g>
 <g partID="885310">
  <g transform="translate(103.522,130.918)">
   <g transform="matrix(-2.22045e-16,-1,1,-2.22045e-16,0,0)">
    <g  id="copper0">
     <g  id="copper1">
      <!-- <rect width="55" x="10" y="10" fill="none" height="55" stroke="rgb(255, 191, 0)" stroke-width="20" /> -->
      <circle  id="connector0pin" r="1.98" cx="2.7" stroke-width="1.44" cy="2.7" fill="none" stroke="black"/>
      <circle  id="connector1pin" r="1.98" cx="24.3" stroke-width="1.44" cy="2.7" fill="none" stroke="black"/>
     </g>
    </g>
   </g>
  </g>
 </g>
 <g partID="885290">
  <g transform="translate(95.9258,135.238)">
   <g transform="matrix(-2.22045e-16,-1,1,-2.22045e-16,0,0)">
    <g  id="copper0">
     <g  id="copper1">
      <!-- <rect width="55" x="10" y="15.5" fill="none" height="55" stroke="rgb(255, 191, 0)" stroke-width="20" />  -->
      <circle  id="connector0pin" r="1.98" cx="2.7" stroke-width="1.44" cy="3.096" fill="none" stroke="black"/>
      <circle  id="connector1pin" r="1.98" cx="31.5" stroke-width="1.44" cy="3.096" fill="none" stroke="black"/>
     </g>
    </g>
   </g>
  </g>
 </g>
 <g partID="885270">
  <g transform="translate(89.1218,130.918)">
   <g transform="matrix(-2.22045e-16,-1,1,-2.22045e-16,0,0)">
    <g  id="copper0">
     <g  id="copper1">
      <!-- <rect width="55" x="10" y="10" fill="none" height="55" stroke="rgb(255, 191, 0)" stroke-width="20" /> -->
      <circle  id="connector0pin" r="1.98" cx="2.7" stroke-width="1.44" cy="2.7" fill="none" stroke="black"/>
      <circle  id="connector1pin" r="1.98" cx="24.3" stroke-width="1.44" cy="2.7" fill="none" stroke="black"/>
     </g>
    </g>
   </g>
  </g>
 </g>
 <g partID="885250">
  <g transform="translate(81.5258,135.238)">
   <g transform="matrix(-2.22045e-16,-1,1,-2.22045e-16,0,0)">
    <g  id="copper0">
     <g  id="copper1">
      <!-- <rect width="55" x="10" y="15.5" fill="none" height="55" stroke="rgb(255, 191, 0)" stroke-width="20" />  -->
      <circle  id="connector0pin" r="1.98" cx="2.7" stroke-width="1.44" cy="3.096" fill="none" stroke="black"/>
      <circle  id="connector1pin" r="1.98" cx="31.5" stroke-width="1.44" cy="3.096" fill="none" stroke="black"/>
     </g>
    </g>
   </g>
  </g>
 </g>
 <g partID="885230">
  <g transform="translate(74.7218,130.918)">
   <g transform="matrix(-2.22045e-16,-1,1,-2.22045e-16,0,0)">
    <g  id="copper0">
     <g  id="copper1">
      <!-- <rect width="55" x="10" y="10" fill="none" height="55" stroke="rgb(255, 191, 0)" stroke-width="20" /> -->
      <circle  id="connector0pin" r="1.98" cx="2.7" stroke-width="1.44" cy="2.7" fill="none" stroke="black"/>
      <circle  id="connector1pin" r="1.98" cx="24.3" stroke-width="1.44" cy="2.7" fill="none" stroke="black"/>
     </g>
    </g>
   </g>
  </g>
 </g>
 <g partID="885210">
  <g transform="translate(67.1258,135.238)">
   <g transform="matrix(-2.22045e-16,-1,1,-2.22045e-16,0,0)">
    <g  id="copper0">
     <g  id="copper1">
      <!-- <rect width="55" x="10" y="15.5" fill="none" height="55" stroke="rgb(255, 191, 0)" stroke-width="20" />  -->
      <circle  id="connector0pin" r="1.98" cx="2.7" stroke-width="1.44" cy="3.096" fill="none" stroke="black"/>
      <circle  id="connector1pin" r="1.98" cx="31.5" stroke-width="1.44" cy="3.096" fill="none" stroke="black"/>
     </g>
    </g>
   </g>
  </g>
 </g>
 <g partID="881460">
  <g transform="translate(60.3218,130.918)">
   <g transform="matrix(-2.22045e-16,-1,1,-2.22045e-16,0,0)">
    <g  id="copper0">
     <g  id="copper1">
      <!-- <rect width="55" x="10" y="10" fill="none" height="55" stroke="rgb(255, 191, 0)" stroke-width="20" /> -->
      <circle  id="connector0pin" r="1.98" cx="2.7" stroke-width="1.44" cy="2.7" fill="none" stroke="black"/>
      <circle  id="connector1pin" r="1.98" cx="24.3" stroke-width="1.44" cy="2.7" fill="none" stroke="black"/>
     </g>
    </g>
   </g>
  </g>
 </g>
 <g partID="879330">
  <g transform="translate(52.7258,135.238)">
   <g transform="matrix(-2.22045e-16,-1,1,-2.22045e-16,0,0)">
    <g  id="copper0">
     <g  id="copper1">
      <!-- <rect width="55" x="10" y="15.5" fill="none" height="55" stroke="rgb(255, 191, 0)" stroke-width="20" />  -->
      <circle  id="connector0pin" r="1.98" cx="2.7" stroke-width="1.44" cy="3.096" fill="none" stroke="black"/>
      <circle  id="connector1pin" r="1.98" cx="31.5" stroke-width="1.44" cy="3.096" fill="none" stroke="black"/>
     </g>
    </g>
   </g>
  </g>
 </g>
 <g partID="307920">
  <g transform="translate(121.742,45.3063)">
   <g transform="matrix(0.962591,0.270958,-0.270958,0.962591,0,0)">
    <g  id="copper0">
     <g  id="copper1">
      <!-- <rect width="55" x="10" y="15.5" fill="none" height="55" stroke="rgb(255, 191, 0)" stroke-width="20" />  -->
      <circle  id="connector0pin" r="1.98" cx="2.7" stroke-width="1.44" cy="3.096" fill="none" stroke="black"/>
      <circle  id="connector1pin" r="1.98" cx="31.5" stroke-width="1.44" cy="3.096" fill="none" stroke="black"/>
     </g>
    </g>
   </g>
  </g>
 </g>
 <g partID="307900">
  <g transform="translate(201.442,30.9461)">
   <g transform="matrix(1,-1.11022e-16,1.11022e-16,1,0,0)">
    <g  id="copper0">
     <g  id="copper1">
      <!-- <rect width="55" x="10" y="23.5" fill="none" height="55" stroke="rgb(255, 191, 0)" stroke-width="20" /> -->
      <circle  id="connector0pin" r="1.98" cx="2.7" stroke-width="1.44" cy="3.672" fill="none" stroke="black"/>
      <circle  id="connector1pin" r="1.98" cx="38.7" stroke-width="1.44" cy="3.672" fill="none" stroke="black"/>
     </g>
    </g>
   </g>
  </g>
 </g>
 <g partID="307880">
  <g transform="translate(240.358,72.2381)">
   <g transform="matrix(0,1,-1,0,0,0)">
    <g  id="copper0">
     <g  id="copper1">
      <!-- <rect width="55" x="10" y="15.5" fill="none" height="55" stroke="rgb(255, 191, 0)" stroke-width="20" />  -->
      <circle  id="connector0pin" r="1.98" cx="2.7" stroke-width="1.44" cy="3.096" fill="none" stroke="black"/>
      <circle  id="connector1pin" r="1.98" cx="31.5" stroke-width="1.44" cy="3.096" fill="none" stroke="black"/>
     </g>
    </g>
   </g>
  </g>
 </g>
 <g partID="307860">
  <g transform="translate(233.158,77.9981)">
   <g transform="matrix(0,1,-1,0,0,0)">
    <g  id="copper0">
     <g  id="copper1">
      <!-- <rect width="55" x="10" y="15.5" fill="none" height="55" stroke="rgb(255, 191, 0)" stroke-width="20" />  -->
      <circle  id="connector0pin" r="1.98" cx="2.7" stroke-width="1.44" cy="3.096" fill="none" stroke="black"/>
      <circle  id="connector1pin" r="1.98" cx="31.5" stroke-width="1.44" cy="3.096" fill="none" stroke="black"/>
     </g>
    </g>
   </g>
  </g>
 </g>
 <g partID="307840">
  <g transform="translate(225.958,72.2381)">
   <g transform="matrix(0,1,-1,0,0,0)">
    <g  id="copper0">
     <g  id="copper1">
      <!-- <rect width="55" x="10" y="15.5" fill="none" height="55" stroke="rgb(255, 191, 0)" stroke-width="20" />  -->
      <circle  id="connector0pin" r="1.98" cx="2.7" stroke-width="1.44" cy="3.096" fill="none" stroke="black"/>
      <circle  id="connector1pin" r="1.98" cx="31.5" stroke-width="1.44" cy="3.096" fill="none" stroke="black"/>
     </g>
    </g>
   </g>
  </g>
 </g>
 <g partID="307820">
  <g transform="translate(218.758,77.9981)">
   <g transform="matrix(0,1,-1,0,0,0)">
    <g  id="copper0">
     <g  id="copper1">
      <!-- <rect width="55" x="10" y="15.5" fill="none" height="55" stroke="rgb(255, 191, 0)" stroke-width="20" />  -->
      <circle  id="connector0pin" r="1.98" cx="2.7" stroke-width="1.44" cy="3.096" fill="none" stroke="black"/>
      <circle  id="connector1pin" r="1.98" cx="31.5" stroke-width="1.44" cy="3.096" fill="none" stroke="black"/>
     </g>
    </g>
   </g>
  </g>
 </g>
 <g partID="307800">
  <g transform="translate(211.558,72.2381)">
   <g transform="matrix(0,1,-1,0,0,0)">
    <g  id="copper0">
     <g  id="copper1">
      <!-- <rect width="55" x="10" y="15.5" fill="none" height="55" stroke="rgb(255, 191, 0)" stroke-width="20" />  -->
      <circle  id="connector0pin" r="1.98" cx="2.7" stroke-width="1.44" cy="3.096" fill="none" stroke="black"/>
      <circle  id="connector1pin" r="1.98" cx="31.5" stroke-width="1.44" cy="3.096" fill="none" stroke="black"/>
     </g>
    </g>
   </g>
  </g>
 </g>
 <g partID="307780">
  <g transform="translate(204.358,77.9981)">
   <g transform="matrix(0,1,-1,0,0,0)">
    <g  id="copper0">
     <g  id="copper1">
      <!-- <rect width="55" x="10" y="15.5" fill="none" height="55" stroke="rgb(255, 191, 0)" stroke-width="20" />  -->
      <circle  id="connector0pin" r="1.98" cx="2.7" stroke-width="1.44" cy="3.096" fill="none" stroke="black"/>
      <circle  id="connector1pin" r="1.98" cx="31.5" stroke-width="1.44" cy="3.096" fill="none" stroke="black"/>
     </g>
    </g>
   </g>
  </g>
 </g>
 <g partID="307720">
  <g transform="translate(197.158,72.2381)">
   <g transform="matrix(0,1,-1,0,0,0)">
    <g  id="copper0">
     <g  id="copper1">
      <!-- <rect width="55" x="10" y="15.5" fill="none" height="55" stroke="rgb(255, 191, 0)" stroke-width="20" />  -->
      <circle  id="connector0pin" r="1.98" cx="2.7" stroke-width="1.44" cy="3.096" fill="none" stroke="black"/>
      <circle  id="connector1pin" r="1.98" cx="31.5" stroke-width="1.44" cy="3.096" fill="none" stroke="black"/>
     </g>
    </g>
   </g>
  </g>
 </g>
 <g partID="940360">
  <g transform="translate(256.702,115.978)">
   <g transform="matrix(0,1,-1,0,0,0)">
    <g  id="copper0">
     <circle  id="connector0pin" r="2.27905" cx="5.04" stroke-width="1.44" cy="5.04" fill="none" stroke="black"/>
     <circle  id="connector1pin" r="2.27905" cx="5.04" stroke-width="1.44" cy="12.24" fill="none" stroke="black"/>
     <circle  id="connector2pin" r="2.27905" cx="5.04" stroke-width="1.44" cy="19.44" fill="none" stroke="black"/>
     <circle  id="connector3pin" r="2.27905" cx="5.04" stroke-width="1.44" cy="26.64" fill="none" stroke="black"/>
     <circle  id="connector4pin" r="2.27905" cx="5.04" stroke-width="1.44" cy="33.84" fill="none" stroke="black"/>
     <circle  id="connector5pin" r="2.27905" cx="5.04" stroke-width="1.44" cy="41.04" fill="none" stroke="black"/>
     <circle  id="connector6pin" r="2.27905" cx="5.04" stroke-width="1.44" cy="48.24" fill="none" stroke="black"/>
     <circle  id="connector7pin" r="2.27905" cx="5.04" stroke-width="1.44" cy="55.44" fill="none" stroke="black"/>
     <circle  id="connector8pin" r="2.27905" cx="5.04" stroke-width="1.44" cy="62.64" fill="none" stroke="black"/>
     <circle  id="connector9pin" r="2.27905" cx="5.04" stroke-width="1.44" cy="69.84" fill="none" stroke="black"/>
    </g>
   </g>
  </g>
 </g>
 <g partID="307560">
  <g transform="translate(192.622,70.6181)">
   <g transform="matrix(0,-1,1,0,0,0)">
    <g  id="copper0">
     <rect y="2.34"  id="square" x="2.34" height="3.96" stroke-width="1.44" fill="none" stroke="black" width="3.96"/>
     <circle  id="connector0pin" r="1.98" cx="4.32" stroke-width="1.44" cy="4.32" fill="none" stroke="black"/>
     <circle  id="connector15pin" r="1.98" cx="25.92" stroke-width="1.44" cy="4.32" fill="none" stroke="black"/>
     <circle  id="connector1pin" r="1.98" cx="4.32" stroke-width="1.44" cy="11.52" fill="none" stroke="black"/>
     <circle  id="connector14pin" r="1.98" cx="25.92" stroke-width="1.44" cy="11.52" fill="none" stroke="black"/>
     <circle  id="connector2pin" r="1.98" cx="4.32" stroke-width="1.44" cy="18.72" fill="none" stroke="black"/>
     <circle  id="connector13pin" r="1.98" cx="25.92" stroke-width="1.44" cy="18.72" fill="none" stroke="black"/>
     <circle  id="connector3pin" r="1.98" cx="4.32" stroke-width="1.44" cy="25.92" fill="none" stroke="black"/>
     <circle  id="connector12pin" r="1.98" cx="25.92" stroke-width="1.44" cy="25.92" fill="none" stroke="black"/>
     <circle  id="connector4pin" r="1.98" cx="4.32" stroke-width="1.44" cy="33.12" fill="none" stroke="black"/>
     <circle  id="connector11pin" r="1.98" cx="25.92" stroke-width="1.44" cy="33.12" fill="none" stroke="black"/>
     <circle  id="connector5pin" r="1.98" cx="4.32" stroke-width="1.44" cy="40.32" fill="none" stroke="black"/>
     <circle  id="connector10pin" r="1.98" cx="25.92" stroke-width="1.44" cy="40.32" fill="none" stroke="black"/>
     <circle  id="connector6pin" r="1.98" cx="4.32" stroke-width="1.44" cy="47.52" fill="none" stroke="black"/>
     <circle  id="connector9pin" r="1.98" cx="25.92" stroke-width="1.44" cy="47.52" fill="none" stroke="black"/>
     <circle  id="connector7pin" r="1.98" cx="4.32" stroke-width="1.44" cy="54.72" fill="none" stroke="black"/>
     <circle  id="connector8pin" r="1.98" cx="25.92" stroke-width="1.44" cy="54.72" fill="none" stroke="black"/>
    </g>
   </g>
  </g>
 </g>
 <g partID="419260">
  <g transform="translate(164.542,28.1381)">
   <g transform="matrix(0,1,-1,0,0,0)">
    <g  id="copper0">
     <circle  id="connector16pad" r="1.908" cx="3.6" stroke-width="1.224" cy="10.8" fill="none" stroke="black"/>
     <rect y="8.892"  x="1.692" height="3.816" stroke-width="1.224" fill="none" stroke="black" width="3.814"/>
     <circle  id="connector17pad" r="1.908" cx="3.6" stroke-width="1.224" cy="18" fill="none" stroke="black"/>
     <circle  id="connector18pad" r="1.908" cx="3.6" stroke-width="1.224" cy="25.2" fill="none" stroke="black"/>
     <circle  id="connector19pad" r="1.908" cx="3.6" stroke-width="1.224" cy="32.4" fill="none" stroke="black"/>
     <circle  id="connector20pad" r="1.908" cx="3.6" stroke-width="1.224" cy="39.6" fill="none" stroke="black"/>
     <circle  id="connector21pad" r="1.908" cx="3.6" stroke-width="1.224" cy="46.8" fill="none" stroke="black"/>
     <circle  id="connector22pad" r="1.908" cx="3.6" stroke-width="1.224" cy="54" fill="none" stroke="black"/>
     <circle  id="connector23pad" r="1.908" cx="3.6" stroke-width="1.224" cy="61.2" fill="none" stroke="black"/>
     <circle  id="connector24pad" r="1.908" cx="3.6" stroke-width="1.224" cy="68.4" fill="none" stroke="black"/>
     <circle  id="connector25pad" r="1.908" cx="3.6" stroke-width="1.224" cy="75.6" fill="none" stroke="black"/>
     <circle  id="connector26pad" r="1.908" cx="3.6" stroke-width="1.224" cy="82.8" fill="none" stroke="black"/>
     <circle  id="connector27pad" r="1.908" cx="3.6" stroke-width="1.224" cy="90" fill="none" stroke="black"/>
     <circle  id="connector28pad" r="1.908" cx="3.6" stroke-width="1.224" cy="97.2" fill="none" stroke="black"/>
     <circle  id="connector29pad" r="1.908" cx="3.6" stroke-width="1.224" cy="104.4" fill="none" stroke="black"/>
     <circle  id="connector30pad" r="1.908" cx="3.6" stroke-width="1.224" cy="111.6" fill="none" stroke="black"/>
     <circle  id="connector31pad" r="1.908" cx="46.8" stroke-width="1.224" cy="10.8" fill="none" stroke="black"/>
     <circle  id="connector32pad" r="1.908" cx="46.8" stroke-width="1.224" cy="18" fill="none" stroke="black"/>
     <circle  id="connector33pad" r="1.908" cx="46.8" stroke-width="1.224" cy="25.2" fill="none" stroke="black"/>
     <circle  id="connector34pad" r="1.908" cx="46.8" stroke-width="1.224" cy="32.4" fill="none" stroke="black"/>
     <circle  id="connector35pad" r="1.908" cx="46.8" stroke-width="1.224" cy="39.6" fill="none" stroke="black"/>
     <circle  id="connector36pad" r="1.908" cx="46.8" stroke-width="1.224" cy="46.8" fill="none" stroke="black"/>
     <circle  id="connector37pad" r="1.908" cx="46.8" stroke-width="1.224" cy="54" fill="none" stroke="black"/>
     <circle  id="connector38pad" r="1.908" cx="46.8" stroke-width="1.224" cy="61.2" fill="none" stroke="black"/>
     <circle  id="connector39pad" r="1.908" cx="46.8" stroke-width="1.224" cy="68.4" fill="none" stroke="black"/>
     <circle  id="connector40pad" r="1.908" cx="46.8" stroke-width="1.224" cy="75.6" fill="none" stroke="black"/>
     <circle  id="connector41pad" r="1.908" cx="46.8" stroke-width="1.224" cy="82.8" fill="none" stroke="black"/>
     <circle  id="connector42pad" r="1.908" cx="46.8" stroke-width="1.224" cy="90" fill="none" stroke="black"/>
     <circle  id="connector43pad" r="1.908" cx="46.8" stroke-width="1.224" cy="97.2" fill="none" stroke="black"/>
     <circle  id="connector44pad" r="1.908" cx="46.8" stroke-width="1.224" cy="104.4" fill="none" stroke="black"/>
     <circle  id="connector45pad" r="1.908" cx="46.8" stroke-width="1.224" cy="111.6" fill="none" stroke="black"/>
    </g>
   </g>
  </g>
 </g>
 <g partID="933910">
  <line y1="5.81471" x2="103.689" y2="30.4894" x1="110.549" stroke-width="1.152" stroke-linecap="round" stroke="black"/>
 </g>
 <g partID="934070">
  <line y1="30.365" x2="240.21" y2="24.4846" x1="264.613" stroke-width="1.152" stroke-linecap="round" stroke="black"/>
 </g>
 <g partID="934020">
  <line y1="24.4846" x2="240.21" y2="7.28472" x1="240.21" stroke-width="1.152" stroke-linecap="round" stroke="black"/>
 </g>
 <g partID="933970">
  <line y1="7.28478" x2="110.549" y2="5.81471" x1="240.21" stroke-width="1.152" stroke-linecap="round" stroke="black"/>
 </g>
 <g partID="940000">
  <line y1="76.3927" x2="264.613" y2="30.365" x1="264.595" stroke-width="1.152" stroke-linecap="round" stroke="black"/>
 </g>
 <g partID="933920">
  <line y1="80.3001" x2="264.595" y2="76.3927" x1="252.857" stroke-width="1.152" stroke-linecap="round" stroke="black"/>
 </g>
 <g partID="937510">
  <line y1="119.459" x2="194.062" y2="104.998" x1="194.062" stroke-width="1.152" stroke-linecap="round" stroke="black"/>
 </g>
 <g partID="937570">
  <path d="M201.262,109.498C201.106,113.55, 201.262,121.018 201.262,121.018" stroke-width="1.152" stroke-linecap="round" fill="none" stroke="black"/>
 </g>
 <g partID="937770">
  <line y1="119.459" x2="208.462" y2="104.998" x1="208.462" stroke-width="1.152" stroke-linecap="round" stroke="black"/>
 </g>
 <g partID="937810">
  <line y1="119.459" x2="215.662" y2="110.758" x1="215.662" stroke-width="1.152" stroke-linecap="round" stroke="black"/>
 </g>
 <g partID="937850">
  <line y1="119.459" x2="222.862" y2="104.998" x1="222.862" stroke-width="1.152" stroke-linecap="round" stroke="black"/>
 </g>
 <g partID="937890">
  <line y1="119.459" x2="230.062" y2="110.758" x1="230.062" stroke-width="1.152" stroke-linecap="round" stroke="black"/>
 </g>
 <g partID="937930">
  <line y1="119.459" x2="237.262" y2="104.998" x1="237.262" stroke-width="1.152" stroke-linecap="round" stroke="black"/>
 </g>
 <g partID="939970">
  <line y1="72.0815" x2="255.939" y2="34.6282" x1="255.973" stroke-width="1.152" stroke-linecap="round" stroke="black"/>
 </g>
 <g partID="938100">
  <line y1="76.4629" x2="255.973" y2="72.0815" x1="244.521" stroke-width="1.152" stroke-linecap="round" stroke="black"/>
 </g>
 <g partID="938010">
  <line y1="34.6282" x2="241.402" y2="34.6189" x1="255.939" stroke-width="1.152" stroke-linecap="round" stroke="black"/>
 </g>
 <g partID="937970">
  <line y1="119.459" x2="244.521" y2="76.4629" x1="244.464" stroke-width="1.152" stroke-linecap="round" stroke="black"/>
 </g>
 <g partID="938060">
  <line y1="119.459" x2="251.662" y2="110.758" x1="251.662" stroke-width="1.152" stroke-linecap="round" stroke="black"/>
 </g>
 <g partID="940090">
  <line y1="118.234" x2="185.315" y2="120.82" x1="165.183" stroke-width="1.728" stroke-linecap="round" stroke="black"/>
 </g>
 <g partID="938440">
  <line y1="103.587" x2="165.183" y2="118.234" x1="159.961" stroke-width="1.728" stroke-linecap="round" stroke="black"/>
 </g>
 <g partID="886720">
  <line y1="96.4661" x2="55.8218" y2="102.478" x1="55.8218" stroke-width="1.728" stroke-linecap="round" stroke="black"/>
 </g>
 <g partID="886810">
  <line y1="96.4661" x2="63.0218" y2="105.358" x1="63.0218" stroke-width="1.728" stroke-linecap="round" stroke="black"/>
 </g>
 <g partID="886920">
  <line y1="96.4661" x2="70.2218" y2="102.478" x1="70.2218" stroke-width="1.728" stroke-linecap="round" stroke="black"/>
 </g>
 <g partID="887050">
  <line y1="96.4661" x2="77.4218" y2="105.358" x1="77.4218" stroke-width="1.728" stroke-linecap="round" stroke="black"/>
 </g>
 <g partID="887200">
  <line y1="96.4661" x2="84.6218" y2="102.478" x1="84.6218" stroke-width="1.728" stroke-linecap="round" stroke="black"/>
 </g>
 <g partID="887370">
  <line y1="96.4661" x2="91.8218" y2="105.358" x1="91.8218" stroke-width="1.728" stroke-linecap="round" stroke="black"/>
 </g>
 <g partID="887540">
  <line y1="96.4661" x2="99.0218" y2="102.478" x1="99.0218" stroke-width="1.728" stroke-linecap="round" stroke="black"/>
 </g>
 <g partID="887610">
  <line y1="96.4661" x2="106.222" y2="105.358" x1="106.222" stroke-width="1.728" stroke-linecap="round" stroke="black"/>
 </g>
 <g partID="887680">
  <line y1="96.4661" x2="113.422" y2="102.478" x1="113.422" stroke-width="1.728" stroke-linecap="round" stroke="black"/>
 </g>
 <g partID="887790">
  <line y1="96.4661" x2="120.622" y2="105.358" x1="120.622" stroke-width="1.728" stroke-linecap="round" stroke="black"/>
 </g>
 <g partID="887900">
  <line y1="131.89" x2="119.541" y2="128.866" x1="114.502" stroke-width="1.728" stroke-linecap="round" stroke="black"/>
 </g>
 <g partID="887930">
  <line y1="128.866" x2="112.341" y2="131.89" x1="107.302" stroke-width="1.728" stroke-linecap="round" stroke="black"/>
 </g>
 <g partID="887960">
  <line y1="131.89" x2="105.141" y2="128.866" x1="100.102" stroke-width="1.728" stroke-linecap="round" stroke="black"/>
 </g>
 <g partID="887990">
  <line y1="128.866" x2="97.9414" y2="131.89" x1="92.9023" stroke-width="1.728" stroke-linecap="round" stroke="black"/>
 </g>
 <g partID="888020">
  <line y1="131.89" x2="90.7414" y2="128.866" x1="85.7023" stroke-width="1.728" stroke-linecap="round" stroke="black"/>
 </g>
 <g partID="888050">
  <line y1="128.866" x2="83.5414" y2="131.89" x1="78.5023" stroke-width="1.728" stroke-linecap="round" stroke="black"/>
 </g>
 <g partID="888100">
  <line y1="131.89" x2="76.3414" y2="128.866" x1="71.3023" stroke-width="1.728" stroke-linecap="round" stroke="black"/>
 </g>
 <g partID="888190">
  <line y1="128.866" x2="69.1414" y2="131.89" x1="64.1023" stroke-width="1.728" stroke-linecap="round" stroke="black"/>
 </g>
 <g partID="888380">
  <line y1="131.89" x2="61.9414" y2="128.866" x1="56.9023" stroke-width="1.728" stroke-linecap="round" stroke="black"/>
 </g>
 <g partID="888660">
  <line y1="116.631" x2="151.683" y2="103.518" x1="145.031" stroke-width="1.728" stroke-linecap="round" stroke="black"/>
 </g>
 <g partID="888790">
  <line y1="86.4235" x2="32.7229" y2="102.174" x1="21.1326" stroke-width="1.728" stroke-linecap="round" stroke="black"/>
 </g>
 <g partID="888760">
  <line y1="54.7754" x2="21.1326" y2="86.4235" x1="34.2922" stroke-width="1.728" stroke-linecap="round" stroke="black"/>
 </g>
 <g partID="940030">
  <line y1="118.223" x2="145.032" y2="116.631" x1="47.2851" stroke-width="1.728" stroke-linecap="round" stroke="black"/>
 </g>
 <g partID="888700">
  <line y1="102.175" x2="47.2851" y2="118.223" x1="32.7229" stroke-width="1.728" stroke-linecap="round" stroke="black"/>
 </g>
 <g partID="888670">
  <line y1="41.5072" x2="34.2921" y2="54.7754" x1="40.8627" stroke-width="1.728" stroke-linecap="round" stroke="black"/>
 </g>
 <g partID="888840">
  <line y1="23.1109" x2="74.1355" y2="30.5073" x1="71.6954" stroke-width="1.728" stroke-linecap="round" stroke="black"/>
 </g>
 <g partID="889680">
  <line y1="23.0337" x2="71.6956" y2="23.1109" x1="42.921" stroke-width="1.728" stroke-linecap="round" stroke="black"/>
 </g>
 <g partID="940060">
  <line y1="89.3954" x2="15.4936" y2="74.9604" x1="11.3254" stroke-width="1.728" stroke-linecap="round" stroke="black"/>
 </g>
 <g partID="889240">
  <line y1="132.488" x2="11.3254" y2="89.3954" x1="42.8273" stroke-width="1.728" stroke-linecap="round" stroke="black"/>
 </g>
 <g partID="889110">
  <line y1="74.9604" x2="34.2922" y2="36.131" x1="15.4936" stroke-width="1.728" stroke-linecap="round" stroke="black"/>
 </g>
 <g partID="888980">
  <line y1="36.131" x2="42.921" y2="23.0337" x1="34.2922" stroke-width="1.728" stroke-linecap="round" stroke="black"/>
 </g>
 <g partID="889490">
  <line y1="132.488" x2="54.5618" y2="132.533" x1="42.8273" stroke-width="1.728" stroke-linecap="round" stroke="black"/>
 </g>
 <g partID="859340">
  <line y1="38.9134" x2="29.9139" y2="82.0302" x1="47.2371" stroke-width="1.728" stroke-linecap="round" stroke="black"/>
 </g>
 <g partID="939680">
  <line y1="95.0749" x2="54.4538" y2="95.0952" x1="45.7301" stroke-width="1.728" stroke-linecap="round" stroke="black"/>
 </g>
 <g partID="789480">
  <line y1="82.0302" x2="45.7301" y2="95.0746" x1="29.9139" stroke-width="1.728" stroke-linecap="round" stroke="black"/>
 </g>
 <g partID="777150">
  <line y1="32.7525" x2="47.2373" y2="38.9134" x1="52.1353" stroke-width="1.728" stroke-linecap="round" stroke="black"/>
 </g>
 <g partID="939800">
  <line y1="87.8892" x2="60.1005" y2="89.3263" x1="50.041" stroke-width="1.728" stroke-linecap="round" stroke="black"/>
 </g>
 <g partID="939770">
  <line y1="89.3262" x2="62.4038" y2="93.8775" x1="60.1002" stroke-width="1.728" stroke-linecap="round" stroke="black"/>
 </g>
 <g partID="787820">
  <line y1="80.6102" x2="50.0412" y2="87.8892" x1="37.0139" stroke-width="1.728" stroke-linecap="round" stroke="black"/>
 </g>
 <g partID="777430">
  <line y1="40.3376" x2="37.0139" y2="80.6102" x1="52.9338" stroke-width="1.728" stroke-linecap="round" stroke="black"/>
 </g>
 <g partID="777220">
  <line y1="32.7313" x2="52.934" y2="40.3376" x1="59.3093" stroke-width="1.728" stroke-linecap="round" stroke="black"/>
 </g>
 <g partID="939740">
  <line y1="83.578" x2="67.2864" y2="83.578" x1="55.7898" stroke-width="1.728" stroke-linecap="round" stroke="black"/>
 </g>
 <g partID="939710">
  <line y1="83.578" x2="69.8843" y2="93.7724" x1="67.2866" stroke-width="1.728" stroke-linecap="round" stroke="black"/>
 </g>
 <g partID="785330">
  <line y1="76.3502" x2="55.7895" y2="83.578" x1="44.3979" stroke-width="1.728" stroke-linecap="round" stroke="black"/>
 </g>
 <g partID="777360">
  <line y1="41.7618" x2="44.3979" y2="76.3502" x1="58.7602" stroke-width="1.728" stroke-linecap="round" stroke="black"/>
 </g>
 <g partID="777290">
  <line y1="32.7226" x2="58.7604" y2="41.7618" x1="66.499" stroke-width="1.728" stroke-linecap="round" stroke="black"/>
 </g>
 <g partID="796310">
  <line y1="93.7604" x2="124.67" y2="76.2053" x1="120.908" stroke-width="1.728" stroke-linecap="round" stroke="black"/>
 </g>
 <g partID="796900">
  <line y1="93.7604" x2="117.47" y2="76.2053" x1="113.708" stroke-width="1.728" stroke-linecap="round" stroke="black"/>
 </g>
 <g partID="797530">
  <line y1="93.7604" x2="110.27" y2="76.2053" x1="106.508" stroke-width="1.728" stroke-linecap="round" stroke="black"/>
 </g>
 <g partID="798200">
  <line y1="93.7604" x2="103.07" y2="76.2053" x1="99.3085" stroke-width="1.728" stroke-linecap="round" stroke="black"/>
 </g>
 <g partID="798910">
  <line y1="93.7604" x2="95.8702" y2="76.2053" x1="92.1085" stroke-width="1.728" stroke-linecap="round" stroke="black"/>
 </g>
 <g partID="799660">
  <line y1="93.7604" x2="88.6701" y2="76.2053" x1="84.9085" stroke-width="1.728" stroke-linecap="round" stroke="black"/>
 </g>
 <g partID="800450">
  <line y1="93.7604" x2="81.4701" y2="76.2053" x1="77.7085" stroke-width="1.728" stroke-linecap="round" stroke="black"/>
 </g>
 <g partID="888730">
  <line y1="64.791" x2="53.4479" y2="73.7452" x1="57.2506" stroke-width="1.728" stroke-linecap="round" stroke="black"/>
 </g>
 <g partID="859400">
  <line y1="53.223" x2="57.251" y2="64.791" x1="66.8546" stroke-width="1.728" stroke-linecap="round" stroke="black"/>
 </g>
 <g partID="859640">
  <line y1="100.949" x2="156.847" y2="86.3675" x1="159.277" stroke-width="1.728" stroke-linecap="round" stroke="black"/>
 </g>
 <g partID="933410">
  <line y1="66.4102" x2="146.556" y2="73.6422" x1="146.638" stroke-width="1.728" stroke-linecap="round" stroke="black"/>
 </g>
 <g partID="528660">
  <line y1="64.9252" x2="146.638" y2="66.4102" x1="176.855" stroke-width="1.728" stroke-linecap="round" stroke="black"/>
 </g>
 <g partID="529610">
  <line y1="56.8607" x2="176.855" y2="57.6157" x1="152.484" stroke-width="1.152" stroke-linecap="round" stroke="black"/>
 </g>
 <g partID="588570">
  <line y1="59.0426" x2="179.49" y2="64.3448" x1="192.588" stroke-width="1.728" stroke-linecap="round" stroke="black"/>
 </g>
 <g partID="531200">
  <line y1="59.0794" x2="192.588" y2="59.0426" x1="244.506" stroke-width="1.728" stroke-linecap="round" stroke="black"/>
 </g>
 <g partID="531110">
  <line y1="65.1253" x2="244.506" y2="59.0794" x1="246.881" stroke-width="1.728" stroke-linecap="round" stroke="black"/>
 </g>
 <g partID="625060">
  <line y1="38.9442" x2="122.328" y2="48.5609" x1="97.6306" stroke-width="1.728" stroke-linecap="round" stroke="black"/>
 </g>
 <g partID="624750">
  <line y1="33.0073" x2="97.6308" y2="38.9442" x1="96.4041" stroke-width="1.728" stroke-linecap="round" stroke="black"/>
 </g>
 <g partID="429290">
  <line y1="43.4381" x2="204.142" y2="35.8781" x1="204.142" stroke-width="1.728" stroke-linecap="round" stroke="black"/>
 </g>
 <g partID="437330">
  <line y1="11.6647" x2="114.875" y2="11.5449" x1="235.788" stroke-width="1.152" stroke-linecap="round" stroke="black"/>
 </g>
 <g partID="429800">
  <line y1="43.4427" x2="235.788" y2="11.6646" x1="233.05" stroke-width="1.152" stroke-linecap="round" stroke="black"/>
 </g>
 <g partID="429700">
  <line y1="11.5449" x2="110.814" y2="30.471" x1="114.875" stroke-width="1.152" stroke-linecap="round" stroke="black"/>
 </g>
 <g partID="429750">
  <line y1="15.9444" x2="117.977" y2="30.4637" x1="120.658" stroke-width="1.152" stroke-linecap="round" stroke="black"/>
 </g>
 <g partID="429600">
  <line y1="15.9414" x2="120.658" y2="15.9443" x1="228.66" stroke-width="1.152" stroke-linecap="round" stroke="black"/>
 </g>
 <g partID="429560">
  <line y1="43.4445" x2="228.66" y2="15.9414" x1="225.869" stroke-width="1.152" stroke-linecap="round" stroke="black"/>
 </g>
 <g partID="436940">
  <line y1="37.4622" x2="192.665" y2="25.9204" x1="170.964" stroke-width="1.728" stroke-linecap="round" stroke="black"/>
 </g>
 <g partID="529540">
  <line y1="25.9204" x2="214.227" y2="25.9204" x1="192.664" stroke-width="1.728" stroke-linecap="round" stroke="black"/>
 </g>
 <g partID="436830">
  <line y1="37.4669" x2="170.964" y2="37.4621" x1="127.856" stroke-width="1.728" stroke-linecap="round" stroke="black"/>
 </g>
 <g partID="436720">
  <line y1="25.9204" x2="211.533" y2="43.4527" x1="214.227" stroke-width="1.728" stroke-linecap="round" stroke="black"/>
 </g>
 <g partID="436030">
  <line y1="32.8932" x2="127.856" y2="37.4669" x1="125.529" stroke-width="1.728" stroke-linecap="round" stroke="black"/>
 </g>
 <g partID="447870">
  <line y1="20.2181" x2="133.605" y2="20.2181" x1="221.355" stroke-width="1.728" stroke-linecap="round" stroke="black"/>
 </g>
 <g partID="447840">
  <line y1="20.2181" x2="132.305" y2="30.4524" x1="133.605" stroke-width="1.728" stroke-linecap="round" stroke="black"/>
 </g>
 <g partID="447640">
  <line y1="43.4463" x2="221.355" y2="20.2181" x1="218.686" stroke-width="1.728" stroke-linecap="round" stroke="black"/>
 </g>
 <g partID="447690">
  <line y1="53.4115" x2="197.146" y2="45.9414" x1="198.375" stroke-width="1.152" stroke-linecap="round" stroke="black"/>
 </g>
 <g partID="447770">
  <line y1="53.4817" x2="198.375" y2="53.4115" x1="240.138" stroke-width="1.152" stroke-linecap="round" stroke="black"/>
 </g>
 <g partID="447700">
  <line y1="45.9581" x2="240.138" y2="53.4817" x1="240.141" stroke-width="1.152" stroke-linecap="round" stroke="black"/>
 </g>
 <g partID="414310">
  <line y1="73.7427" x2="196.543" y2="67.4934" x1="194.46" stroke-width="1.728" stroke-linecap="round" stroke="black"/>
 </g>
 <g partID="414330">
  <line y1="79.4625" x2="203.895" y2="67.5336" x1="201.509" stroke-width="1.728" stroke-linecap="round" stroke="black"/>
 </g>
 <g partID="414370">
  <line y1="73.7427" x2="210.943" y2="67.4934" x1="208.86" stroke-width="1.728" stroke-linecap="round" stroke="black"/>
 </g>
 <g partID="414390">
  <line y1="79.4625" x2="218.295" y2="67.5336" x1="215.909" stroke-width="1.728" stroke-linecap="round" stroke="black"/>
 </g>
 <g partID="414410">
  <line y1="73.7427" x2="225.343" y2="67.4934" x1="223.26" stroke-width="1.728" stroke-linecap="round" stroke="black"/>
 </g>
 <g partID="414450">
  <line y1="79.4625" x2="232.695" y2="67.5336" x1="230.309" stroke-width="1.728" stroke-linecap="round" stroke="black"/>
 </g>
 <g partID="414470">
  <line y1="73.7427" x2="239.743" y2="67.4934" x1="237.66" stroke-width="1.728" stroke-linecap="round" stroke="black"/>
 </g>
 <g partID="627840">
  <line y1="74.972" x2="155.038" y2="74.9432" x1="162.312" stroke-width="1.728" stroke-linecap="round" stroke="black"/>
 </g>
 <g partID="416170">
  <line y1="83.6653" x2="162.312" y2="74.972" x1="163.619" stroke-width="1.728" stroke-linecap="round" stroke="black"/>
 </g>
 <g partID="627890">
  <line y1="82.2122" x2="147.029" y2="76.1391" x1="149.491" stroke-width="1.728" stroke-linecap="round" stroke="black"/>
 </g>
 <g partID="416210">
  <line y1="84.5171" x2="149.491" y2="82.2122" x1="155.349" stroke-width="1.728" stroke-linecap="round" stroke="black"/>
 </g>
 <g partID="412840">
  <line y1="44.6539" x2="132.442" y2="73.6773" x1="139.355" stroke-width="1.728" stroke-linecap="round" stroke="black"/>
 </g>
 <g partID="412810">
  <line y1="44.6971" x2="139.355" y2="44.6539" x1="195.682" stroke-width="1.728" stroke-linecap="round" stroke="black"/>
 </g>
</svg>
